<svg xmlns="http://www.w3.org/2000/svg" width="56" height="56" fill="none"><path fill="#FA8C16" fill-rule="evenodd" d="M5.6 5.6V49h28V5.6h-28ZM4.2 2.8c-.8 0-1.4.6-1.4 1.4v46.2c0 .8.6 1.4 1.4 1.4H35c.8 0 1.4-.6 1.4-1.4V4.2c0-.8-.6-1.4-1.4-1.4H4.2Z" clip-rule="evenodd"/><path fill="#FA8C16" d="M9.8 0h19.6v7H9.8V0Z"/><path fill="#FA8C16" fill-rule="evenodd" d="M29.4 14H9.8v-2.8h19.6V14Zm0 8.4H9.8v-2.8h19.6v2.8Zm0 8.4H9.8V28h19.6v2.8Z" clip-rule="evenodd"/><path fill="#fff" d="M54.6 39.2a16.8 16.8 0 1 1-33.6 0 16.8 16.8 0 0 1 33.6 0Z"/><path fill="#FA8C16" fill-rule="evenodd" d="M37.8 53.2a14 14 0 1 0 0-28 14 14 0 0 0 0 28Zm0 2.8a16.8 16.8 0 1 0 0-33.6 16.8 16.8 0 0 0 0 33.6Z" clip-rule="evenodd"/><path fill="#FA8C16" d="M45.2 43.7c0 1.5-.5 2.7-1.6 3.7-1 1-2.6 1.6-4.6 1.8v3h-2.2v-3a15 15 0 0 1-3.7-.7 8.1 8.1 0 0 1-2.8-1.5l1.2-2.7a9 9 0 0 0 2.4 1.4c1 .4 2 .6 3 .7V41c-1.3-.3-2.4-.6-3.2-1a4 4 0 0 1-2.1-1.5c-.6-.7-.9-1.7-.9-2.8a5 5 0 0 1 1.6-3.7c1-1 2.6-1.6 4.5-1.8v-3H39v3a12.3 12.3 0 0 1 5.4 1.6l-1 2.6A11 11 0 0 0 39 33v5.4c1.3.3 2.4.6 3.2 1 .8.3 1.6.9 2.1 1.6.6.7.9 1.6.9 2.7Zm-11-8.2c0 .6.2 1 .7 1.4a6 6 0 0 0 2 1V33c-1 .1-1.6.4-2 .8a2 2 0 0 0-.7 1.6ZM39 46.3c1-.1 1.7-.4 2.1-.8.5-.4.7-1 .7-1.5 0-.6-.2-1.1-.7-1.5a6 6 0 0 0-2-.9v4.7Z"/></svg>