<svg xmlns="http://www.w3.org/2000/svg" width="56" height="56" fill="none"><path fill="#FA8C16" fill-rule="evenodd" d="M5.2 8.4V49h25.2V8.4H5.2ZM3.8 5.6c-.8 0-1.4.6-1.4 1.4v43.4c0 .8.6 1.4 1.4 1.4h28c.8 0 1.4-.6 1.4-1.4V7c0-.8-.6-1.4-1.4-1.4h-28Z" clip-rule="evenodd"/><path fill="#FA8C16" fill-rule="evenodd" d="M33.2 21v28H50V21H33.2Zm-1.4-2.8c-.8 0-1.4.6-1.4 1.4v30.8c0 .8.6 1.4 1.4 1.4h19.6c.8 0 1.4-.6 1.4-1.4V19.6c0-.8-.6-1.4-1.4-1.4H31.8Zm-21 19.6V49h5.6V37.8h-5.6ZM9.4 35c-.8 0-1.4.6-1.4 1.4v14c0 .8.6 1.4 1.4 1.4h8.4c.8 0 1.4-.6 1.4-1.4v-14c0-.8-.6-1.4-1.4-1.4H9.4Zm2.8-21v4.2h4.2V14h-4.2Zm-1.4-2.8c-.8 0-1.4.6-1.4 1.4v7c0 .8.6 1.4 1.4 1.4h7c.8 0 1.4-.6 1.4-1.4v-7c0-.8-.6-1.4-1.4-1.4h-7Z" clip-rule="evenodd"/><path fill="#FA8C16" fill-rule="evenodd" d="M38.8 26.6v4.2H43v-4.2h-4.2Zm-1.4-2.8c-.8 0-1.4.6-1.4 1.4v7c0 .8.6 1.4 1.4 1.4h7c.8 0 1.4-.6 1.4-1.4v-7c0-.8-.6-1.4-1.4-1.4h-7Zm-25.2 1.4v4.2h4.2v-4.2h-4.2Zm-1.4-2.8c-.8 0-1.4.6-1.4 1.4v7c0 .8.6 1.4 1.4 1.4h7c.8 0 1.4-.6 1.4-1.4v-7c0-.8-.6-1.4-1.4-1.4h-7Zm28 15.4V42H43v-4.2h-4.2ZM37.4 35c-.8 0-1.4.6-1.4 1.4v7c0 .8.6 1.4 1.4 1.4h7c.8 0 1.4-.6 1.4-1.4v-7c0-.8-.6-1.4-1.4-1.4h-7Z" clip-rule="evenodd"/><path fill="#FA8C16" d="M1 2.8h33.6v7H1v-7ZM33.2 14h21v7h-21v-7Z"/></svg>