<svg xmlns="http://www.w3.org/2000/svg" width="56" height="56" fill="none"><path fill="#FA8C16" fill-rule="evenodd" d="M7.8 8.8v41.9h40.4v-42H7.8Zm-1.5-3c-.8 0-1.4.7-1.4 1.5v44.8c0 .8.6 1.5 1.4 1.5h43.4c.8 0 1.4-.7 1.4-1.5V7.3c0-.8-.6-1.4-1.4-1.4H6.3Z" clip-rule="evenodd"/><path fill="#FA8C16" fill-rule="evenodd" d="M13.6 16v28.9h28.8V16H13.6ZM12 13.1c-.8 0-1.4.7-1.4 1.5v31.7c0 .8.6 1.5 1.4 1.5h32c.8 0 1.4-.7 1.4-1.5V14.6c0-.8-.6-1.5-1.4-1.5H12Z" clip-rule="evenodd"/><path fill="#FA8C16" d="M2 3h52v7.2H2V3Z"/><path fill="#FA8C16" fill-rule="evenodd" d="M27 46V15h2v31h-2Z" clip-rule="evenodd"/><path fill="#FA8C16" fill-rule="evenodd" d="M13 29h30v3H13v-3Z" clip-rule="evenodd"/></svg>