<svg xmlns="http://www.w3.org/2000/svg" width="56" height="56" fill="none" viewBox="0 0 56 56"><g clip-path="url(#a)"><mask id="b" width="56" height="56" x="0" y="0" maskUnits="userSpaceOnUse" style="mask-type:luminance"><path fill="#fff" d="M56 0H0v56h56V0Z"/></mask><g mask="url(#b)"><path fill="#FA8C16" fill-rule="evenodd" d="M27.408.131a1.4 1.4 0 0 1 1.184 0l21 9.8A1.4 1.4 0 0 1 50.4 11.2v26.25a1.4 1.4 0 0 1-1.992 1.269l-20.195-9.425-5.617 4.681a1.4 1.4 0 0 1-.896.325h-7.285l-6.652 4.324A1.4 1.4 0 0 1 5.6 37.45V11.2a1.4 1.4 0 0 1 .808-1.269l21-9.8ZM29.4 26.758l18.2 8.494v-23.16L29.4 3.598v23.16Zm-2.8-23.16v23.396L21.193 31.5H14a1.4 1.4 0 0 0-.763.226L8.4 34.87V12.092l18.2-8.494Z" clip-rule="evenodd"/><path fill="#FA8C16" d="M28 54.95 7 43.4l9.1-2.1 1.4-2.8 9.1-1.4 1.4-3.5 21 9.8-21 11.55Z"/><path fill="#FA8C16" fill-rule="evenodd" d="M27.485 32.297a1.4 1.4 0 0 1 1.107.034l21 9.8a1.4 1.4 0 0 1 .083 2.495l-21 11.55a1.4 1.4 0 0 1-1.35 0l-21-11.55a1.4 1.4 0 0 1 .36-2.59l8.458-1.953 1.105-2.21a1.4 1.4 0 0 1 1.04-.758l8.31-1.278L26.7 33.08a1.4 1.4 0 0 1 .785-.782Zm1.265 3.197-.85 2.125a1.4 1.4 0 0 1-1.087.864l-8.384 1.29-1.077 2.152a1.4 1.4 0 0 1-.937.738l-5.528 1.276L28 53.351l17.909-9.85-17.159-8.007Z" clip-rule="evenodd"/><path fill="#fff" fill-rule="evenodd" d="M34.407 38.408c1.38-.975 2.116-2.013 1.978-3.032L39.16 35c.367 2.717-1.644 4.64-3.138 5.695-.545.385-1.093.706-1.577.962l2.145 2.836a1.4 1.4 0 0 1 .153 1.435L34.9 49.889l4.131 1.145-.748 2.698-5.724-1.586a1.4 1.4 0 0 1-.895-1.94l2.185-4.696-1.993-2.635-3.767 1.832-2.783 3.085-2.079-1.875 2.966-3.288c.12-.133.265-.242.427-.32l5.046-2.455c.042-.02.086-.039.13-.055h.001l.006-.003.037-.014c.035-.014.09-.035.162-.065.143-.059.353-.149.605-.269a12.444 12.444 0 0 0 1.8-1.04Z" clip-rule="evenodd"/></g></g><defs><clipPath id="a"><path fill="#fff" d="M0 0h56v56H0z"/></clipPath></defs></svg>