<svg xmlns="http://www.w3.org/2000/svg" width="56" height="56" fill="none" viewBox="0 0 56 56"><path fill="#FA8C16" fill-rule="evenodd" d="M27.408 2.932a1.4 1.4 0 0 1 1.184 0l21 9.8a1.4 1.4 0 0 1 .808 1.269v26.25c0 .51-.278.98-.726 1.227l-21 11.55a1.4 1.4 0 0 1-1.35 0l-21-11.55A1.4 1.4 0 0 1 5.6 40.25V14a1.4 1.4 0 0 1 .808-1.269l21-9.8ZM8.4 14.892v23.16l18.2-8.493V6.4L8.4 14.892Zm21-8.493v23.16l18.2 8.494v-23.16L29.4 6.398Zm16.508 33.954L28 31.996l-17.91 8.357L28 50.203l17.908-9.85Z" clip-rule="evenodd"/><path fill="#FA8C16" d="M7.7 39.9 28 30.8l19.6 9.1L28 51.8 7.7 39.9Z"/><path fill="#FA8C16" fill-rule="evenodd" d="M27.427 29.523a1.4 1.4 0 0 1 1.162.008l19.6 9.1a1.4 1.4 0 0 1 .137 2.466l-19.6 11.9a1.4 1.4 0 0 1-1.434.011l-20.3-11.9a1.4 1.4 0 0 1 .135-2.485l20.3-9.1ZM10.752 40.067 27.987 50.17 44.63 40.065 27.99 32.34l-17.238 7.728Z" clip-rule="evenodd"/><path fill="#fff" fill-rule="evenodd" d="M30.357 34.723c1.247-.416 2.867-1.402 4.09-3.848l2.505 1.252c-1.577 3.154-3.806 4.618-5.71 5.252a8.85 8.85 0 0 1-1.408.345l.912 3.193a1.4 1.4 0 0 1-.532 1.523l-4.018 2.87 3.11 8.088-2.613 1.006-3.5-9.1a1.4 1.4 0 0 1 .493-1.642l4.096-2.926-.879-3.077-3.674-.525-3.886 1.295-.886-2.656 4.2-1.4a1.4 1.4 0 0 1 .64-.058l4.89.699h.012c.017.003.05.006.099.009.097.005.251.01.45.001.4-.017.968-.087 1.609-.301Z" clip-rule="evenodd"/></svg>