<svg xmlns="http://www.w3.org/2000/svg" width="56" height="56" fill="none" viewBox="0 0 56 56"><g clip-path="url(#a)"><mask id="b" width="56" height="56" x="0" y="0" maskUnits="userSpaceOnUse" style="mask-type:luminance"><path fill="#fff" d="M56 0H0v56h56V0Z"/></mask><g mask="url(#b)"><path fill="#FA8C16" fill-rule="evenodd" d="M27.409 2.932a1.4 1.4 0 0 1 1.184 0l21 9.8a1.4 1.4 0 0 1 .808 1.269v26.25c0 .51-.278.98-.726 1.227l-21 11.55a1.4 1.4 0 0 1-1.35 0l-21-11.55a1.4 1.4 0 0 1-.724-1.227V14a1.4 1.4 0 0 1 .808-1.269l21-9.8ZM8.4 14.892v23.16l18.2-8.493V6.4L8.4 14.892Zm21-8.493v23.16l18.2 8.494v-23.16L29.4 6.398Zm16.508 33.954-17.908-8.357-17.91 8.357 17.91 9.85 17.908-9.85Z" clip-rule="evenodd"/><path fill="#FA8C16" d="M7.7 39.9 28 30.8l19.6 9.1L28 51.8 7.7 39.9Z"/><path fill="#FA8C16" fill-rule="evenodd" d="M27.428 29.523a1.4 1.4 0 0 1 1.162.008l19.6 9.1a1.4 1.4 0 0 1 .137 2.466l-19.6 11.9a1.4 1.4 0 0 1-1.435.011l-20.3-11.9a1.4 1.4 0 0 1 .136-2.485l20.3-9.1ZM10.752 40.067 27.988 50.17 44.63 40.065l-16.64-7.726-17.239 7.728Z" clip-rule="evenodd"/><path fill="#fff" d="M2.8 16.8H14v16.8H2.8V16.8Z"/><path fill="#FA8C16" fill-rule="evenodd" d="M0 23.802c3.091 0 5.6-2.51 5.6-5.6h2.8c0 3.09 2.51 5.6 5.6 5.6v2.8c-3.09 0-5.6 2.509-5.6 5.6H5.6c0-3.091-2.509-5.6-5.6-5.6v-2.8Zm4.644 1.4A8.453 8.453 0 0 1 7 27.558a8.453 8.453 0 0 1 2.357-2.356A8.453 8.453 0 0 1 7 22.845a8.453 8.453 0 0 1-2.356 2.357Z" clip-rule="evenodd"/><path fill="#fff" fill-rule="evenodd" d="m9.161 43.556 27.3-14 1.278 2.491-27.3 14-1.278-2.491ZM17.526 49.174l28-15.4 1.35 2.454-28 15.4-1.35-2.454Z" clip-rule="evenodd"/></g></g><defs><clipPath id="a"><path fill="#fff" d="M0 0h56v56H0z"/></clipPath></defs></svg>