<svg xmlns="http://www.w3.org/2000/svg" width="56" height="56" fill="none" viewBox="0 0 56 56"><g clip-path="url(#a)"><path fill="#fff" d="M56 0H0v56h56V0Z"/><path fill="#FA8C16" d="M5.6 49h44.8v5.6H5.6V49Z"/><path fill="#FA8C16" fill-rule="evenodd" d="M5.6 5.6a4.2 4.2 0 0 1 4.2-4.2H35a4.2 4.2 0 0 1 4.2 4.2V14h-2.8V5.6A1.4 1.4 0 0 0 35 4.2H9.8a1.4 1.4 0 0 0-1.4 1.4v47.6H5.6V5.6Z" clip-rule="evenodd"/><path fill="#FA8C16" fill-rule="evenodd" d="M14 2.8v50.4h-2.8V2.8H14ZM16.8 36.4V25.2h2.8v11.2h-2.8Z" clip-rule="evenodd"/><path fill="#FA8C16" fill-rule="evenodd" d="M13.3 29.4h4.9v2.8h-4.9v-2.8ZM39.084 23.018v4.2h-2.1v-4.2h2.1ZM43.519 19.692v4.2h-2.1v-4.2h2.1ZM34.65 19.692v4.2h-2.1v-4.2h2.1ZM28.35 15.461a3.15 3.15 0 0 1 3.15-3.15h12.6a3.15 3.15 0 1 1 0 6.3H31.5a3.15 3.15 0 0 1-3.15-3.15Zm3.15-1.05a1.05 1.05 0 1 0 0 2.1h12.6a1.05 1.05 0 1 0 0-2.1H31.5Z" clip-rule="evenodd"/></g><defs><clipPath id="a"><path fill="#fff" d="M0 0h56v56H0z"/></clipPath></defs></svg>