<svg xmlns="http://www.w3.org/2000/svg" width="56" height="56" fill="none" viewBox="0 0 56 56"><path stroke="#FA8C16" stroke-width="2.8" d="M54.6 28C54.6 13.31 42.69 1.4 28 1.4 13.31 1.4 1.4 13.31 1.4 28c0 14.69 11.91 26.6 26.6 26.6 14.69 0 26.6-11.91 26.6-26.6Z"/><path fill="#FA8C16" d="M27.992 36.269c-1.284 0-2.434-.314-3.45-.941-1.015-.642-1.814-1.568-2.396-2.778-.583-1.21-.874-2.673-.874-4.39 0-1.717.291-3.18.874-4.39.582-1.21 1.381-2.128 2.396-2.756 1.016-.642 2.166-.963 3.45-.963 1.3 0 2.45.321 3.45.963 1.015.628 1.814 1.546 2.396 2.756.583 1.21.874 2.673.874 4.39 0 1.717-.291 3.18-.874 4.39-.582 1.21-1.38 2.136-2.396 2.778-1 .627-2.15.94-3.45.94Zm0-3.069c.612 0 1.142-.172 1.59-.515.463-.344.822-.889 1.076-1.635.268-.747.403-1.71.403-2.89 0-1.18-.135-2.143-.403-2.89-.254-.746-.613-1.291-1.076-1.635-.448-.343-.978-.515-1.59-.515a2.6 2.6 0 0 0-1.59.515c-.448.344-.807.889-1.076 1.635-.253.747-.38 1.71-.38 2.89 0 1.18.127 2.143.38 2.89.27.746.628 1.291 1.076 1.635a2.6 2.6 0 0 0 1.59.515Z"/></svg>