<svg xmlns="http://www.w3.org/2000/svg" width="56" height="56" fill="none" viewBox="0 0 56 56"><path fill="#fff" d="M11.2 18.201a4.2 4.2 0 0 1 4.2-4.2h25.2a4.2 4.2 0 0 1 4.2 4.2v30.8a4.2 4.2 0 0 1-4.2 4.2H15.4a4.2 4.2 0 0 1-4.2-4.2v-30.8Z"/><path fill="#FA8C16" fill-rule="evenodd" d="M9.8 18.2a5.6 5.6 0 0 1 5.6-5.6h25.2a5.6 5.6 0 0 1 5.6 5.6V49a5.6 5.6 0 0 1-5.6 5.6H15.4A5.6 5.6 0 0 1 9.8 49V18.2Zm5.6-2.8a2.8 2.8 0 0 0-2.8 2.8V49a2.8 2.8 0 0 0 2.8 2.8h25.2a2.8 2.8 0 0 0 2.8-2.8V18.2a2.8 2.8 0 0 0-2.8-2.8H15.4Z" clip-rule="evenodd"/><path fill="#FA8C16" d="M19.6 1.401h16.8v12.6H19.6v-12.6Z"/><path fill="#FA8C16" fill-rule="evenodd" d="M18.2 1.401a1.4 1.4 0 0 1 1.4-1.4h16.8a1.4 1.4 0 0 1 1.4 1.4v12.6a1.4 1.4 0 0 1-1.4 1.4H19.6a1.4 1.4 0 0 1-1.4-1.4v-12.6Zm2.8 1.4v9.8h14v-9.8H21Z" clip-rule="evenodd"/><path fill="#fff" d="M22.4 37.8h11.2v7H22.4v-7Z"/><path fill="#FA8C16" fill-rule="evenodd" d="M21 37.8a1.4 1.4 0 0 1 1.4-1.4h11.2a1.4 1.4 0 0 1 1.4 1.4v7a1.4 1.4 0 0 1-1.4 1.4H22.4a1.4 1.4 0 0 1-1.4-1.4v-7Zm2.8 1.4v4.2h8.4v-4.2h-8.4ZM38.5 21h-4.9v-2.8h6.3a1.4 1.4 0 0 1 1.4 1.4v7h-2.8V21Z" clip-rule="evenodd"/></svg>