<svg xmlns="http://www.w3.org/2000/svg" width="56" height="56" fill="none" viewBox="0 0 56 56"><g clip-path="url(#a)"><mask id="b" width="56" height="56" x="0" y="0" maskUnits="userSpaceOnUse" style="mask-type:luminance"><path fill="#fff" d="M56 0H0v56h56V0Z"/></mask><g mask="url(#b)"><path fill="#fff" d="M9.004 19.613C8.027 16.877 10.055 14 12.96 14h24.68a4.2 4.2 0 0 1 3.956 2.787l11 30.8c.977 2.736-1.05 5.613-3.955 5.613H23.96a4.2 4.2 0 0 1-3.956-2.787l-11-30.8Z"/><path fill="#FA8C16" fill-rule="evenodd" d="M7.685 20.084c-1.302-3.647 1.402-7.483 5.274-7.483h24.68a5.6 5.6 0 0 1 5.274 3.716l11 30.8c1.303 3.647-1.4 7.484-5.273 7.484H23.96a5.6 5.6 0 0 1-5.274-3.717l-11-30.8Zm5.274-4.683a2.8 2.8 0 0 0-2.637 3.741l11 30.8a2.8 2.8 0 0 0 2.637 1.859h24.68a2.8 2.8 0 0 0 2.637-3.742l-11-30.8A2.8 2.8 0 0 0 37.64 15.4H12.96Z" clip-rule="evenodd"/><path fill="#FA8C16" fill-rule="evenodd" d="m31.594 53.223-13.3-34.3 2.61-1.012 13.3 34.3-2.61 1.012ZM44.194 53.223l-13.3-34.3 2.61-1.012 13.301 34.3-2.61 1.012Z" clip-rule="evenodd"/><path fill="#FA8C16" d="M5.6 7a4.2 4.2 0 0 1 4.2-4.2H42A4.2 4.2 0 0 1 46.2 7v8.4a4.2 4.2 0 0 1-4.2 4.2H9.8a4.2 4.2 0 0 1-4.2-4.2V7Z"/><path fill="#FA8C16" fill-rule="evenodd" d="M4.2 7a5.6 5.6 0 0 1 5.6-5.6H42A5.6 5.6 0 0 1 47.6 7v8.4A5.6 5.6 0 0 1 42 21H9.8a5.6 5.6 0 0 1-5.6-5.6V7Zm5.6-2.8A2.8 2.8 0 0 0 7 7v8.4a2.8 2.8 0 0 0 2.8 2.8H42a2.8 2.8 0 0 0 2.8-2.8V7A2.8 2.8 0 0 0 42 4.2H9.8Z" clip-rule="evenodd"/><path fill="#FA8C16" fill-rule="evenodd" d="M6.3 54.6V18.9h2.8v35.7H6.3Z" clip-rule="evenodd"/><path fill="#fff" d="M15.4 11.2c0 4.64-3.134 8.4-7 8.4s-7-3.76-7-8.4c0-4.638 3.134-8.4 7-8.4s7 3.762 7 8.4Z"/><path fill="#FA8C16" fill-rule="evenodd" d="M8.4 4.2c-2.865 0-5.6 2.885-5.6 7 0 4.116 2.735 7 5.6 7 2.865 0 5.6-2.884 5.6-7 0-4.115-2.735-7-5.6-7Zm-8.4 7c0-5.162 3.533-9.8 8.4-9.8 4.867 0 8.4 4.638 8.4 9.8 0 5.163-3.533 9.8-8.4 9.8C3.533 21 0 16.363 0 11.2Z" clip-rule="evenodd"/><path fill="#FA8C16" d="M49 11.2c0 4.64-3.134 8.4-7 8.4s-7-3.76-7-8.4c0-4.638 3.134-8.4 7-8.4s7 3.762 7 8.4Z"/><path fill="#FA8C16" fill-rule="evenodd" d="M42 4.2c-2.864 0-5.6 2.885-5.6 7 0 4.116 2.736 7 5.6 7 2.865 0 5.6-2.884 5.6-7 0-4.115-2.735-7-5.6-7Zm-8.4 7c0-5.162 3.533-9.8 8.4-9.8 4.867 0 8.4 4.638 8.4 9.8 0 5.163-3.532 9.8-8.4 9.8-4.867 0-8.4-4.637-8.4-9.8Z" clip-rule="evenodd"/><path fill="#FA8C16" d="M4.2 50.4h7v2.8h-7v-2.8Z"/><path fill="#FA8C16" fill-rule="evenodd" d="M2.8 50.4A1.4 1.4 0 0 1 4.2 49h7a1.4 1.4 0 0 1 1.4 1.4v2.8a1.4 1.4 0 0 1-1.4 1.4h-7a1.4 1.4 0 0 1-1.4-1.4v-2.8Z" clip-rule="evenodd"/></g></g><defs><clipPath id="a"><path fill="#fff" d="M0 0h56v56H0z"/></clipPath></defs></svg>