<svg xmlns="http://www.w3.org/2000/svg" width="56" height="56" fill="none" viewBox="0 0 56 56"><path fill="#fff" d="M11.2 8.4a4.2 4.2 0 0 1 4.2-4.2h25.2a4.2 4.2 0 0 1 4.2 4.2V42a4.2 4.2 0 0 1-4.2 4.2H15.4a4.2 4.2 0 0 1-4.2-4.2V8.4Z"/><path fill="#FA8C16" fill-rule="evenodd" d="M9.8 8.4a5.6 5.6 0 0 1 5.6-5.6h25.2a5.6 5.6 0 0 1 5.6 5.6V42a5.6 5.6 0 0 1-5.6 5.6H15.4A5.6 5.6 0 0 1 9.8 42V8.4Zm5.6-2.8a2.8 2.8 0 0 0-2.8 2.8V42a2.8 2.8 0 0 0 2.8 2.8h25.2a2.8 2.8 0 0 0 2.8-2.8V8.4a2.8 2.8 0 0 0-2.8-2.8H15.4Z" clip-rule="evenodd"/><path fill="#FA8C16" d="M15.4 46.2h25.2v5.6H15.4v-5.6Z"/><path fill="#FA8C16" fill-rule="evenodd" d="M14 46.2a1.4 1.4 0 0 1 1.4-1.4h25.2a1.4 1.4 0 0 1 1.4 1.4v5.6a1.4 1.4 0 0 1-1.4 1.4H15.4a1.4 1.4 0 0 1-1.4-1.4v-5.6Zm2.8 1.4v2.8h22.4v-2.8H16.8ZM28 12.6a5.6 5.6 0 1 0 0 11.2 5.6 5.6 0 0 0 0-11.2Zm-8.4 5.6a8.4 8.4 0 1 1 16.8 0 8.4 8.4 0 0 1-16.8 0Z" clip-rule="evenodd"/><path fill="#FA8C16" fill-rule="evenodd" d="m26.632 23.502.032.017c.284.147.758.28 1.336.28.577 0 1.052-.133 1.336-.28l.032-.017a1.4 1.4 0 0 0-2.736 0ZM23.8 23.8a4.2 4.2 0 1 1 8.4 0c0 .608-.273 1.095-.56 1.429a3.403 3.403 0 0 1-1.016.776c-.73.378-1.655.595-2.624.595-.97 0-1.895-.217-2.624-.595a3.403 3.403 0 0 1-1.016-.776c-.288-.334-.56-.821-.56-1.43Z" clip-rule="evenodd"/><path fill="#FA8C16" fill-rule="evenodd" d="M26.6 22.4v-5.6h2.8v5.6h-2.8ZM16.8 40.6h4.9v2.8h-6.3A1.4 1.4 0 0 1 14 42v-7h2.8v5.6Z" clip-rule="evenodd"/></svg>