<svg xmlns="http://www.w3.org/2000/svg" width="56" height="56" fill="none"><path fill="#FA8C16" fill-rule="evenodd" d="M49.7 20 28.3 9 6.8 20v24h43V20ZM5 18.1c-.4.2-.6.7-.6 1.1v26c0 .7.5 1.3 1.2 1.3H51c.7 0 1.3-.6 1.3-1.3v-26c0-.4-.3-.9-.7-1l-22.8-12a1 1 0 0 0-1.1 0L4.9 18.1Z" clip-rule="evenodd"/><path fill="#FA8C16" fill-rule="evenodd" d="M18.2 26.2V44H27V26.2h-8.8Zm-1.3-2.5c-.7 0-1.3.6-1.3 1.3v20.2c0 .7.6 1.3 1.3 1.3h11.4c.7 0 1.2-.6 1.2-1.3V25c0-.7-.5-1.3-1.2-1.3H16.9Zm18.9 2.5v5.1h7.6v-5h-7.6Zm-1.2-2.5c-.7 0-1.3.6-1.3 1.3v7.6c0 .7.6 1.2 1.3 1.2h10c.8 0 1.3-.5 1.3-1.2V25c0-.7-.5-1.3-1.2-1.3H34.6Z" clip-rule="evenodd"/><path fill="#fff" d="M39.6 46.4a5 5 0 1 1-10 0 5 5 0 0 1 10 0Z"/><path fill="#FA8C16" fill-rule="evenodd" d="M34.6 49a2.5 2.5 0 1 0 0-5 2.5 2.5 0 0 0 0 5Zm0 2.5a5 5 0 1 0 0-10.1 5 5 0 0 0 0 10.1Z" clip-rule="evenodd"/><path fill="#fff" d="M51 46.4a5 5 0 1 1-10.1 0 5 5 0 0 1 10.1 0Z"/><path fill="#FA8C16" fill-rule="evenodd" d="M46 49a2.5 2.5 0 1 0 0-5 2.5 2.5 0 0 0 0 5Zm0 2.5a5 5 0 1 0 0-10.1 5 5 0 0 0 0 10.1Z" clip-rule="evenodd"/><path fill="#fff" d="M15.6 46.4a5 5 0 1 1-10 0 5 5 0 0 1 10 0Z"/><path fill="#FA8C16" fill-rule="evenodd" d="M10.6 49a2.5 2.5 0 1 0 0-5 2.5 2.5 0 0 0 0 5Zm0 2.5a5 5 0 1 0 0-10.1 5 5 0 0 0 0 10.1Z" clip-rule="evenodd"/><path fill="#FA8C16" d="M8 6c0-.7.6-1.2 1.3-1.2h3.8c.7 0 1.3.5 1.3 1.2v6.6L8 15V6Z"/><path fill="#FA8C16" d="M2 22.5v-5.9L27.3 4.8C35.7 9 52 15.3 54 16.6v5.9L27.3 10.7 2 22.5Z"/></svg>