<svg xmlns="http://www.w3.org/2000/svg" width="56" height="56" fill="none"><g clip-path="url(#a)"><path fill="#FA8C16" d="m28 0 6.4 10.4L46 6.6l-1.8 12 11.4 4.5-9.2 8.1L52.2 42l-12.2.3-2.4 12-9.6-7.6-9.6 7.6-2.4-12L3.8 42l5.8-10.8-9.2-8 11.4-4.6-1.8-12 11.6 3.8L28 0Z"/><path fill="#fff" d="M20.9 24v9h-1.7L15 27.5V33h-2v-9h1.6l4.3 5.5V24h2Zm8.7 7.3V33h-6.7v-9h6.5v1.7h-4.5v2h4v1.5h-4v2.1h4.7ZM44 24l-2.8 9H39l-2-6-1.9 6H33l-2.8-9h2l2 6.3 2-6.3H38l2 6.4 2-6.4h2Z"/></g><defs><clipPath id="a"><path fill="#fff" d="M0 0h56v56H0z"/></clipPath></defs></svg>