<svg width="57" height="58" viewBox="0 0 57 58" fill="none" xmlns="http://www.w3.org/2000/svg">
<path d="M25.0339 39.0411C23.3229 37.177 22.4022 34.7215 22.4657 32.1919C22.4454 30.1801 23.0731 28.2152 24.2559 26.5877C25.2813 25.087 26.6065 23.8149 28.148 22.8519C29.5541 22.0178 30.86 21.0254 32.0401 19.8939C32.5566 19.4764 32.982 18.9574 33.2899 18.3689C33.5978 17.7805 33.7817 17.1351 33.8303 16.4727C33.8436 15.8586 33.7132 15.2499 33.4495 14.6952C33.1858 14.1404 32.7961 13.6549 32.3115 13.2775C31.2995 12.4475 29.7818 12.0325 27.7583 12.0325C24.0742 12.0325 20.883 13.641 18.1847 16.8579L11.8799 9.77518C16.1867 4.74195 21.869 2.22534 28.9267 2.22534C33.9084 2.22534 37.852 3.35386 40.7576 5.61091C42.147 6.63664 43.2687 7.98229 44.0274 9.53377C44.7861 11.0852 45.1595 12.7968 45.116 14.5233C45.1463 16.4722 44.6916 18.398 43.7929 20.1275C42.998 21.6793 41.8996 23.0557 40.5627 24.175C39.2914 25.2128 38.0072 26.1727 36.7101 27.0548C35.4947 27.8632 34.3939 28.8318 33.4376 29.9346C32.6027 30.8513 32.1321 32.0417 32.1144 33.2815C32.0917 33.8966 32.2055 34.5092 32.4478 35.075C32.6901 35.6409 33.0548 36.146 33.5157 36.554L25.0339 39.0411ZM33.2063 53.9073C32.6286 54.4986 31.9385 54.9685 31.1766 55.2893C30.4148 55.6101 29.5964 55.7753 28.7698 55.7753C27.9431 55.7753 27.1248 55.6101 26.3629 55.2893C25.601 54.9685 24.911 54.4986 24.3333 53.9073C23.742 53.3296 23.2721 52.6395 22.9513 51.8777C22.6305 51.1158 22.4652 50.2974 22.4652 49.4708C22.4652 48.6441 22.6305 47.8258 22.9513 47.0639C23.2721 46.302 23.742 45.612 24.3333 45.0343C24.911 44.443 25.601 43.9731 26.3629 43.6523C27.1248 43.3315 27.9431 43.1662 28.7698 43.1662C29.5964 43.1662 30.4148 43.3315 31.1766 43.6523C31.9385 43.9731 32.6286 44.443 33.2063 45.0343C33.7976 45.612 34.2675 46.302 34.5883 47.0639C34.9091 47.8258 35.0743 48.6441 35.0743 49.4708C35.0743 50.2974 34.9091 51.1158 34.5883 51.8777C34.2675 52.6395 33.7976 53.3296 33.2063 53.9073V53.9073Z" stroke="#FA8C16" stroke-width="2.8" stroke-linejoin="round"/>
</svg>
