<svg xmlns="http://www.w3.org/2000/svg" width="56" height="56" fill="none" viewBox="0 0 56 56"><path fill="#fff" d="M38.5 2.8h11.2v23.8a8.4 8.4 0 0 1-8.4 8.4H18.2v18.2H5.6V29.4A8.4 8.4 0 0 1 14 21h24.5V2.8Z"/><path fill="#FA8C16" fill-rule="evenodd" d="M37.1 2.8a1.4 1.4 0 0 1 1.4-1.4h11.2a1.4 1.4 0 0 1 1.4 1.4v23.8c0 5.412-4.388 9.8-9.8 9.8H19.6v16.8a1.4 1.4 0 0 1-1.4 1.4H5.6a1.4 1.4 0 0 1-1.4-1.4V29.4c0-5.413 4.387-9.8 9.8-9.8h23.1V2.8Zm2.8 1.4V21a1.4 1.4 0 0 1-1.4 1.4H14a7 7 0 0 0-7 7v22.4h9.8V35a1.4 1.4 0 0 1 1.4-1.4h23.1a7 7 0 0 0 7-7V4.2h-8.4Z" clip-rule="evenodd"/><path fill="#FA8C16" d="M37.8 14a1.4 1.4 0 0 1-1.4-1.4V9.8a1.4 1.4 0 0 1 1.4-1.4h12.6a1.4 1.4 0 0 1 1.4 1.4v2.8a1.4 1.4 0 0 1-1.4 1.4H37.8Z"/><path fill="#FA8C16" fill-rule="evenodd" d="M37.8 15.4a2.8 2.8 0 0 1-2.8-2.8V9.8A2.8 2.8 0 0 1 37.8 7h12.6a2.8 2.8 0 0 1 2.8 2.8v2.8a2.8 2.8 0 0 1-2.8 2.8H37.8Zm0-5.6v2.8h12.6V9.8H37.8ZM14.216 29.235a4.178 4.178 0 0 0-3.933 0l-3.86 2.059-1.318-2.47 3.86-2.06a6.978 6.978 0 0 1 6.568 0 4.178 4.178 0 0 0 3.933 0 6.978 6.978 0 0 1 6.567 0 4.178 4.178 0 0 0 3.933 0 6.978 6.978 0 0 1 6.567 0 4.178 4.178 0 0 0 3.933 0 6.978 6.978 0 0 1 6.567 0l3.86 2.06-1.317 2.47-3.86-2.06a4.178 4.178 0 0 0-3.933 0 6.978 6.978 0 0 1-6.567 0 4.178 4.178 0 0 0-3.933 0 6.978 6.978 0 0 1-6.567 0 4.178 4.178 0 0 0-3.933 0 6.978 6.978 0 0 1-6.567 0Z" clip-rule="evenodd"/><path fill="#fff" d="M15.4 39.2a1.4 1.4 0 1 1-2.8 0 1.4 1.4 0 0 1 2.8 0Z"/><path fill="#FA8C16" fill-rule="evenodd" d="M14 40.6a1.4 1.4 0 1 0 0-2.8 1.4 1.4 0 0 0 0 2.8Z" clip-rule="evenodd"/><path fill="#fff" d="M15.4 49a1.4 1.4 0 1 1-2.8 0 1.4 1.4 0 0 1 2.8 0Z"/><path fill="#FA8C16" fill-rule="evenodd" d="M14 50.4a1.4 1.4 0 1 0 0-2.8 1.4 1.4 0 0 0 0 2.8Z" clip-rule="evenodd"/><path fill="#fff" d="M11.2 42a1.4 1.4 0 1 1-2.8 0 1.4 1.4 0 0 1 2.8 0Z"/><path fill="#FA8C16" fill-rule="evenodd" d="M9.8 43.4a1.4 1.4 0 1 0 0-2.8 1.4 1.4 0 0 0 0 2.8Z" clip-rule="evenodd"/></svg>