<svg xmlns="http://www.w3.org/2000/svg" width="56" height="56" fill="none" viewBox="0 0 56 56"><path fill="#fff" d="M38.5 2.8h11.2v23.8a8.4 8.4 0 0 1-8.4 8.4H18.2v18.2H5.6V29.4A8.4 8.4 0 0 1 14 21h24.5V2.8Z"/><path fill="#FA8C16" fill-rule="evenodd" d="M37.1 2.8a1.4 1.4 0 0 1 1.4-1.4h11.2a1.4 1.4 0 0 1 1.4 1.4v23.8c0 5.412-4.388 9.8-9.8 9.8H19.6v16.8a1.4 1.4 0 0 1-1.4 1.4H5.6a1.4 1.4 0 0 1-1.4-1.4V29.4c0-5.413 4.388-9.8 9.8-9.8h23.1V2.8Zm2.8 1.4V21a1.4 1.4 0 0 1-1.4 1.4H14a7 7 0 0 0-7 7v22.4h9.8V35a1.4 1.4 0 0 1 1.4-1.4h23.1a7 7 0 0 0 7-7V4.2h-8.4Z" clip-rule="evenodd"/><path fill="#FA8C16" d="M37.8 14a1.4 1.4 0 0 1-1.4-1.4V9.8a1.4 1.4 0 0 1 1.4-1.4h12.6a1.4 1.4 0 0 1 1.4 1.4v2.8a1.4 1.4 0 0 1-1.4 1.4H37.8Z"/><path fill="#FA8C16" fill-rule="evenodd" d="M37.8 15.4a2.8 2.8 0 0 1-2.8-2.8V9.8A2.8 2.8 0 0 1 37.8 7h12.6a2.8 2.8 0 0 1 2.8 2.8v2.8a2.8 2.8 0 0 1-2.8 2.8H37.8Zm0-5.6v2.8h12.6V9.8H37.8Z" clip-rule="evenodd"/><path fill="#FA8C16" d="M5.6 47.6a1.4 1.4 0 0 1-1.4-1.4v-2.8A1.4 1.4 0 0 1 5.6 42h12.6a1.4 1.4 0 0 1 1.4 1.4v2.8a1.4 1.4 0 0 1-1.4 1.4H5.6Z"/><path fill="#FA8C16" fill-rule="evenodd" d="M5.6 49a2.8 2.8 0 0 1-2.8-2.8v-2.8a2.8 2.8 0 0 1 2.8-2.8h12.6a2.8 2.8 0 0 1 2.8 2.8v2.8a2.8 2.8 0 0 1-2.8 2.8H5.6Zm0-5.6v2.8h12.6v-2.8H5.6Z" clip-rule="evenodd"/><path fill="#fff" d="M37.8 22.4h16.8v18.2H37.8V22.4Z"/><path fill="#FA8C16" fill-rule="evenodd" d="M39.2 29.4c3.091 0 5.6-2.508 5.6-5.6h2.8c0 4.638-3.763 8.4-8.4 8.4v-2.8Z" clip-rule="evenodd"/><path fill="#FA8C16" fill-rule="evenodd" d="M47.6 23.8c0 3.092 2.51 5.6 5.6 5.6v2.8a8.403 8.403 0 0 1-8.4-8.4h2.8ZM39.2 29.4c4.637 0 8.4 3.763 8.4 8.4h-2.8c0-3.09-2.509-5.6-5.6-5.6v-2.8Z" clip-rule="evenodd"/><path fill="#FA8C16" fill-rule="evenodd" d="M44.8 37.8c0-4.637 3.763-8.4 8.4-8.4v2.8c-3.09 0-5.6 2.51-5.6 5.6h-2.8Z" clip-rule="evenodd"/></svg>