<svg xmlns="http://www.w3.org/2000/svg" width="56" height="56" fill="none" viewBox="0 0 56 56"><g clip-path="url(#a)"><mask id="b" width="56" height="56" x="0" y="0" maskUnits="userSpaceOnUse" style="mask-type:luminance"><path fill="#fff" d="M56 0H0v56h56V0Z"/></mask><g fill="#FA8C16" mask="url(#b)"><path fill-rule="evenodd" d="M14 22.4a7 7 0 0 0-7 7v22.4h9.8V35a1.4 1.4 0 0 1 1.4-1.4h6.089l-2.343-3.406a1.4 1.4 0 0 1 .164-1.783l3.389-3.389-1.748-2.621H14Zm-9.8 7c0-5.412 4.388-9.8 9.8-9.8h10.5a1.4 1.4 0 0 1 1.165.624l2.8 4.2a1.4 1.4 0 0 1-.175 1.767l-3.376 3.376 3.19 4.64a1.4 1.4 0 0 1-1.154 2.194H19.6v16.8a1.4 1.4 0 0 1-1.4 1.4H5.6a1.4 1.4 0 0 1-1.4-1.4V29.4ZM39.9 2.8a1.4 1.4 0 0 1 1.4-1.4h11.2a1.4 1.4 0 0 1 1.4 1.4v23.8c0 5.413-4.387 9.8-9.8 9.8h-7.35a1.4 1.4 0 0 1-1.1-.535l-3.85-4.9a1.4 1.4 0 0 1 .19-1.928l3.836-3.288-3.289-3.837A1.4 1.4 0 0 1 33.6 19.6h6.3V2.8Zm2.8 1.4V21a1.4 1.4 0 0 1-1.4 1.4h-4.656l2.22 2.59a1.4 1.4 0 0 1-.153 1.973L34.83 30.29l2.6 3.31h6.67a7 7 0 0 0 7-7V4.2h-8.4Z" clip-rule="evenodd"/><path d="M40.6 14a1.4 1.4 0 0 1-1.4-1.4V9.8a1.4 1.4 0 0 1 1.4-1.4h12.6a1.4 1.4 0 0 1 1.4 1.4v2.8a1.4 1.4 0 0 1-1.4 1.4H40.6Z"/><path fill-rule="evenodd" d="M40.6 15.4a2.8 2.8 0 0 1-2.8-2.8V9.8A2.8 2.8 0 0 1 40.6 7h12.6A2.8 2.8 0 0 1 56 9.8v2.8a2.8 2.8 0 0 1-2.8 2.8H40.6Zm0-5.6v2.8h12.6V9.8H40.6Z" clip-rule="evenodd"/><path d="M5.6 47.6a1.4 1.4 0 0 1-1.4-1.4v-2.8A1.4 1.4 0 0 1 5.6 42h12.6a1.4 1.4 0 0 1 1.4 1.4v2.8a1.4 1.4 0 0 1-1.4 1.4H5.6Z"/><path fill-rule="evenodd" d="M5.6 49a2.8 2.8 0 0 1-2.8-2.8v-2.8a2.8 2.8 0 0 1 2.8-2.8h12.6a2.8 2.8 0 0 1 2.8 2.8v2.8a2.8 2.8 0 0 1-2.8 2.8H5.6Zm0-5.6v2.8h12.6v-2.8H5.6Z" clip-rule="evenodd"/></g></g><defs><clipPath id="a"><path fill="#fff" d="M0 0h56v56H0z"/></clipPath></defs></svg>