<svg width="56" height="57" viewBox="0 0 56 57" fill="none" xmlns="http://www.w3.org/2000/svg">
<path d="M24.3769 39.291C22.5876 37.3416 21.6247 34.7737 21.6912 32.1285C21.67 30.0246 22.3264 27.9698 23.5633 26.2679C24.6356 24.6985 26.0214 23.3683 27.6334 22.3611C29.1039 21.4889 30.4695 20.4511 31.7035 19.2679C32.2437 18.8313 32.6886 18.2885 33.0106 17.6731C33.3326 17.0577 33.5249 16.3828 33.5756 15.6901C33.5895 15.0479 33.4532 14.4114 33.1774 13.8313C32.9017 13.2512 32.4942 12.7435 31.9874 12.3488C30.9291 11.4808 29.3419 11.0468 27.2259 11.0468C23.3733 11.0468 20.0361 12.7289 17.2143 16.093L10.6211 8.68624C15.1249 3.42276 21.0672 0.791016 28.4478 0.791016C33.6573 0.791016 37.7814 1.97116 40.8199 4.33146C42.2729 5.40412 43.4458 6.81133 44.2393 8.43378C45.0327 10.0562 45.4232 11.8461 45.3776 13.6516C45.4093 15.6896 44.9338 17.7035 43.994 19.5121C43.1628 21.135 42.0141 22.5743 40.6161 23.7448C39.2866 24.8301 37.9436 25.8339 36.5872 26.7563C35.3162 27.6017 34.1651 28.6147 33.165 29.7679C32.2919 30.7265 31.7997 31.9714 31.7813 33.2679C31.7575 33.9112 31.8766 34.5517 32.1299 35.1435C32.3833 35.7352 32.7647 36.2634 33.2466 36.6901L24.3769 39.291ZM32.9231 54.8372C32.319 55.4556 31.5974 55.947 30.8006 56.2825C30.0039 56.6179 29.1481 56.7908 28.2836 56.7908C27.4192 56.7908 26.5634 56.6179 25.7667 56.2825C24.9699 55.947 24.2483 55.4556 23.6442 54.8372C23.0258 54.2331 22.5345 53.5115 22.199 52.7148C21.8635 51.918 21.6907 51.0623 21.6907 50.1978C21.6907 49.3333 21.8635 48.4775 22.199 47.6808C22.5345 46.8841 23.0258 46.1624 23.6442 45.5583C24.2483 44.94 24.9699 44.4486 25.7667 44.1131C26.5634 43.7776 27.4192 43.6048 28.2836 43.6048C29.1481 43.6048 30.0039 43.7776 30.8006 44.1131C31.5974 44.4486 32.319 44.94 32.9231 45.5583C33.5415 46.1624 34.0328 46.8841 34.3683 47.6808C34.7038 48.4775 34.8766 49.3333 34.8766 50.1978C34.8766 51.0623 34.7038 51.918 34.3683 52.7148C34.0328 53.5115 33.5415 54.2331 32.9231 54.8372Z" fill="#FA8C16"/>
</svg>
