<svg xmlns="http://www.w3.org/2000/svg" width="56" height="57" fill="none"><path fill="#FA8C16" fill-rule="evenodd" d="M31.05 46.94a20.8 20.8 0 1 0 0-41.59 20.8 20.8 0 0 0 0 41.6Zm0 3.36a24.15 24.15 0 1 0 0-48.3 24.15 24.15 0 0 0 0 48.3Z" clip-rule="evenodd"/><path fill="#FA8C16" fill-rule="evenodd" d="M16.17 41.1c.64.66.6 1.73-.06 2.36L4.83 54.18a1.68 1.68 0 1 1-2.3-2.44l11.27-10.7a1.68 1.68 0 0 1 2.37.05Z" clip-rule="evenodd"/><path fill="#FA8C16" d="M36.42 18.1a5.37 5.37 0 1 1-10.74 0 5.37 5.37 0 0 1 10.74 0Z"/><path fill="#FA8C16" fill-rule="evenodd" d="M31.05 20.11a2.01 2.01 0 1 0 0-4.02 2.01 2.01 0 0 0 0 4.02Zm0 3.36a5.37 5.37 0 1 0 0-10.74 5.37 5.37 0 0 0 0 10.74Z" clip-rule="evenodd"/><path fill="#FA8C16" d="M41.78 36.88H20.32c0-6.67 4.8-12.07 10.73-12.07 5.93 0 10.73 5.4 10.73 12.07Z"/><path fill="#FA8C16" fill-rule="evenodd" d="M31.05 26.15c-4.66 0-8.73 3.98-9.32 9.39h18.64c-.58-5.41-4.65-9.4-9.32-9.4Zm10.67 9.39c-.6-6.04-5.14-10.73-10.67-10.73-5.52 0-10.07 4.7-10.67 10.73-.04.44-.06.89-.06 1.34h21.46c0-.45-.02-.9-.06-1.34Z" clip-rule="evenodd"/></svg>