<svg xmlns="http://www.w3.org/2000/svg" width="56" height="56" fill="none" viewBox="0 0 56 56"><path stroke="#FA8C16" stroke-width="2.8" d="M54.6 28C54.6 13.31 42.69 1.4 28 1.4 13.31 1.4 1.4 13.31 1.4 28c0 14.69 11.91 26.6 26.6 26.6 14.69 0 26.6-11.91 26.6-26.6Z"/><path fill="#FA8C16" d="M22.133 36v-2.352l6.048-5.712c.478-.433.829-.821 1.053-1.165.224-.343.373-.657.448-.94a2.62 2.62 0 0 0 .134-.785c0-.627-.216-1.105-.65-1.433-.418-.344-1.037-.515-1.859-.515-.657 0-1.269.127-1.836.38a3.57 3.57 0 0 0-1.412 1.188l-2.643-1.703c.598-.896 1.434-1.605 2.509-2.128 1.075-.523 2.315-.784 3.718-.784 1.165 0 2.18.194 3.047.583.88.373 1.56.903 2.038 1.59.493.687.74 1.508.74 2.464a5.93 5.93 0 0 1-.202 1.523c-.12.493-.374 1.016-.762 1.568-.373.553-.926 1.172-1.657 1.86l-5.018 4.726-.694-1.322h8.848V36h-11.85Z"/></svg>