<svg xmlns="http://www.w3.org/2000/svg" width="56" height="56" fill="none" viewBox="0 0 56 56"><g clip-path="url(#a)"><path fill="#fff" d="M56 0H0v56h56V0Z"/><path fill="#FA8C16" fill-rule="evenodd" d="M19.236 24.3c-.167-.15-.33-.185-.527-.117a7.004 7.004 0 0 0 0 13.234c.197.068.36.034.527-.118.196-.176.364-.503.364-.9V25.2c0-.397-.168-.723-.364-.9Zm1.875-2.08c.814.734 1.29 1.83 1.29 2.98V36.4c0 1.15-.476 2.246-1.29 2.98-.841.759-2.054 1.121-3.318.684C13.958 38.735 11.2 35.09 11.2 30.8c0-4.291 2.758-7.935 6.593-9.263 1.263-.437 2.476-.075 3.318.684Z" clip-rule="evenodd"/><path fill="#FA8C16" fill-rule="evenodd" d="M5.6 5.6a4.2 4.2 0 0 1 4.2-4.2H35a4.2 4.2 0 0 1 4.2 4.2V14h-2.8V5.6A1.4 1.4 0 0 0 35 4.2H9.8a1.4 1.4 0 0 0-1.4 1.4v47.6H5.6V5.6Z" clip-rule="evenodd"/><path fill="#FA8C16" fill-rule="evenodd" d="M19.6 47.6H8.4v-2.8h11.2v2.8Z" clip-rule="evenodd"/><path fill="#FA8C16" fill-rule="evenodd" d="M18.2 37.8v15.4h-2.8V37.8h2.8ZM39.365 28.824v5.93h-2.8v-5.93h2.8ZM45.13 22.894v5.93h-2.8v-5.93h2.8ZM33.6 22.894v5.93h-2.8v-5.93h2.8ZM25.2 16.965a4.365 4.365 0 0 1 4.365-4.365h16.47a4.365 4.365 0 1 1 0 8.73h-16.47a4.365 4.365 0 0 1-4.365-4.365Zm4.365-1.565a1.565 1.565 0 1 0 0 3.13h16.47a1.565 1.565 0 1 0 0-3.13h-16.47Z" clip-rule="evenodd"/><path fill="#FA8C16" d="M48 15H28v5h20v-5Z"/></g><defs><clipPath id="a"><path fill="#fff" d="M0 0h56v56H0z"/></clipPath></defs></svg>