<svg width="102" height="57" viewBox="0 0 102 57" fill="none" xmlns="http://www.w3.org/2000/svg">
<g clip-path="url(#clip0_3773_210401)">
<path d="M0.599609 0.791016H101.4V6.39102H0.599609V0.791016Z" fill="#FA8C16"/>
<path d="M8.99805 6.39062H92.998V56.7906H8.99805V6.39062Z" fill="white"/>
<path d="M9.00117 6.39062V56.7906H6.20117V6.39062H9.00117ZM93.0012 56.7906H42.6012V53.9906H93.0012V56.7906ZM95.8012 6.39062V56.7906H93.0012V6.39062H95.8012Z" fill="#2F54EB"/>
<path d="M93.0004 20.3906V38.5906C91.5152 38.5906 90.0908 38.0006 89.0406 36.9504C87.9904 35.9002 87.4004 34.4758 87.4004 32.9906V25.9906C87.4004 24.5054 87.9904 23.081 89.0406 22.0308C90.0908 20.9806 91.5152 20.3906 93.0004 20.3906Z" fill="#FA8C16"/>
<path d="M86.0012 25.9918C86.0012 25.2186 85.3744 24.5918 84.6012 24.5918C83.828 24.5918 83.2012 25.2186 83.2012 25.9918V32.9918C83.2012 33.765 83.828 34.3918 84.6012 34.3918C85.3744 34.3918 86.0012 33.765 86.0012 32.9918V25.9918Z" fill="#FA8C16"/>
<path d="M75.5584 25.8755C75.5585 26.0695 75.6299 26.2566 75.7589 26.4014C75.888 26.5463 76.0658 26.6386 76.2584 26.6609L78.6217 26.9269C78.7269 26.9427 78.8343 26.9372 78.9374 26.9106C79.0405 26.8841 79.1372 26.837 79.2217 26.7722C79.3062 26.7074 79.3768 26.6263 79.4292 26.5336C79.4817 26.441 79.5149 26.3387 79.5269 26.2329C79.539 26.1272 79.5296 26.02 79.4993 25.918C79.469 25.8159 79.4185 25.721 79.3508 25.6389C79.283 25.5568 79.1994 25.4891 79.1049 25.4401C79.0104 25.391 78.907 25.3615 78.8009 25.3532L76.4377 25.0845C76.2294 25.0621 76.0208 25.1232 75.8575 25.2545C75.6943 25.3857 75.5898 25.5763 75.5669 25.7845C75.562 25.8146 75.5592 25.845 75.5584 25.8755V25.8755ZM73.2919 24.7359L72.505 24.6435C72.2968 24.6211 72.0882 24.6822 71.9249 24.8135C71.7617 24.9447 71.6572 25.1353 71.6343 25.3435C71.6327 25.3733 71.6327 25.4032 71.6343 25.4331C71.6344 25.627 71.7057 25.8142 71.8347 25.959C71.9638 26.1038 72.1416 26.1962 72.3343 26.2185L73.1196 26.3095C73.3242 26.3254 73.527 26.2612 73.6853 26.1306C73.8436 25.9999 73.945 25.813 73.9682 25.6091C73.9914 25.4052 73.9346 25.2002 73.8098 25.0373C73.6849 24.8745 73.5018 24.7664 73.2989 24.7359H73.2919ZM69.3635 24.2949L66.2135 23.9379C66.11 23.9262 66.0053 23.935 65.9052 23.9639C65.8052 23.9928 65.7119 24.0412 65.6306 24.1062C65.5493 24.1712 65.4817 24.2517 65.4316 24.3429C65.3814 24.4341 65.3498 24.5344 65.3385 24.6379C65.3369 24.6672 65.3369 24.6967 65.3385 24.726C65.3385 24.92 65.4099 25.1072 65.539 25.252C65.668 25.3968 65.8458 25.4892 66.0385 25.5115L69.1843 25.8685C69.2895 25.8844 69.3969 25.8788 69.5 25.8522C69.6031 25.8256 69.6998 25.7786 69.7843 25.7138C69.8688 25.6491 69.9394 25.5679 69.9918 25.4753C70.0443 25.3826 70.0775 25.2803 70.0895 25.1746C70.1016 25.0688 70.0922 24.9617 70.0619 24.8596C70.0316 24.7575 69.9811 24.6626 69.9133 24.5805C69.8456 24.4984 69.762 24.4308 69.6675 24.3817C69.573 24.3326 69.4696 24.3031 69.3635 24.2949V24.2949ZM63.0676 23.5865C62.9642 23.5748 62.8595 23.5837 62.7595 23.6126C62.6595 23.6414 62.5661 23.6898 62.4848 23.7548C62.4035 23.8199 62.3359 23.9003 62.2857 23.9915C62.2356 24.0828 62.204 24.183 62.1926 24.2865C62.1911 24.3163 62.1911 24.3462 62.1926 24.376C62.1927 24.57 62.2641 24.7572 62.3932 24.902C62.5222 25.0468 62.7 25.1392 62.8926 25.1615L63.6795 25.2525C63.8847 25.2691 64.0884 25.2052 64.2475 25.0744C64.4066 24.9436 64.5086 24.7562 64.532 24.5516C64.5555 24.347 64.4985 24.1413 64.3731 23.9779C64.2477 23.8146 64.0638 23.7063 63.8601 23.676L63.0676 23.5865ZM57.3584 23.6593C57.3585 23.8533 57.4299 24.0404 57.5589 24.1852C57.688 24.33 57.8658 24.4223 58.0584 24.4447L60.4217 24.7107C60.5269 24.7265 60.6343 24.721 60.7374 24.6944C60.8405 24.6679 60.9372 24.6208 61.0217 24.556C61.1062 24.4912 61.1768 24.4101 61.2292 24.3174C61.2817 24.2248 61.3149 24.1225 61.3269 24.0167C61.339 23.911 61.3296 23.8038 61.2993 23.7018C61.269 23.5997 61.2185 23.5048 61.1508 23.4227C61.083 23.3406 60.9994 23.273 60.9049 23.2239C60.8104 23.1749 60.707 23.1453 60.6009 23.137L58.2377 22.8683C58.0294 22.8459 57.8208 22.907 57.6575 23.0383C57.4943 23.1695 57.3898 23.3601 57.3669 23.5683C57.362 23.5984 57.3592 23.6288 57.3584 23.6593V23.6593ZM55.0919 22.5197L54.305 22.4273C54.0968 22.4049 53.8882 22.466 53.7249 22.5972C53.5617 22.7285 53.4572 22.9191 53.4343 23.1273C53.4327 23.1571 53.4327 23.187 53.4343 23.2168C53.4344 23.4108 53.5057 23.598 53.6347 23.7428C53.7638 23.8876 53.9416 23.98 54.1343 24.0023L54.9196 24.0933C55.1242 24.1092 55.327 24.045 55.4853 23.9144C55.6436 23.7837 55.745 23.5968 55.7682 23.3929C55.7914 23.189 55.7346 22.9841 55.6098 22.8212C55.4849 22.6583 55.3018 22.5502 55.0989 22.5197H55.0919ZM51.1635 22.0787L48.0135 21.7217C47.91 21.71 47.8053 21.7188 47.7052 21.7477C47.6052 21.7766 47.5119 21.825 47.4306 21.89C47.3493 21.955 47.2817 22.0354 47.2316 22.1267C47.1814 22.2179 47.1498 22.3182 47.1385 22.4217C47.1369 22.451 47.1369 22.4805 47.1385 22.5098C47.1385 22.7038 47.2099 22.891 47.339 23.0358C47.468 23.1806 47.6458 23.273 47.8385 23.2953L50.9843 23.6523C51.0895 23.6681 51.1969 23.6626 51.3 23.6361C51.4031 23.6095 51.4998 23.5624 51.5843 23.4976C51.6688 23.4329 51.7394 23.3517 51.7918 23.2591C51.8443 23.1664 51.8775 23.0641 51.8895 22.9584C51.9016 22.8526 51.8922 22.7455 51.8619 22.6434C51.8316 22.5413 51.7811 22.4464 51.7133 22.3643C51.6456 22.2822 51.562 22.2145 51.4675 22.1655C51.373 22.1164 51.2696 22.0869 51.1635 22.0787V22.0787ZM44.8676 21.3703C44.7642 21.3586 44.6595 21.3675 44.5595 21.3963C44.4595 21.4252 44.3661 21.4736 44.2848 21.5386C44.2035 21.6037 44.1359 21.6841 44.0857 21.7753C44.0356 21.8665 44.004 21.9668 43.9926 22.0703C43.9911 22.1001 43.9911 22.13 43.9926 22.1598C43.9927 22.3538 44.0641 22.541 44.1932 22.6858C44.3222 22.8306 44.5 22.923 44.6926 22.9453L45.4795 23.0363C45.6847 23.0529 45.8884 22.989 46.0475 22.8582C46.2066 22.7274 46.3086 22.54 46.332 22.3354C46.3555 22.1308 46.2985 21.9251 46.1731 21.7617C46.0477 21.5984 45.8638 21.4901 45.6601 21.4598L44.8676 21.3703ZM79.4994 33.6903C79.488 33.5865 79.4561 33.486 79.4056 33.3945C79.3552 33.3031 79.2871 33.2225 79.2054 33.1574C79.1237 33.0923 79.03 33.0442 78.9295 33.0155C78.8291 32.9868 78.724 32.9782 78.6203 32.9903L76.2599 33.2591C76.0672 33.2814 75.8894 33.3737 75.7604 33.5185C75.6313 33.6633 75.5599 33.8505 75.5599 34.0445C75.5579 34.0743 75.5579 34.1043 75.5599 34.1341C75.5827 34.3423 75.6873 34.5329 75.8505 34.6641C76.0138 34.7954 76.2224 34.8565 76.4307 34.8341L78.7911 34.5695C78.8956 34.559 78.997 34.5279 79.0894 34.4778C79.1818 34.4278 79.2634 34.36 79.3293 34.2782C79.3952 34.1963 79.4442 34.1022 79.4734 34.0013C79.5026 33.9004 79.5115 33.7946 79.4994 33.6903ZM73.9946 34.3076C73.9833 34.2038 73.9516 34.1032 73.9012 34.0116C73.8508 33.9201 73.7827 33.8394 73.701 33.7743C73.6192 33.7093 73.5254 33.661 73.4249 33.6324C73.3244 33.6038 73.2192 33.5954 73.1154 33.6076L72.3286 33.6959C72.1361 33.7185 71.9585 33.8109 71.8295 33.9557C71.7005 34.1004 71.629 34.2874 71.6286 34.4813C71.6271 34.5106 71.6271 34.5401 71.6286 34.5695C71.6515 34.7776 71.7561 34.9683 71.9193 35.0995C72.0826 35.2307 72.2912 35.2918 72.4994 35.2695L73.2877 35.1855C73.392 35.1748 73.4931 35.1436 73.5852 35.0936C73.6774 35.0436 73.7587 34.9758 73.8245 34.8942C73.8902 34.8125 73.9391 34.7187 73.9683 34.618C73.9975 34.5173 74.0065 34.4118 73.9946 34.3076V34.3076ZM70.062 34.7501C70.0507 34.6466 70.0191 34.5464 69.969 34.4551C69.9188 34.3639 69.8512 34.2835 69.7699 34.2184C69.6886 34.1534 69.5953 34.105 69.4953 34.0762C69.3952 34.0473 69.2905 34.0384 69.187 34.0501L66.0412 34.4071C65.8486 34.4294 65.6708 34.5217 65.5417 34.6665C65.4127 34.8113 65.3413 34.9985 65.3412 35.1925C65.3397 35.2218 65.3397 35.2513 65.3412 35.2806C65.3526 35.3841 65.3842 35.4844 65.4343 35.5756C65.4845 35.6668 65.5521 35.7473 65.6334 35.8123C65.7147 35.8773 65.808 35.9257 65.9081 35.9546C66.0081 35.9835 66.1128 35.9923 66.2162 35.9806L69.362 35.6236C69.4654 35.6123 69.5655 35.5807 69.6566 35.5307C69.7478 35.4806 69.8281 35.4131 69.8932 35.332C69.9582 35.2509 70.0066 35.1577 70.0356 35.0579C70.0645 34.958 70.0735 34.8534 70.062 34.7501V34.7501ZM63.6781 34.6688L62.8912 34.7571C62.6986 34.7794 62.5208 34.8717 62.3917 35.0165C62.2627 35.1613 62.1913 35.3485 62.1912 35.5425C62.1897 35.5718 62.1897 35.6013 62.1912 35.6306C62.2026 35.7341 62.2342 35.8344 62.2843 35.9256C62.3345 36.0168 62.4021 36.0973 62.4834 36.1623C62.5647 36.2273 62.658 36.2757 62.7581 36.3046C62.8581 36.3335 62.9628 36.3423 63.0662 36.3306L63.8572 36.2466C63.9608 36.2349 64.0611 36.2028 64.1523 36.1523C64.2435 36.1018 64.3239 36.0339 64.3889 35.9523C64.4538 35.8707 64.502 35.7771 64.5308 35.6769C64.5596 35.5767 64.5683 35.4717 64.5566 35.3681C64.5448 35.2645 64.5127 35.1643 64.4622 35.0731C64.4117 34.9819 64.3437 34.9015 64.2621 34.8366C64.1806 34.7716 64.087 34.7234 63.9868 34.6946C63.8866 34.6659 63.7817 34.6571 63.6781 34.6688ZM61.2994 35.9401C61.288 35.8362 61.2561 35.7358 61.2056 35.6443C61.1552 35.5529 61.0871 35.4722 61.0054 35.4072C60.9237 35.3421 60.83 35.294 60.7295 35.2653C60.6291 35.2366 60.524 35.228 60.4203 35.2401L58.0599 35.5089C57.8672 35.5312 57.6894 35.6235 57.5604 35.7683C57.4313 35.9131 57.3599 36.1003 57.3599 36.2942C57.3579 36.3241 57.3579 36.354 57.3599 36.3839C57.3827 36.5921 57.4873 36.7827 57.6505 36.9139C57.8138 37.0451 58.0224 37.1063 58.2307 37.0839L60.5911 36.8192C60.6956 36.8088 60.797 36.7777 60.8894 36.7276C60.9818 36.6776 61.0634 36.6098 61.1293 36.5279C61.1952 36.4461 61.2442 36.352 61.2734 36.2511C61.3026 36.1502 61.3115 36.0444 61.2994 35.9401ZM55.7946 36.5574C55.7833 36.4535 55.7516 36.353 55.7012 36.2614C55.6508 36.1699 55.5827 36.0892 55.501 36.0241C55.4192 35.9591 55.3254 35.9108 55.2249 35.8822C55.1244 35.8536 55.0192 35.8452 54.9154 35.8574L54.1286 35.9457C53.9361 35.9683 53.7585 36.0607 53.6295 36.2055C53.5005 36.3502 53.429 36.5372 53.4286 36.7311C53.4271 36.7604 53.4271 36.7899 53.4286 36.8192C53.4515 37.0274 53.5561 37.2181 53.7193 37.3493C53.8826 37.4805 54.0912 37.5416 54.2994 37.5192L55.0877 37.4352C55.192 37.4246 55.2931 37.3934 55.3852 37.3434C55.4774 37.2934 55.5587 37.2256 55.6245 37.144C55.6902 37.0623 55.7391 36.9685 55.7683 36.8678C55.7975 36.7671 55.8065 36.6616 55.7946 36.5574V36.5574ZM51.862 36.9999C51.8507 36.8964 51.8191 36.7961 51.769 36.7049C51.7188 36.6137 51.6512 36.5333 51.5699 36.4682C51.4886 36.4032 51.3953 36.3548 51.2953 36.3259C51.1952 36.2971 51.0905 36.2882 50.987 36.2999L47.8412 36.6569C47.6486 36.6792 47.4708 36.7715 47.3417 36.9163C47.2127 37.0611 47.1413 37.2483 47.1412 37.4423C47.1397 37.4716 47.1397 37.5011 47.1412 37.5304C47.1526 37.6339 47.1842 37.7342 47.2343 37.8254C47.2845 37.9166 47.3521 37.9971 47.4334 38.0621C47.5147 38.1271 47.608 38.1755 47.7081 38.2044C47.8081 38.2333 47.9128 38.2421 48.0162 38.2304L51.162 37.8734C51.2654 37.8621 51.3655 37.8305 51.4566 37.7805C51.5478 37.7304 51.6281 37.6629 51.6932 37.5818C51.7582 37.5007 51.8066 37.4075 51.8356 37.3077C51.8645 37.2078 51.8735 37.1032 51.862 36.9999V36.9999ZM45.4781 36.9187L44.6912 37.0069C44.4986 37.0292 44.3208 37.1215 44.1917 37.2663C44.0627 37.4111 43.9913 37.5983 43.9912 37.7923C43.9897 37.8216 43.9897 37.8511 43.9912 37.8804C44.0026 37.9839 44.0342 38.0842 44.0843 38.1754C44.1345 38.2666 44.2021 38.3471 44.2834 38.4121C44.3647 38.4771 44.458 38.5255 44.5581 38.5544C44.6581 38.5833 44.7628 38.5921 44.8662 38.5804L45.6572 38.4964C45.7608 38.4847 45.8611 38.4526 45.9523 38.4021C46.0435 38.3516 46.1239 38.2836 46.1889 38.2021C46.2538 38.1205 46.302 38.0269 46.3308 37.9267C46.3596 37.8264 46.3683 37.7215 46.3566 37.6179C46.3448 37.5143 46.3127 37.4141 46.2622 37.3229C46.2117 37.2317 46.1437 37.1513 46.0621 37.0864C45.9806 37.0214 45.887 36.9732 45.7868 36.9444C45.6866 36.9157 45.5817 36.9069 45.4781 36.9187ZM77.1684 30.0054C77.1684 30.1099 77.1891 30.2134 77.2293 30.3098C77.2695 30.4062 77.3284 30.4937 77.4026 30.5673C77.4768 30.6408 77.5648 30.6989 77.6616 30.7383C77.7584 30.7776 77.862 30.7974 77.9664 30.7964H78.7574C78.9672 30.7964 79.1684 30.7131 79.3168 30.5648C79.4651 30.4164 79.5484 30.2152 79.5484 30.0054C79.5484 29.7957 79.4651 29.5945 79.3168 29.4462C79.1684 29.2978 78.9672 29.2144 78.7574 29.2144H77.9664C77.862 29.2135 77.7584 29.2333 77.6616 29.2726C77.5648 29.312 77.4768 29.3702 77.4026 29.4437C77.3284 29.5172 77.2695 29.6047 77.2293 29.7012C77.1891 29.7976 77.1684 29.901 77.1684 30.0054V30.0054ZM71.6356 29.2144C71.4259 29.2144 71.2247 29.2978 71.0763 29.4462C70.928 29.5945 70.8446 29.7957 70.8446 30.0054C70.8446 30.2152 70.928 30.4164 71.0763 30.5648C71.2247 30.7131 71.4259 30.7964 71.6356 30.7964H74.8011C75.0108 30.7964 75.212 30.7131 75.3604 30.5648C75.5087 30.4164 75.5921 30.2152 75.5921 30.0054C75.5921 29.7957 75.5087 29.5945 75.3604 29.4462C75.212 29.2978 75.0108 29.2144 74.8011 29.2144H71.6356ZM62.9305 29.2144C62.7207 29.2144 62.5195 29.2978 62.3711 29.4462C62.2228 29.5945 62.1395 29.7957 62.1395 30.0054C62.1395 30.2152 62.2228 30.4164 62.3711 30.5648C62.5195 30.7131 62.7207 30.7964 62.9305 30.7964H65.3048C65.5146 30.7964 65.7158 30.7131 65.8642 30.5648C66.0125 30.4164 66.0958 30.2152 66.0958 30.0054C66.0958 29.7957 66.0125 29.5945 65.8642 29.4462C65.7158 29.2978 65.5146 29.2144 65.3048 29.2144H62.9305ZM68.4703 29.2144C68.2605 29.2144 68.0593 29.2978 67.9109 29.4462C67.7626 29.5945 67.6793 29.7957 67.6793 30.0054C67.6793 30.2152 67.7626 30.4164 67.9109 30.5648C68.0593 30.7131 68.2605 30.7964 68.4703 30.7964H69.2613C69.471 30.7964 69.6722 30.7131 69.8206 30.5648C69.9689 30.4164 70.0523 30.2152 70.0523 30.0054C70.0523 29.7957 69.9689 29.5945 69.8206 29.4462C69.6722 29.2978 69.471 29.2144 69.2613 29.2144H68.4703ZM58.9684 30.0054C58.9684 30.1099 58.9891 30.2134 59.0293 30.3098C59.0695 30.4062 59.1284 30.4937 59.2026 30.5673C59.2768 30.6408 59.3648 30.6989 59.4616 30.7383C59.5584 30.7776 59.662 30.7974 59.7664 30.7964H60.5574C60.7672 30.7964 60.9684 30.7131 61.1168 30.5648C61.2651 30.4164 61.3484 30.2152 61.3484 30.0054C61.3484 29.7957 61.2651 29.5945 61.1168 29.4462C60.9684 29.2978 60.7672 29.2144 60.5574 29.2144H59.7664C59.662 29.2135 59.5584 29.2333 59.4616 29.2726C59.3648 29.312 59.2768 29.3702 59.2026 29.4437C59.1284 29.5172 59.0695 29.6047 59.0293 29.7012C58.9891 29.7976 58.9684 29.901 58.9684 30.0054V30.0054ZM53.4356 29.2144C53.2259 29.2144 53.0247 29.2978 52.8763 29.4462C52.728 29.5945 52.6446 29.7957 52.6446 30.0054C52.6446 30.2152 52.728 30.4164 52.8763 30.5648C53.0247 30.7131 53.2259 30.7964 53.4356 30.7964H56.6011C56.8108 30.7964 57.012 30.7131 57.1604 30.5648C57.3087 30.4164 57.3921 30.2152 57.3921 30.0054C57.3921 29.7957 57.3087 29.5945 57.1604 29.4462C57.012 29.2978 56.8108 29.2144 56.6011 29.2144H53.4356ZM44.7305 29.2144C44.5207 29.2144 44.3195 29.2978 44.1711 29.4462C44.0228 29.5945 43.9395 29.7957 43.9395 30.0054C43.9395 30.2152 44.0228 30.4164 44.1711 30.5648C44.3195 30.7131 44.5207 30.7964 44.7305 30.7964H47.1048C47.3146 30.7964 47.5158 30.7131 47.6642 30.5648C47.8125 30.4164 47.8958 30.2152 47.8958 30.0054C47.8958 29.7957 47.8125 29.5945 47.6642 29.4462C47.5158 29.2978 47.3146 29.2144 47.1048 29.2144H44.7305ZM50.2703 29.2144C50.0605 29.2144 49.8593 29.2978 49.7109 29.4462C49.5626 29.5945 49.4793 29.7957 49.4793 30.0054C49.4793 30.2152 49.5626 30.4164 49.7109 30.5648C49.8593 30.7131 50.0605 30.7964 50.2703 30.7964H51.0613C51.271 30.7964 51.4722 30.7131 51.6206 30.5648C51.7689 30.4164 51.8523 30.2152 51.8523 30.0054C51.8523 29.7957 51.7689 29.5945 51.6206 29.4462C51.4722 29.2978 51.271 29.2144 51.0613 29.2144H50.2703ZM79.3749 22.2438C79.4161 22.0385 79.3743 21.8253 79.2586 21.6507C79.1429 21.4762 78.9626 21.3547 78.7574 21.3129L77.9819 21.1547C77.8799 21.1339 77.7748 21.1333 77.6727 21.1532C77.5705 21.173 77.4733 21.2128 77.3865 21.2703C77.2998 21.3278 77.2252 21.4018 77.1672 21.4881C77.1091 21.5745 77.0686 21.6714 77.048 21.7734C77.0381 21.8256 77.0329 21.8786 77.0327 21.9317C77.0328 22.1139 77.0959 22.2904 77.2112 22.4315C77.3265 22.5725 77.4869 22.6694 77.6654 22.7059L78.4411 22.8627C78.543 22.8835 78.6481 22.884 78.7502 22.8642C78.8524 22.8444 78.9496 22.8045 79.0364 22.747C79.1231 22.6896 79.1977 22.6155 79.2557 22.5291C79.3138 22.4428 79.3543 22.3458 79.3749 22.2438V22.2438ZM74.8809 20.5232L71.7785 19.8891C71.6764 19.8685 71.5713 19.8682 71.4691 19.8882C71.367 19.9082 71.2698 19.9481 71.1831 20.0057C71.0963 20.0633 71.0218 20.1374 70.9638 20.2238C70.9057 20.3102 70.8652 20.4072 70.8446 20.5093C70.8341 20.5614 70.829 20.6143 70.8293 20.6675C70.8297 20.8496 70.8928 21.026 71.0081 21.167C71.1233 21.308 71.2837 21.405 71.462 21.4416L74.563 22.0758C74.6667 22.1016 74.7746 22.1062 74.8801 22.0893C74.9855 22.0723 75.0865 22.0342 75.1769 21.9772C75.2673 21.9203 75.3452 21.8456 75.406 21.7577C75.4668 21.6698 75.5092 21.5706 75.5306 21.4659C75.5521 21.3612 75.5521 21.2533 75.5308 21.1486C75.5095 21.0439 75.4672 20.9447 75.4065 20.8567C75.3458 20.7688 75.2679 20.6941 75.1776 20.637C75.0873 20.58 74.9863 20.5417 74.8809 20.5247V20.5232ZM65.5737 18.6304L63.2468 18.1545C63.145 18.1339 63.0401 18.1334 62.9381 18.1534C62.8361 18.1733 62.739 18.2132 62.6524 18.2707C62.5659 18.3282 62.4914 18.4021 62.4334 18.4883C62.3754 18.5746 62.335 18.6714 62.3145 18.7732C62.3037 18.8253 62.2986 18.8783 62.2991 18.9315C62.2993 19.1137 62.3623 19.2902 62.4776 19.4313C62.5929 19.5723 62.7534 19.6692 62.9319 19.7056L65.2572 20.1802C65.3598 20.203 65.4658 20.2052 65.5691 20.1866C65.6725 20.1679 65.7711 20.1289 65.8592 20.0717C65.9473 20.0146 66.0231 19.9404 66.0823 19.8536C66.1414 19.7669 66.1828 19.6692 66.2038 19.5663C66.2248 19.4634 66.2251 19.3573 66.2047 19.2543C66.1842 19.1513 66.1435 19.0535 66.0849 18.9663C66.0262 18.8792 65.9508 18.8047 65.863 18.747C65.7753 18.6893 65.6769 18.6497 65.5737 18.6304V18.6304ZM69.4516 19.4201L68.6761 19.2605C68.4706 19.2188 68.2569 19.2604 68.0821 19.3762C67.9072 19.4919 67.7855 19.6723 67.7436 19.8778C67.7317 19.9297 67.7252 19.9828 67.7241 20.0361C67.7243 20.2183 67.7873 20.3948 67.9026 20.5359C68.0179 20.6769 68.1784 20.7738 68.3569 20.8102L69.1353 20.9699C69.237 20.9907 69.3419 20.9913 69.4439 20.9717C69.5459 20.952 69.643 20.9125 69.7297 20.8553C69.8164 20.7981 69.891 20.7244 69.9493 20.6383C70.0075 20.5523 70.0482 20.4556 70.0691 20.3539C70.0899 20.2521 70.0906 20.1472 70.0709 20.0452C70.0512 19.9432 70.0117 19.8461 69.9545 19.7594C69.8973 19.6727 69.8235 19.5981 69.7375 19.5399C69.6515 19.4817 69.5548 19.4409 69.4531 19.4201H69.4516ZM61.1749 18.405C61.2161 18.1997 61.1743 17.9864 61.0586 17.8119C60.9429 17.6374 60.7626 17.5159 60.5574 17.4741L59.7819 17.3159C59.6799 17.2951 59.5748 17.2945 59.4727 17.3144C59.3705 17.3342 59.2733 17.374 59.1865 17.4315C59.0998 17.489 59.0252 17.563 58.9672 17.6493C58.9091 17.7357 58.8686 17.8326 58.848 17.9346C58.8381 17.9868 58.8329 18.0398 58.8327 18.0929C58.8328 18.2751 58.8959 18.4516 59.0112 18.5927C59.1265 18.7337 59.2869 18.8306 59.4654 18.867L60.2411 19.0238C60.343 19.0447 60.4481 19.0452 60.5502 19.0254C60.6524 19.0055 60.7496 18.9657 60.8364 18.9082C60.9231 18.8508 60.9977 18.7768 61.0557 18.6904C61.1138 18.6041 61.1543 18.507 61.1749 18.405V18.405ZM56.6809 16.6845L53.5785 16.0503C53.4764 16.0297 53.3713 16.0294 53.2691 16.0494C53.167 16.0694 53.0698 16.1093 52.9831 16.1669C52.8963 16.2245 52.8218 16.2986 52.7638 16.385C52.7057 16.4714 52.6652 16.5684 52.6446 16.6705C52.6341 16.7226 52.629 16.7755 52.6293 16.8287C52.6297 17.0108 52.6928 17.1872 52.8081 17.3282C52.9234 17.4692 53.0837 17.5661 53.262 17.6028L56.363 18.237C56.4667 18.2628 56.5746 18.2674 56.6801 18.2504C56.7855 18.2335 56.8865 18.1954 56.9769 18.1384C57.0673 18.0814 57.1452 18.0068 57.206 17.9189C57.2668 17.831 57.3092 17.7319 57.3306 17.6272C57.3521 17.5225 57.3521 17.4145 57.3308 17.3098C57.3095 17.2051 57.2672 17.1059 57.2065 17.0179C57.1458 16.93 57.0679 16.8553 56.9776 16.7982C56.8873 16.7412 56.7863 16.7029 56.6809 16.6859V16.6845ZM47.3737 14.7916L45.0468 14.3157C44.945 14.2951 44.8401 14.2947 44.7381 14.3147C44.6361 14.3346 44.539 14.3744 44.4524 14.4319C44.3659 14.4894 44.2914 14.5633 44.2334 14.6495C44.1754 14.7358 44.135 14.8326 44.1145 14.9345C44.1037 14.9865 44.0986 15.0395 44.0991 15.0927C44.0993 15.2749 44.1623 15.4514 44.2776 15.5925C44.3929 15.7335 44.5534 15.8304 44.7319 15.8668L47.0572 16.3414C47.1598 16.3642 47.2658 16.3664 47.3691 16.3478C47.4725 16.3291 47.5711 16.2901 47.6592 16.2329C47.7473 16.1758 47.8231 16.1016 47.8823 16.0148C47.9414 15.9281 47.9828 15.8304 48.0038 15.7275C48.0248 15.6246 48.0251 15.5186 48.0047 15.4156C47.9842 15.3126 47.9435 15.2146 47.8849 15.1275C47.8262 15.0404 47.7508 14.9658 47.663 14.9082C47.5753 14.8505 47.4769 14.8109 47.3737 14.7916V14.7916ZM51.2516 15.5813L50.4761 15.4217C50.2706 15.38 50.0569 15.4216 49.8821 15.5374C49.7072 15.6531 49.5855 15.8336 49.5436 16.0391C49.5317 16.091 49.5252 16.144 49.5241 16.1973C49.5243 16.3795 49.5873 16.556 49.7026 16.6971C49.8179 16.8381 49.9784 16.935 50.1569 16.9714L50.9353 17.1311C51.037 17.1519 51.1419 17.1525 51.2439 17.1329C51.3459 17.1132 51.443 17.0737 51.5297 17.0165C51.6164 16.9593 51.691 16.8856 51.7493 16.7995C51.8075 16.7135 51.8482 16.6168 51.8691 16.5151C51.8899 16.4133 51.8906 16.3084 51.8709 16.2064C51.8512 16.1044 51.8117 16.0073 51.7545 15.9206C51.6973 15.8339 51.6235 15.7593 51.5375 15.7011C51.4515 15.6428 51.3548 15.6021 51.2531 15.5813H51.2516ZM78.7589 38.6938C78.8621 38.6746 78.9605 38.635 79.0482 38.5774C79.136 38.5197 79.2114 38.4451 79.2701 38.358C79.3287 38.2709 79.3694 38.173 79.3899 38.07C79.4103 37.9669 79.41 37.8609 79.389 37.758C79.368 37.6551 79.3266 37.5575 79.2675 37.4707C79.2083 37.3839 79.1325 37.3098 79.0444 37.2526C78.9563 37.1955 78.8577 37.1564 78.7543 37.1378C78.651 37.1192 78.545 37.1213 78.4424 37.144L77.6669 37.3023C77.4884 37.3387 77.3279 37.4356 77.2126 37.5767C77.0973 37.7177 77.0343 37.8943 77.0341 38.0765C77.0316 38.1317 77.0344 38.187 77.0424 38.2416C77.063 38.3436 77.1035 38.4406 77.1616 38.5269C77.2196 38.6133 77.2942 38.6874 77.3809 38.7448C77.4677 38.8023 77.5649 38.8422 77.6671 38.862C77.7692 38.8818 77.8743 38.8813 77.9763 38.8605L78.7589 38.6938ZM74.8809 39.4835C74.9863 39.4664 75.0873 39.4282 75.1776 39.3711C75.2679 39.314 75.3458 39.2393 75.4065 39.1514C75.4672 39.0635 75.5095 38.9642 75.5308 38.8595C75.5521 38.7548 75.5521 38.6468 75.5306 38.5422C75.5092 38.4375 75.4668 38.3383 75.406 38.2504C75.3452 38.1626 75.2673 38.0879 75.1769 38.0309C75.0865 37.9739 74.9855 37.9358 74.8801 37.9189C74.7746 37.9019 74.6667 37.9065 74.563 37.9323L71.4606 38.5651C71.2823 38.6017 71.122 38.6988 71.0067 38.8398C70.8915 38.9808 70.8283 39.1571 70.8278 39.3392C70.8276 39.3923 70.8328 39.4454 70.8433 39.4975C70.864 39.5994 70.9045 39.6962 70.9627 39.7824C71.0208 39.8686 71.0954 39.9424 71.1822 39.9997C71.2689 40.0571 71.3661 40.0968 71.4682 40.1166C71.5702 40.1363 71.6752 40.1357 71.7771 40.1148L74.8809 39.4835ZM65.2586 39.8265L62.9319 40.301C62.7547 40.3389 62.5958 40.4365 62.4819 40.5774C62.368 40.7183 62.3059 40.8941 62.306 41.0753C62.3056 41.1284 62.3108 41.1814 62.3215 41.2335C62.3633 41.4389 62.485 41.6194 62.6598 41.7352C62.8347 41.851 63.0483 41.8925 63.2538 41.8508L65.5737 41.3762C65.6755 41.3555 65.7723 41.3149 65.8584 41.2567C65.9446 41.1985 66.0184 41.124 66.0758 41.0373C66.1331 40.9506 66.1728 40.8533 66.1926 40.7513C66.2123 40.6492 66.2118 40.5443 66.1911 40.4425C66.1703 40.3406 66.1297 40.2438 66.0715 40.1577C66.0133 40.0715 65.9387 39.9977 65.852 39.9404C65.7653 39.883 65.6681 39.8433 65.5661 39.8236C65.464 39.8038 65.3591 39.8043 65.2572 39.8251L65.2586 39.8265ZM69.4502 40.5881C69.5521 40.5673 69.6489 40.5267 69.735 40.4685C69.8212 40.4104 69.895 40.3357 69.9523 40.249C70.0097 40.1623 70.0494 40.0651 70.0691 39.9631C70.0889 39.861 70.0884 39.7561 70.0676 39.6543C70.0469 39.5524 70.0062 39.4556 69.9481 39.3695C69.8899 39.2833 69.8153 39.2095 69.7286 39.1522C69.6419 39.0948 69.5448 39.0552 69.4427 39.0354C69.3407 39.0156 69.2357 39.016 69.1339 39.0368L68.3582 39.1951C68.179 39.231 68.0177 39.3279 67.9018 39.4693C67.786 39.6107 67.7227 39.7879 67.7227 39.9707C67.7222 40.0238 67.7273 40.0768 67.738 40.1289C67.7799 40.3343 67.9016 40.5148 68.0764 40.6306C68.2513 40.7464 68.465 40.7879 68.6705 40.7462L69.4502 40.5881ZM60.5589 42.8938C60.6621 42.8746 60.7605 42.835 60.8482 42.7774C60.936 42.7197 61.0114 42.6451 61.0701 42.558C61.1287 42.4709 61.1694 42.373 61.1899 42.27C61.2103 42.1669 61.21 42.0609 61.189 41.958C61.168 41.8551 61.1266 41.7575 61.0675 41.6707C61.0083 41.5839 60.9325 41.5098 60.8444 41.4526C60.7563 41.3955 60.6577 41.3564 60.5543 41.3378C60.451 41.3192 60.345 41.3213 60.2424 41.344L59.4669 41.5023C59.2884 41.5387 59.1279 41.6356 59.0126 41.7767C58.8973 41.9177 58.8343 42.0943 58.8341 42.2765C58.8316 42.3317 58.8344 42.387 58.8424 42.4416C58.863 42.5436 58.9035 42.6406 58.9616 42.7269C59.0196 42.8133 59.0942 42.8874 59.1809 42.9448C59.2677 43.0023 59.3649 43.0422 59.4671 43.062C59.5692 43.0818 59.6743 43.0813 59.7763 43.0605L60.5589 42.8938ZM56.6809 43.6835C56.7863 43.6664 56.8873 43.6282 56.9776 43.5711C57.0679 43.514 57.1458 43.4393 57.2065 43.3514C57.2672 43.2635 57.3095 43.1642 57.3308 43.0595C57.3521 42.9548 57.3521 42.8468 57.3306 42.7422C57.3092 42.6375 57.2668 42.5383 57.206 42.4504C57.1452 42.3626 57.0673 42.2879 56.9769 42.2309C56.8865 42.1739 56.7855 42.1358 56.6801 42.1189C56.5746 42.1019 56.4667 42.1065 56.363 42.1323L53.2606 42.7651C53.0823 42.8017 52.922 42.8988 52.8067 43.0398C52.6915 43.1808 52.6283 43.3571 52.6278 43.5392C52.6276 43.5923 52.6328 43.6454 52.6433 43.6975C52.664 43.7994 52.7045 43.8962 52.7627 43.9824C52.8208 44.0686 52.8954 44.1424 52.9822 44.1997C53.0689 44.2571 53.1661 44.2968 53.2682 44.3166C53.3702 44.3363 53.4752 44.3357 53.5771 44.3148L56.6809 43.6835ZM47.0586 44.0265L44.7319 44.501C44.5547 44.5389 44.3958 44.6365 44.2819 44.7774C44.168 44.9183 44.1059 45.0941 44.106 45.2753C44.1056 45.3284 44.1108 45.3814 44.1215 45.4335C44.1633 45.6389 44.285 45.8194 44.4598 45.9352C44.6347 46.051 44.8483 46.0925 45.0538 46.0508L47.3737 45.5762C47.4755 45.5555 47.5723 45.5149 47.6584 45.4567C47.7446 45.3985 47.8184 45.324 47.8758 45.2373C47.9331 45.1506 47.9728 45.0533 47.9926 44.9513C48.0123 44.8492 48.0118 44.7443 47.9911 44.6425C47.9703 44.5406 47.9297 44.4438 47.8715 44.3577C47.8133 44.2715 47.7387 44.1977 47.652 44.1404C47.5653 44.083 47.4681 44.0433 47.3661 44.0236C47.264 44.0038 47.1591 44.0043 47.0572 44.0251L47.0586 44.0265ZM51.2502 44.7881C51.4559 44.7461 51.6365 44.6241 51.7523 44.449C51.8681 44.2739 51.9096 44.06 51.8676 43.8543C51.8257 43.6486 51.7037 43.468 51.5286 43.3522C51.3535 43.2364 51.1396 43.1949 50.9339 43.2368L50.1582 43.3951C49.979 43.431 49.8177 43.5279 49.7018 43.6693C49.586 43.8107 49.5227 43.9879 49.5227 44.1707C49.5222 44.2238 49.5273 44.2768 49.538 44.3289C49.5799 44.5343 49.7016 44.7148 49.8764 44.8306C50.0513 44.9464 50.265 44.9879 50.4705 44.9462L51.2502 44.7881ZM83.5062 48.2124C83.5049 48.525 83.4109 48.8303 83.2362 49.0895C83.0616 49.3487 82.814 49.5503 82.5248 49.669C82.2356 49.7877 81.9178 49.818 81.6114 49.7562C81.3049 49.6943 81.0237 49.5432 80.8031 49.3217C80.5826 49.1001 80.4326 48.8182 80.3721 48.5115C80.3117 48.2048 80.3434 47.8872 80.4634 47.5985C80.5833 47.3098 80.7861 47.0631 81.0461 46.8896C81.3061 46.7161 81.6116 46.6234 81.9242 46.6234C82.1325 46.6236 82.3387 46.6649 82.5311 46.7449C82.7234 46.8249 82.898 46.9421 83.0449 47.0897C83.1919 47.2373 83.3083 47.4125 83.3875 47.6052C83.4666 47.7978 83.507 48.0042 83.5062 48.2124V48.2124ZM79.4533 46.2525C79.1832 46.5915 78.9863 46.9829 78.8751 47.4019C78.8363 47.4097 78.797 47.4149 78.7574 47.4173C78.5473 47.4171 78.3458 47.3334 78.1973 47.1847C78.0489 47.0359 77.9656 46.8344 77.9658 46.6242C77.9659 46.414 78.0496 46.2126 78.1984 46.0641C78.3471 45.9156 78.5487 45.8322 78.7589 45.8324C78.9015 45.8342 79.0411 45.8741 79.1632 45.948C79.2853 46.0218 79.3854 46.127 79.4533 46.2525V46.2525ZM68.3373 49.6251C68.0827 49.6251 67.8339 49.5496 67.6223 49.4081C67.4107 49.2667 67.2458 49.0657 67.1484 48.8305C67.0511 48.5953 67.0257 48.3365 67.0755 48.0869C67.1252 47.8373 67.2479 47.6081 67.428 47.4282C67.6081 47.2483 67.8374 47.1259 68.0871 47.0764C68.3368 47.0269 68.5955 47.0526 68.8306 47.1502C69.0657 47.2478 69.2665 47.413 69.4077 47.6247C69.5489 47.8365 69.6241 48.0853 69.6239 48.3398C69.6235 48.6808 69.4878 49.0077 69.2465 49.2487C69.0053 49.4897 68.6782 49.6251 68.3373 49.6251V49.6251ZM87.4627 15.976C87.4629 15.7056 87.5434 15.4414 87.6938 15.2167C87.8442 14.9919 88.0578 14.8169 88.3077 14.7135C88.5576 14.6102 88.8325 14.5832 89.0977 14.636C89.3629 14.6889 89.6064 14.8191 89.7976 15.0103C89.9888 15.2015 90.1191 15.4451 90.1719 15.7103C90.2247 15.9755 90.1978 16.2504 90.0944 16.5003C89.9911 16.7502 89.816 16.9637 89.5913 17.1141C89.3665 17.2645 89.1023 17.345 88.8319 17.3453C88.652 17.3455 88.4739 17.3101 88.3077 17.2414C88.1415 17.1726 87.9904 17.0718 87.8633 16.9446C87.7361 16.8174 87.6352 16.6665 87.5665 16.5003C87.4977 16.3341 87.4625 16.1559 87.4627 15.976V15.976ZM79.6703 10.4111C79.7794 10.1456 79.9586 9.91477 80.1888 9.7433C80.419 9.57182 80.6915 9.46614 80.9771 9.43756C81.2627 9.40898 81.5507 9.45856 81.8103 9.58103C82.0699 9.70349 82.2913 9.89418 82.4509 10.1328C82.6105 10.3714 82.7022 10.6489 82.7163 10.9356C82.7303 11.2223 82.6662 11.5074 82.5307 11.7605C82.3952 12.0135 82.1934 12.225 81.9471 12.3722C81.7007 12.5195 81.4189 12.597 81.1319 12.5964C81.1298 12.1289 80.9901 11.6723 80.7302 11.2836C80.4703 10.8949 80.1016 10.5915 79.6703 10.4111V10.4111ZM77.9664 12.5964C77.9664 12.44 78.0128 12.2871 78.0997 12.157C78.1867 12.0269 78.3102 11.9256 78.4547 11.8657C78.5993 11.8058 78.7583 11.7901 78.9118 11.8207C79.0652 11.8512 79.2061 11.9266 79.3168 12.0372C79.4274 12.1478 79.5027 12.2887 79.5332 12.4421C79.5638 12.5956 79.5481 12.7547 79.4883 12.8992C79.4284 13.0437 79.327 13.1672 79.1969 13.2541C79.0668 13.3411 78.9139 13.3874 78.7574 13.3874C78.5477 13.3874 78.3465 13.3041 78.1981 13.1558C78.0498 13.0075 77.9664 12.8062 77.9664 12.5964ZM70.0523 12.5964C70.0523 12.9093 69.9595 13.2152 69.7856 13.4754C69.6118 13.7355 69.3647 13.9383 69.0757 14.0581C68.7866 14.1778 68.4685 14.2091 68.1616 14.148C67.8547 14.087 67.5728 13.9364 67.3516 13.7151C67.1304 13.4939 66.9797 13.212 66.9187 12.9051C66.8576 12.5982 66.889 12.2801 67.0087 11.991C67.1284 11.702 67.3312 11.455 67.5913 11.2811C67.8515 11.1073 68.1574 11.0144 68.4703 11.0144C68.8897 11.0148 69.2919 11.1817 69.5885 11.4783C69.8851 11.7749 70.0519 12.177 70.0523 12.5964V12.5964Z" fill="#2F54EB"/>
</g>
<defs>
<clipPath id="clip0_3773_210401">
<rect width="100.8" height="56" fill="white" transform="translate(0.599609 0.791016)"/>
</clipPath>
</defs>
</svg>
