<svg width="56" height="57" viewBox="0 0 56 57" fill="none" xmlns="http://www.w3.org/2000/svg">
<g clip-path="url(#clip0_3773_210366)">
<path d="M9.22316 56.6176C9.03045 56.5212 8.85862 56.3879 8.71746 56.2251C8.5763 56.0623 8.4686 55.8733 8.40049 55.6689C8.33238 55.4645 8.3052 55.2487 8.32051 55.0338C8.33582 54.8189 8.39332 54.6091 8.48972 54.4165L9.84927 51.6942C7.89347 50.6032 6.26414 49.0101 5.12936 47.0793C3.99458 45.1486 3.39543 42.95 3.39372 40.7105V37.1016H13.2373V43.9919C13.2381 44.7168 13.5264 45.4118 14.0389 45.9244C14.5514 46.4371 15.2463 46.7255 15.9712 46.7266H26.9075C27.6324 46.7255 28.3273 46.4371 28.8398 45.9244C29.3523 45.4118 29.6406 44.7168 29.6414 43.9919V37.1039H52.6092V40.7128C52.6074 42.9523 52.0083 45.1509 50.8735 47.0817C49.7387 49.0124 48.1094 50.6055 46.1536 51.6966L47.5132 54.4188C47.6172 54.6122 47.6813 54.8246 47.7018 55.0433C47.7222 55.262 47.6986 55.4825 47.6322 55.6919C47.5658 55.9013 47.4581 56.0952 47.3155 56.2622C47.1728 56.4292 46.998 56.5658 46.8016 56.664C46.6051 56.7622 46.3909 56.82 46.1717 56.8339C45.9525 56.8478 45.7328 56.8176 45.5255 56.745C45.3182 56.6724 45.1276 56.5589 44.9649 56.4113C44.8023 56.2637 44.6709 56.085 44.5786 55.8857L43.093 52.9146C42.0918 53.1661 41.0633 53.293 40.0309 53.2926H15.9712C14.9388 53.293 13.9103 53.166 12.909 52.9146L11.4235 55.8857C11.3273 56.0785 11.194 56.2505 11.0313 56.3918C10.8685 56.5331 10.6795 56.6408 10.4751 56.709C10.2706 56.7771 10.0547 56.8042 9.83978 56.7888C9.62482 56.7734 9.41502 56.7157 9.22238 56.6191L9.22316 56.6176ZM16.5187 43.4467V40.2749H26.3607V43.4467H16.5187ZM16.5187 36.9911V27.041H26.3607V36.9966L16.5187 36.9911ZM29.6422 33.8193V27.041H47.5777V4.07168H36.2043V6.75268C38.0557 7.1334 39.7193 8.14078 40.9146 9.60502C42.11 11.0693 42.764 12.9008 42.7664 14.791C42.7664 15.2263 42.5935 15.6437 42.2857 15.9515C41.9779 16.2592 41.5605 16.4321 41.1253 16.4321H39.4849C39.4849 16.8672 39.3121 17.2844 39.0045 17.592C38.6969 17.8996 38.2796 18.0725 37.8446 18.0725C37.4096 18.0725 36.9923 17.8996 36.6847 17.592C36.3771 17.2844 36.2043 16.8672 36.2043 16.4321H32.9236C32.9143 16.8611 32.7373 17.2693 32.4306 17.5694C32.1239 17.8695 31.7119 18.0375 31.2829 18.0375C30.8538 18.0375 30.4418 17.8695 30.1351 17.5694C29.8285 17.2693 29.6515 16.8611 29.6422 16.4321H28.0018C27.5666 16.4321 27.1492 16.2592 26.8414 15.9515C26.5336 15.6437 26.3607 15.2263 26.3607 14.791C26.3631 12.9008 27.0171 11.0693 28.2124 9.60502C29.4078 8.14078 31.0714 7.1334 32.9228 6.75268V2.43213C32.9228 1.99688 33.0957 1.57945 33.4035 1.27169C33.7113 0.963918 34.1287 0.791016 34.5639 0.791016H49.2188C49.4343 0.791016 49.6477 0.83347 49.8467 0.915953C50.0458 0.998436 50.2267 1.11933 50.379 1.27173C50.5313 1.42413 50.6521 1.60506 50.7345 1.80416C50.8169 2.00326 50.8593 2.21665 50.8592 2.43213V27.041H52.172C53.1872 27.0416 54.1606 27.445 54.8786 28.1626C55.5966 28.8802 56.0006 29.8533 56.0018 30.8685C56.0715 31.8538 56.0454 32.8437 55.9241 33.824L29.6422 33.8193ZM0.0796054 33.8217C-0.0402594 32.8412 -0.0663033 31.8515 0.00182759 30.8661C0.00368132 29.8513 0.408025 28.8786 1.12615 28.1615C1.84427 27.4444 2.81753 27.0414 3.83238 27.041H13.2373V33.8217H0.0796054ZM39.4849 22.1192C39.4849 21.7948 39.5811 21.4777 39.7614 21.2079C39.9416 20.9382 40.1978 20.7279 40.4975 20.6038C40.7973 20.4796 41.1271 20.4471 41.4453 20.5104C41.7635 20.5737 42.0558 20.7299 42.2852 20.9593C42.5146 21.1888 42.6708 21.481 42.7341 21.7992C42.7974 22.1174 42.7649 22.4472 42.6407 22.747C42.5166 23.0467 42.3063 23.3029 42.0366 23.4831C41.7668 23.6634 41.4497 23.7596 41.1253 23.7596C40.6902 23.7596 40.273 23.5868 39.9654 23.2791C39.6578 22.9715 39.4849 22.5543 39.4849 22.1192ZM32.9228 22.1192C32.9227 21.7946 33.0188 21.4773 33.199 21.2073C33.3793 20.9373 33.6355 20.7268 33.9354 20.6025C34.2352 20.4782 34.5652 20.4456 34.8836 20.5088C35.202 20.572 35.4945 20.7283 35.7241 20.9577C35.9537 21.1872 36.1101 21.4796 36.1735 21.798C36.2368 22.1164 36.2044 22.4464 36.0802 22.7463C35.956 23.0462 35.7457 23.3026 35.4758 23.4829C35.2059 23.6633 34.8886 23.7596 34.5639 23.7596C34.1288 23.7596 33.7115 23.5868 33.4038 23.2792C33.096 22.9716 32.923 22.5544 32.9228 22.1192ZM26.3607 22.1192C26.3607 21.7948 26.4569 21.4777 26.6371 21.208C26.8173 20.9383 27.0735 20.728 27.3731 20.6038C27.6728 20.4797 28.0026 20.4471 28.3208 20.5104C28.6389 20.5736 28.9312 20.7297 29.1607 20.9591C29.3901 21.1884 29.5464 21.4806 29.6098 21.7987C29.6731 22.1169 29.6408 22.4467 29.5167 22.7464C29.3927 23.0462 29.1826 23.3024 28.9129 23.4827C28.6433 23.6631 28.3262 23.7594 28.0018 23.7596C27.7863 23.7597 27.573 23.7173 27.3739 23.6349C27.1748 23.5525 26.9938 23.4317 26.8414 23.2794C26.689 23.1271 26.5681 22.9462 26.4857 22.7471C26.4032 22.5481 26.3607 22.3347 26.3607 22.1192V22.1192Z" fill="#FA8C16"/>
</g>
<defs>
<clipPath id="clip0_3773_210366">
<rect width="56" height="56" fill="white" transform="translate(0 0.791016)"/>
</clipPath>
</defs>
</svg>
