<svg xmlns="http://www.w3.org/2000/svg" width="56" height="56" fill="none" viewBox="0 0 56 56"><g clip-path="url(#a)"><mask id="b" width="56" height="56" x="0" y="0" maskUnits="userSpaceOnUse" style="mask-type:luminance"><path fill="#fff" d="M56 0H0v56h56V0Z"/></mask><g mask="url(#b)"><path fill="#fff" d="M56 0H0v56h56V0Z"/><path fill="#FA8C16" fill-rule="evenodd" d="M36.162 5.474a.718.718 0 0 0-.496-.51c-4.738-1.454-10 .478-12.562 4.917-2.564 4.44-1.606 9.962 2.022 13.339a.718.718 0 0 0 .69.175c.286-.066.595-.274.793-.617l9.416-16.31a1.28 1.28 0 0 0 .137-.994Zm.325-3.187c2.556.784 3.065 3.673 1.963 5.582l-9.417 16.31c-1.102 1.909-3.858 2.912-5.815 1.09-4.554-4.239-5.774-11.185-2.54-16.788C23.914 2.88 30.54.462 36.488 2.287Z" clip-rule="evenodd"/><path fill="#FA8C16" d="m8.5 37 5-8.5 6-9 4.5 4L13 40l-4.5-3Z"/><path fill="#FA8C16" fill-rule="evenodd" d="M21.732 17.718 10.318 37.29l2.304 1.33 9.722-16.646 2.418 1.412-9.722 16.646a2.8 2.8 0 0 1-3.818 1.013l-2.304-1.33A2.8 2.8 0 0 1 7.9 35.88l11.414-19.573 2.419 1.41ZM39.14 17.523l5.006 2.89-1.4 2.425-5.006-2.89 1.4-2.425ZM40.848 9.104l5.006 2.89-1.4 2.425-5.006-2.89 1.4-2.425ZM32.703 23.212l5.006 2.89-1.4 2.425-5.006-2.89 1.4-2.425Z" clip-rule="evenodd"/><path fill="#FA8C16" fill-rule="evenodd" d="M5.641 46.935c.3-2.998 2.233-6.4 3.64-8.512l2.33 1.553c-1.392 2.089-2.959 4.987-3.184 7.238-.108 1.081.114 1.778.555 2.224.466.472 1.465.962 3.565.962h12.6v2.8h-12.6c-2.45 0-4.34-.56-5.558-1.795-1.243-1.26-1.502-2.925-1.348-4.47Z" clip-rule="evenodd"/></g></g><defs><clipPath id="a"><path fill="#fff" d="M0 0h56v56H0z"/></clipPath></defs></svg>