<svg width="102" height="57" viewBox="0 0 102 57" fill="none" xmlns="http://www.w3.org/2000/svg">
<g clip-path="url(#clip0_3773_210411)">
<path d="M0.599609 0.791016H101.4V6.39102H0.599609V0.791016ZM6.19961 6.39102V56.791H0.599609V6.39102H6.19961Z" fill="#FA8C16"/>
<path d="M6.20117 6.39062H101.401V56.7906H6.20117V6.39062Z" fill="white"/>
<path d="M6.20117 20.3906C7.68638 20.3906 9.11077 20.9806 10.161 22.0308C11.2112 23.081 11.8012 24.5054 11.8012 25.9906V32.9906C11.8012 34.4758 11.2112 35.9002 10.161 36.9504C9.11077 38.0006 7.68638 38.5906 6.20117 38.5906V20.3906Z" fill="#FA8C16"/>
<path d="M16.0012 25.9918C16.0012 25.2186 15.3744 24.5918 14.6012 24.5918C13.828 24.5918 13.2012 25.2186 13.2012 25.9918V32.9918C13.2012 33.765 13.828 34.3918 14.6012 34.3918C15.3744 34.3918 16.0012 33.765 16.0012 32.9918V25.9918Z" fill="#FA8C16"/>
<path d="M23.5793 24.4771C23.5792 24.671 23.5078 24.8582 23.3788 25.003C23.2497 25.1478 23.0719 25.2401 22.8793 25.2624L20.5189 25.5271C20.3102 25.5503 20.1008 25.4896 19.9369 25.3585C19.7729 25.2273 19.6677 25.0364 19.6445 24.8278C19.6213 24.6191 19.682 24.4097 19.8131 24.2458C19.9443 24.0818 20.1352 23.9766 20.3439 23.9534L22.7 23.6861C22.9083 23.6637 23.1169 23.7248 23.2802 23.856C23.4434 23.9873 23.5479 24.1779 23.5708 24.3861C23.5757 24.4162 23.5785 24.4466 23.5793 24.4771ZM25.8458 23.3374L26.6327 23.2451C26.7361 23.2334 26.8408 23.2422 26.9408 23.2711C27.0408 23.3 27.1342 23.3484 27.2155 23.4134C27.2968 23.4784 27.3644 23.5589 27.4146 23.6501C27.4647 23.7413 27.4963 23.8416 27.5077 23.9451C27.5093 23.9758 27.5093 24.0067 27.5077 24.0374C27.5076 24.2314 27.4362 24.4186 27.3072 24.5634C27.1781 24.7082 27.0003 24.8005 26.8077 24.8228L26.0208 24.9111C25.8162 24.9269 25.6135 24.8628 25.4552 24.7321C25.2969 24.6015 25.1955 24.4145 25.1723 24.2106C25.1491 24.0067 25.2059 23.8018 25.3307 23.6389C25.4556 23.476 25.6387 23.368 25.8417 23.3374H25.8458ZM29.7784 22.8964L32.9242 22.5394C33.028 22.5272 33.1332 22.5356 33.2337 22.5642C33.3342 22.5928 33.428 22.6411 33.5098 22.7061C33.5915 22.7712 33.6596 22.8519 33.71 22.9434C33.7604 23.035 33.7921 23.1355 33.8034 23.2394C33.8051 23.2702 33.8051 23.301 33.8034 23.3318C33.8033 23.5258 33.732 23.7129 33.603 23.8577C33.4739 24.0025 33.2961 24.0949 33.1034 24.1172L29.9577 24.4686C29.8521 24.4849 29.7443 24.4797 29.6409 24.4532C29.5374 24.4268 29.4403 24.3796 29.3555 24.3147C29.2707 24.2498 29.1998 24.1684 29.1473 24.0755C29.0947 23.9825 29.0614 23.8799 29.0495 23.7737C29.0376 23.6676 29.0474 23.5601 29.078 23.4578C29.1087 23.3555 29.1597 23.2605 29.2281 23.1784C29.2964 23.0963 29.3807 23.029 29.4757 22.9803C29.5708 22.9316 29.6747 22.9026 29.7812 22.8951L29.7784 22.8964ZM36.0701 22.1881C36.1738 22.1758 36.279 22.1842 36.3795 22.2128C36.48 22.2415 36.5738 22.2897 36.6556 22.3548C36.7373 22.4199 36.8054 22.5004 36.8558 22.592C36.9062 22.6835 36.9379 22.7842 36.9492 22.8881C36.9509 22.9188 36.9509 22.9497 36.9492 22.9804C36.9492 23.1744 36.8778 23.3616 36.7487 23.5064C36.6197 23.6512 36.4419 23.7435 36.2492 23.7658L35.4625 23.8541C35.2575 23.8698 35.0545 23.8055 34.896 23.6746C34.7375 23.5437 34.636 23.3565 34.6128 23.1523C34.5895 22.948 34.6465 22.7427 34.7715 22.5796C34.8966 22.4165 35.08 22.3082 35.2832 22.2776L36.0701 22.1881ZM41.7793 22.2609C41.7792 22.4548 41.7078 22.642 41.5788 22.7868C41.4497 22.9316 41.2719 23.0239 41.0793 23.0462L38.7189 23.3109C38.6155 23.3224 38.511 23.3134 38.4111 23.2845C38.3113 23.2555 38.218 23.2072 38.1369 23.1423C38.0557 23.0773 37.9881 22.9971 37.9379 22.906C37.8878 22.8149 37.856 22.7149 37.8445 22.6115C37.833 22.5082 37.842 22.4036 37.8709 22.3038C37.8999 22.2039 37.9482 22.1107 38.0131 22.0296C38.0781 21.9484 38.1583 21.8808 38.2494 21.8306C38.3405 21.7805 38.4405 21.7487 38.5439 21.7372L40.9 21.4699C41.1083 21.4475 41.3169 21.5086 41.4802 21.6398C41.6434 21.771 41.7479 21.9617 41.7708 22.1699C41.7757 22.2 41.7785 22.2304 41.7793 22.2609ZM44.0458 21.1212L44.8327 21.0289C44.9361 21.0172 45.0408 21.026 45.1408 21.0549C45.2408 21.0838 45.3342 21.1322 45.4155 21.1972C45.4968 21.2622 45.5644 21.3427 45.6146 21.4339C45.6647 21.5251 45.6963 21.6254 45.7077 21.7289C45.7093 21.7596 45.7093 21.7904 45.7077 21.8212C45.7076 22.0152 45.6362 22.2024 45.5072 22.3472C45.3781 22.492 45.2003 22.5843 45.0077 22.6066L44.2208 22.6949C44.0162 22.7107 43.8135 22.6466 43.6552 22.5159C43.4969 22.3853 43.3955 22.1983 43.3723 21.9944C43.3491 21.7905 43.4059 21.5856 43.5307 21.4228C43.6556 21.2599 43.8387 21.1518 44.0417 21.1212H44.0458ZM47.9784 20.6802L51.1242 20.3232C51.228 20.311 51.3332 20.3194 51.4337 20.348C51.5342 20.3766 51.628 20.4248 51.7098 20.4899C51.7915 20.555 51.8596 20.6357 51.91 20.7272C51.9604 20.8188 51.9921 20.9193 52.0034 21.0232C52.0051 21.054 52.0051 21.0849 52.0034 21.1157C52.0033 21.3096 51.932 21.4968 51.803 21.6416C51.6739 21.7864 51.4961 21.8787 51.3034 21.901L48.1577 22.2524C48.0521 22.2687 47.9443 22.2635 47.8409 22.237C47.7374 22.2106 47.6403 22.1635 47.5555 22.0986C47.4707 22.0337 47.3998 21.9523 47.3473 21.8593C47.2947 21.7664 47.2614 21.6637 47.2495 21.5575C47.2377 21.4514 47.2474 21.3439 47.278 21.2416C47.3087 21.1393 47.3598 21.0443 47.4281 20.9622C47.4964 20.8801 47.5807 20.8127 47.6757 20.764C47.7708 20.7153 47.8747 20.6864 47.9813 20.6789L47.9784 20.6802ZM54.2701 19.9718C54.3738 19.9596 54.479 19.968 54.5795 19.9966C54.68 20.0252 54.7738 20.0735 54.8556 20.1386C54.9373 20.2036 55.0054 20.2842 55.0558 20.3758C55.1062 20.4673 55.1379 20.568 55.1492 20.6718C55.1509 20.7026 55.1509 20.7334 55.1492 20.7642C55.1492 20.9582 55.0778 21.1454 54.9487 21.2902C54.8197 21.435 54.6419 21.5274 54.4492 21.5497L53.6625 21.6379C53.4575 21.6536 53.2545 21.5893 53.096 21.4584C52.9375 21.3275 52.836 21.1403 52.8128 20.9361C52.7896 20.7318 52.8465 20.5266 52.9715 20.3635C53.0966 20.2003 53.28 20.092 53.4832 20.0614L54.2701 19.9718ZM19.6424 32.2932C19.6657 32.0846 19.7707 31.8938 19.9345 31.7626C20.0982 31.6313 20.3074 31.5704 20.516 31.5932L22.8793 31.862C23.0722 31.8844 23.2501 31.9769 23.3792 32.122C23.5083 32.2671 23.5795 32.4546 23.5793 32.6488C23.5812 32.6782 23.5812 32.7077 23.5793 32.737C23.5564 32.9452 23.4518 33.1358 23.2886 33.2671C23.1253 33.3983 22.9167 33.4594 22.7084 33.437L20.3453 33.1725C20.1364 33.1493 19.9453 33.044 19.8141 32.8799C19.6828 32.7158 19.6221 32.5063 19.6453 32.2975L19.6424 32.2932ZM25.1473 32.9107C25.1586 32.8072 25.1902 32.7069 25.2403 32.6157C25.2905 32.5245 25.3581 32.444 25.4394 32.379C25.5207 32.314 25.614 32.2656 25.714 32.2367C25.8141 32.2078 25.9188 32.199 26.0223 32.2107L26.8118 32.303C27.0046 32.3257 27.1824 32.4183 27.3115 32.5633C27.4405 32.7083 27.5118 32.8957 27.5118 33.0898C27.5134 33.1192 27.5134 33.1486 27.5118 33.178C27.4889 33.3862 27.3844 33.5768 27.2212 33.7081C27.0579 33.8393 26.8493 33.9004 26.641 33.878L25.8543 33.7898C25.6454 33.7666 25.4543 33.6614 25.3231 33.4973C25.1918 33.3332 25.1311 33.1237 25.1543 32.9148L25.1473 32.9107ZM29.0798 33.353C29.1027 33.1448 29.2073 32.9542 29.3705 32.823C29.5338 32.6918 29.7424 32.6306 29.9507 32.653L33.0992 33.01C33.2922 33.0324 33.4701 33.1249 33.5992 33.27C33.7283 33.4151 33.7995 33.6026 33.7992 33.7968C33.8008 33.8262 33.8008 33.8557 33.7992 33.885C33.7879 33.9885 33.7563 34.0888 33.7061 34.18C33.656 34.2712 33.5884 34.3517 33.5071 34.4167C33.4258 34.4817 33.3325 34.5301 33.2325 34.559C33.1324 34.5879 33.0277 34.5967 32.9242 34.585L29.7771 34.2267C29.5688 34.2031 29.3785 34.0979 29.2477 33.9341C29.117 33.7703 29.0566 33.5613 29.0798 33.353ZM35.4597 33.2718L36.2492 33.3642C36.4422 33.3866 36.6201 33.4791 36.7492 33.6242C36.8783 33.7693 36.9495 33.9568 36.9492 34.151C36.9508 34.1804 36.9508 34.2098 36.9492 34.2392C36.9379 34.3427 36.9063 34.443 36.8561 34.5342C36.806 34.6254 36.7384 34.7059 36.6571 34.7709C36.5758 34.8359 36.4825 34.8843 36.3825 34.9132C36.2824 34.942 36.1777 34.9509 36.0742 34.9392L35.2875 34.851C35.0781 34.8282 34.8863 34.7231 34.7544 34.5589C34.6224 34.3947 34.5611 34.1848 34.584 33.9754C34.6068 33.7659 34.7119 33.5742 34.8761 33.4422C35.0403 33.3103 35.2502 33.249 35.4597 33.2718ZM37.8424 34.5416C37.8657 34.333 37.9707 34.1422 38.1345 34.011C38.2982 33.8798 38.5074 33.8188 38.716 33.8416L41.0793 34.1104C41.2722 34.1328 41.4501 34.2253 41.5792 34.3704C41.7083 34.5155 41.7795 34.7031 41.7793 34.8973C41.7812 34.9266 41.7812 34.9561 41.7793 34.9854C41.7564 35.1936 41.6518 35.3843 41.4886 35.5155C41.3253 35.6467 41.1167 35.7078 40.9084 35.6854L38.5453 35.4208C38.3364 35.3976 38.1453 35.2924 38.0141 35.1283C37.8828 34.9642 37.8221 34.7547 37.8453 34.5458L37.8424 34.5416ZM43.3473 35.159C43.3586 35.0555 43.3902 34.9553 43.4404 34.8641C43.4905 34.7729 43.5581 34.6924 43.6394 34.6274C43.7207 34.5624 43.814 34.514 43.914 34.4851C44.0141 34.4563 44.1188 34.4473 44.2223 34.459L45.0118 34.5515C45.2046 34.5741 45.3824 34.6667 45.5115 34.8117C45.6405 34.9568 45.7118 35.1441 45.7118 35.3383C45.7134 35.3676 45.7134 35.3971 45.7118 35.4265C45.689 35.6346 45.5844 35.8253 45.4212 35.9565C45.2579 36.0877 45.0493 36.1488 44.841 36.1264L44.0543 36.0383C43.8454 36.015 43.6543 35.9098 43.5231 35.7457C43.3918 35.5816 43.3311 35.3721 43.3543 35.1633L43.3473 35.159ZM47.2798 35.6014C47.3027 35.3933 47.4073 35.2026 47.5705 35.0714C47.7338 34.9402 47.9424 34.8791 48.1507 34.9015L51.2992 35.2585C51.4922 35.2808 51.6701 35.3733 51.7992 35.5184C51.9283 35.6635 51.9995 35.8511 51.9992 36.0453C52.0008 36.0747 52.0008 36.1041 51.9992 36.1335C51.9879 36.2369 51.9563 36.3371 51.9061 36.4283C51.856 36.5196 51.7884 36.6001 51.7071 36.6651C51.6258 36.7302 51.5325 36.7785 51.4325 36.8074C51.3324 36.8363 51.2277 36.8451 51.1242 36.8335L47.9771 36.475C47.7688 36.4514 47.5785 36.3462 47.4478 36.1824C47.317 36.0186 47.2566 35.8097 47.2798 35.6014ZM53.6597 35.5203L54.4492 35.6126C54.6422 35.635 54.8201 35.7275 54.9492 35.8726C55.0783 36.0177 55.1495 36.2053 55.1492 36.3995C55.1508 36.4288 55.1508 36.4583 55.1492 36.4876C55.1379 36.5911 55.1063 36.6914 55.0561 36.7826C55.006 36.8738 54.9384 36.9543 54.8571 37.0193C54.7758 37.0843 54.6825 37.1327 54.5825 37.1616C54.4824 37.1905 54.3777 37.1993 54.2742 37.1876L53.4875 37.0995C53.3838 37.0882 53.2833 37.0565 53.1918 37.0064C53.1003 36.9563 53.0197 36.8886 52.9544 36.8073C52.889 36.726 52.8403 36.6325 52.8111 36.5324C52.7819 36.4323 52.7727 36.3274 52.784 36.2237C52.7953 36.12 52.8269 36.0196 52.877 35.9281C52.9272 35.8367 52.9948 35.756 53.0761 35.6907C53.1574 35.6253 53.2508 35.5766 53.3509 35.5474C53.451 35.5181 53.556 35.509 53.6597 35.5203ZM21.9623 28.6085C21.9623 28.8182 21.8789 29.0194 21.7306 29.1677C21.5822 29.3161 21.381 29.3995 21.1713 29.3995H20.3803C20.1705 29.3995 19.9693 29.3161 19.8209 29.1677C19.6726 29.0194 19.5893 28.8182 19.5893 28.6085C19.5893 28.3987 19.6726 28.1974 19.8209 28.0491C19.9693 27.9008 20.1705 27.8175 20.3803 27.8175H21.1713C21.2751 27.8175 21.378 27.8379 21.474 27.8776C21.5699 27.9174 21.6571 27.9757 21.7306 28.0491C21.804 28.1226 21.8623 28.2097 21.902 28.3057C21.9418 28.4017 21.9623 28.5046 21.9623 28.6085ZM27.5021 27.8175C27.7118 27.8175 27.913 27.9008 28.0614 28.0491C28.2097 28.1974 28.2931 28.3987 28.2931 28.6085C28.2931 28.8182 28.2097 29.0194 28.0614 29.1677C27.913 29.3161 27.7118 29.3995 27.5021 29.3995H24.3366C24.1269 29.3995 23.9257 29.3161 23.7773 29.1677C23.629 29.0194 23.5456 28.8182 23.5456 28.6085C23.5456 28.3987 23.629 28.1974 23.7773 28.0491C23.9257 27.9008 24.1269 27.8175 24.3366 27.8175H27.5021ZM36.2072 27.8175C36.417 27.8175 36.6182 27.9008 36.7666 28.0491C36.9149 28.1974 36.9982 28.3987 36.9982 28.6085C36.9982 28.8182 36.9149 29.0194 36.7666 29.1677C36.6182 29.3161 36.417 29.3995 36.2072 29.3995H33.8272C33.6174 29.3995 33.4163 29.3161 33.2679 29.1677C33.1196 29.0194 33.0363 28.8182 33.0363 28.6085C33.0363 28.3987 33.1196 28.1974 33.2679 28.0491C33.4163 27.9008 33.6174 27.8175 33.8272 27.8175H36.2072ZM30.6674 27.8175C30.8772 27.8175 31.0784 27.9008 31.2268 28.0491C31.3751 28.1974 31.4584 28.3987 31.4584 28.6085C31.4584 28.8182 31.3751 29.0194 31.2268 29.1677C31.0784 29.3161 30.8772 29.3995 30.6674 29.3995H29.8764C29.6667 29.3995 29.4655 29.3161 29.3171 29.1677C29.1688 29.0194 29.0854 28.8182 29.0854 28.6085C29.0854 28.3987 29.1688 28.1974 29.3171 28.0491C29.4655 27.9008 29.6667 27.8175 29.8764 27.8175H30.6674ZM40.1623 28.6085C40.1623 28.8182 40.0789 29.0194 39.9306 29.1677C39.7822 29.3161 39.581 29.3995 39.3713 29.3995H38.5803C38.3705 29.3995 38.1693 29.3161 38.0209 29.1677C37.8726 29.0194 37.7893 28.8182 37.7893 28.6085C37.7893 28.3987 37.8726 28.1974 38.0209 28.0491C38.1693 27.9008 38.3705 27.8175 38.5803 27.8175H39.3713C39.4751 27.8175 39.578 27.8379 39.674 27.8776C39.7699 27.9174 39.8571 27.9757 39.9306 28.0491C40.004 28.1226 40.0623 28.2097 40.102 28.3057C40.1418 28.4017 40.1623 28.5046 40.1623 28.6085ZM45.7021 27.8175C45.9118 27.8175 46.113 27.9008 46.2614 28.0491C46.4097 28.1974 46.4931 28.3987 46.4931 28.6085C46.4931 28.8182 46.4097 29.0194 46.2614 29.1677C46.113 29.3161 45.9118 29.3995 45.7021 29.3995H42.5366C42.3269 29.3995 42.1257 29.3161 41.9773 29.1677C41.829 29.0194 41.7456 28.8182 41.7456 28.6085C41.7456 28.3987 41.829 28.1974 41.9773 28.0491C42.1257 27.9008 42.3269 27.8175 42.5366 27.8175H45.7021ZM54.4072 27.8175C54.617 27.8175 54.8182 27.9008 54.9666 28.0491C55.1149 28.1974 55.1982 28.3987 55.1982 28.6085C55.1982 28.8182 55.1149 29.0194 54.9666 29.1677C54.8182 29.3161 54.617 29.3995 54.4072 29.3995H52.0272C51.8174 29.3995 51.6163 29.3161 51.4679 29.1677C51.3196 29.0194 51.2363 28.8182 51.2363 28.6085C51.2363 28.3987 51.3196 28.1974 51.4679 28.0491C51.6163 27.9008 51.8174 27.8175 52.0272 27.8175H54.4072ZM48.8674 27.8175C49.0772 27.8175 49.2784 27.9008 49.4268 28.0491C49.5751 28.1974 49.6585 28.3987 49.6585 28.6085C49.6585 28.8182 49.5751 29.0194 49.4268 29.1677C49.2784 29.3161 49.0772 29.3995 48.8674 29.3995H48.0764C47.8667 29.3995 47.6655 29.3161 47.5171 29.1677C47.3688 29.0194 47.2854 28.8182 47.2854 28.6085C47.2854 28.3987 47.3688 28.1974 47.5171 28.0491C47.6655 27.9008 47.8667 27.8175 48.0764 27.8175H48.8674ZM19.7643 20.8454C19.7226 20.6399 19.7642 20.4263 19.8799 20.2514C19.9957 20.0766 20.1762 19.9549 20.3817 19.9131L21.1572 19.7548C21.2592 19.734 21.3643 19.7335 21.4664 19.7534C21.5686 19.7732 21.6658 19.8129 21.7526 19.8704C21.8393 19.9279 21.9139 20.002 21.972 20.0883C22.03 20.1747 22.0705 20.2716 22.091 20.3736C22.101 20.4258 22.1062 20.4787 22.1065 20.5318C22.1063 20.714 22.0432 20.8905 21.9279 21.0316C21.8126 21.1726 21.6522 21.2696 21.4737 21.3061L20.698 21.4642C20.5961 21.4851 20.491 21.4856 20.3889 21.4658C20.2867 21.4459 20.1895 21.4061 20.1027 21.3486C20.016 21.2911 19.9415 21.2171 19.8834 21.1307C19.8253 21.0444 19.7848 20.9474 19.7643 20.8454ZM24.2582 19.1262L27.3606 18.492C27.4627 18.4714 27.5678 18.4711 27.67 18.4911C27.7721 18.5111 27.8693 18.5511 27.9561 18.6087C28.0428 18.6663 28.1173 18.7403 28.1754 18.8267C28.2334 18.9132 28.2739 19.0102 28.2944 19.1122C28.3049 19.1643 28.3101 19.2173 28.3099 19.2704C28.3094 19.4525 28.2462 19.6289 28.131 19.7699C28.0157 19.9109 27.8554 20.008 27.6771 20.0447L24.5747 20.6774C24.4721 20.7002 24.3661 20.7023 24.2628 20.6836C24.1594 20.665 24.0608 20.626 23.9727 20.5689C23.8846 20.5117 23.8088 20.4376 23.7496 20.3508C23.6904 20.264 23.6491 20.1663 23.6281 20.0634C23.6071 19.9606 23.6068 19.8545 23.6272 19.7515C23.6476 19.6485 23.6884 19.5505 23.747 19.4634C23.8057 19.3763 23.8811 19.3018 23.9689 19.2442C24.0566 19.1865 24.155 19.1469 24.2582 19.1276V19.1262ZM33.564 17.2335L35.8895 16.7574C35.9914 16.7366 36.0965 16.736 36.1986 16.7559C36.3008 16.7757 36.398 16.8155 36.4847 16.873C36.5715 16.9305 36.646 17.0046 36.7041 17.0909C36.7622 17.1773 36.8027 17.2742 36.8232 17.3762C36.834 17.4283 36.8391 17.4813 36.8386 17.5344C36.8384 17.7166 36.7754 17.8931 36.6601 18.0342C36.5448 18.1753 36.3843 18.2722 36.2058 18.3087L33.8791 18.7832C33.7765 18.806 33.6705 18.8081 33.5672 18.7895C33.4638 18.7708 33.3652 18.7318 33.2771 18.6746C33.189 18.6175 33.1132 18.5433 33.054 18.4566C32.9948 18.3698 32.9535 18.2722 32.9325 18.1693C32.9115 18.0664 32.9112 17.9603 32.9316 17.8573C32.952 17.7543 32.9928 17.6564 33.0514 17.5693C33.1101 17.4822 33.1855 17.4076 33.2733 17.3499C33.361 17.2923 33.4594 17.2527 33.5626 17.2335H33.564ZM29.6861 18.0216L30.4616 17.862C30.5635 17.8412 30.6685 17.8406 30.7705 17.8604C30.8726 17.8801 30.9698 17.9198 31.0565 17.9771C31.1433 18.0345 31.2179 18.1083 31.276 18.1945C31.3342 18.2807 31.3747 18.3775 31.3954 18.4794C31.406 18.5315 31.4111 18.5845 31.4109 18.6376C31.4107 18.8198 31.3476 18.9964 31.2323 19.1374C31.117 19.2785 30.9566 19.3754 30.7781 19.4118L30.0024 19.5701C29.8999 19.5928 29.7939 19.5949 29.6905 19.5763C29.5872 19.5577 29.4886 19.5186 29.4005 19.4615C29.3124 19.4043 29.2365 19.3302 29.1774 19.2434C29.1182 19.1566 29.077 19.0589 29.056 18.956C29.035 18.8531 29.0346 18.7472 29.0551 18.6441C29.0755 18.5411 29.1162 18.4432 29.1748 18.3561C29.2335 18.269 29.3089 18.1944 29.3966 18.1367C29.4844 18.0791 29.5828 18.0395 29.6861 18.0203V18.0216ZM37.9643 17.0052C37.9226 16.7997 37.9642 16.586 38.08 16.4112C38.1957 16.2363 38.3762 16.1146 38.5817 16.0728L39.3572 15.9146C39.4592 15.8938 39.5643 15.8933 39.6664 15.9131C39.7686 15.9329 39.8658 15.9728 39.9526 16.0302C40.0393 16.0877 40.1139 16.1618 40.172 16.2481C40.23 16.3345 40.2705 16.4314 40.291 16.5335C40.301 16.5856 40.3062 16.6385 40.3065 16.6916C40.3063 16.8738 40.2432 17.0504 40.1279 17.1914C40.0126 17.3325 39.8522 17.4294 39.6737 17.4658L38.898 17.624C38.7961 17.6449 38.691 17.6453 38.5889 17.6255C38.4867 17.6057 38.3895 17.5659 38.3027 17.5084C38.216 17.4509 38.1415 17.3769 38.0834 17.2905C38.0253 17.2042 37.9848 17.1072 37.9643 17.0052ZM42.4582 15.2861L45.5606 14.6519C45.6627 14.6312 45.7678 14.6309 45.87 14.6509C45.9721 14.6709 46.0693 14.7108 46.1561 14.7684C46.2428 14.826 46.3173 14.9002 46.3754 14.9866C46.4334 15.073 46.4739 15.17 46.4944 15.2721C46.5049 15.3241 46.5101 15.3771 46.5099 15.4302C46.5094 15.6123 46.4462 15.7888 46.331 15.9298C46.2157 16.0708 46.0554 16.1677 45.8771 16.2044L42.7747 16.8372C42.6721 16.86 42.5661 16.8621 42.4628 16.8435C42.3594 16.8248 42.2608 16.7858 42.1727 16.7286C42.0846 16.6715 42.0088 16.5974 41.9496 16.5106C41.8904 16.4239 41.8491 16.3262 41.8281 16.2233C41.8071 16.1204 41.8068 16.0143 41.8272 15.9113C41.8477 15.8083 41.8884 15.7104 41.947 15.6233C42.0057 15.5361 42.0811 15.4616 42.1689 15.4039C42.2566 15.3462 42.355 15.3067 42.4582 15.2874V15.2861ZM51.764 13.3932L54.0895 12.9172C54.1914 12.8964 54.2965 12.8959 54.3986 12.9157C54.5008 12.9355 54.598 12.9754 54.6847 13.0329C54.7715 13.0903 54.8461 13.1644 54.9041 13.2508C54.9622 13.3371 55.0027 13.4341 55.0233 13.5361C55.034 13.5881 55.0391 13.6411 55.0386 13.6942C55.0384 13.8764 54.9754 14.053 54.8601 14.194C54.7448 14.3351 54.5843 14.432 54.4058 14.4684L52.0791 14.943C51.9765 14.9658 51.8705 14.968 51.7672 14.9493C51.6638 14.9307 51.5652 14.8916 51.4771 14.8345C51.389 14.7773 51.3132 14.7032 51.254 14.6164C51.1948 14.5296 51.1535 14.4319 51.1325 14.329C51.1115 14.2261 51.1112 14.1202 51.1316 14.0171C51.152 13.9141 51.1928 13.8162 51.2514 13.7291C51.3101 13.642 51.3855 13.5674 51.4733 13.5098C51.561 13.4521 51.6594 13.4124 51.7626 13.3932H51.764ZM47.8861 14.1815L48.6616 14.0218C48.7635 14.001 48.8685 14.0004 48.9705 14.0201C49.0726 14.0399 49.1698 14.0796 49.2565 14.1369C49.3433 14.1943 49.4179 14.2681 49.476 14.3543C49.5342 14.4405 49.5747 14.5373 49.5954 14.6392C49.606 14.6913 49.6112 14.7443 49.6109 14.7975C49.6107 14.9797 49.5476 15.1561 49.4323 15.2972C49.317 15.4382 49.1566 15.5352 48.9781 15.5716L48.2024 15.7298C48.0999 15.7526 47.9939 15.7547 47.8905 15.736C47.7872 15.7174 47.6886 15.6784 47.6005 15.6213C47.5124 15.5641 47.4365 15.49 47.3774 15.4032C47.3182 15.3165 47.277 15.2187 47.256 15.1159C47.235 15.013 47.2347 14.9069 47.2551 14.8039C47.2755 14.7009 47.3162 14.6029 47.3748 14.5158C47.4335 14.4287 47.5089 14.3542 47.5966 14.2966C47.6844 14.2389 47.7828 14.1993 47.8861 14.18V14.1815ZM20.3803 37.2968C20.277 37.2776 20.1787 37.238 20.0909 37.1803C20.0031 37.1226 19.9277 37.0481 19.869 36.961C19.8104 36.8739 19.7697 36.776 19.7493 36.673C19.7288 36.57 19.7291 36.4639 19.7502 36.361C19.7712 36.2581 19.8125 36.1604 19.8716 36.0736C19.9308 35.9869 20.0066 35.9127 20.0947 35.8556C20.1828 35.7984 20.2814 35.7595 20.3847 35.7408C20.4881 35.7222 20.5941 35.7243 20.6966 35.7471L21.4723 35.9052C21.6508 35.9417 21.8112 36.0386 21.9265 36.1797C22.0418 36.3207 22.1049 36.4972 22.105 36.6794C22.1052 36.7348 22.1 36.7902 22.0897 36.8447C22.0691 36.9467 22.0286 37.0436 21.9705 37.13C21.9125 37.2163 21.8379 37.2903 21.7512 37.3478C21.6644 37.4053 21.5672 37.4451 21.465 37.4649C21.3629 37.4848 21.2578 37.4842 21.1558 37.4634L20.3803 37.2968ZM24.2582 38.0864C24.1564 38.0656 24.0596 38.025 23.9735 37.9669C23.8873 37.9087 23.8135 37.8341 23.7561 37.7474C23.6988 37.6607 23.6591 37.5636 23.6393 37.4615C23.6195 37.3595 23.6201 37.2545 23.6409 37.1526C23.6616 37.0508 23.7022 36.954 23.7604 36.8679C23.8186 36.7817 23.8932 36.7078 23.9799 36.6505C24.0666 36.5932 24.1638 36.5535 24.2658 36.5337C24.3679 36.5139 24.4728 36.5145 24.5747 36.5352L27.6771 37.168C27.8557 37.2047 28.0162 37.3019 28.1314 37.4432C28.2467 37.5845 28.3097 37.7613 28.3099 37.9436C28.3101 37.9967 28.3049 38.0498 28.2944 38.1019C28.2737 38.2038 28.2332 38.3006 28.175 38.3868C28.1169 38.4729 28.0423 38.5468 27.9555 38.6041C27.8688 38.6615 27.7716 38.7011 27.6695 38.7209C27.5675 38.7406 27.4625 38.7401 27.3606 38.7192L24.2582 38.0864ZM33.8791 38.428L36.2058 38.9026C36.3843 38.939 36.5448 39.036 36.6601 39.1771C36.7754 39.3181 36.8384 39.4947 36.8386 39.6769C36.8391 39.73 36.8339 39.783 36.8232 39.835C36.7814 40.0405 36.6597 40.221 36.4849 40.3368C36.31 40.4526 36.0964 40.4941 35.8909 40.4524L33.564 39.9778C33.4622 39.957 33.3654 39.9164 33.2793 39.8583C33.1931 39.8001 33.1193 39.7256 33.0619 39.6388C33.0046 39.5521 32.9649 39.4549 32.9451 39.3528C32.9254 39.2508 32.9259 39.1459 32.9466 39.044C32.9674 38.9422 33.008 38.8454 33.0662 38.7592C33.1244 38.6731 33.199 38.5993 33.2857 38.5419C33.3724 38.4846 33.4696 38.4449 33.5716 38.4251C33.6737 38.4053 33.7786 38.4059 33.8805 38.4267L33.8791 38.428ZM29.6875 39.1896C29.5856 39.1689 29.4888 39.1283 29.4027 39.0701C29.3165 39.0119 29.2427 38.9373 29.1854 38.8506C29.128 38.7639 29.0883 38.6667 29.0686 38.5647C29.0488 38.4626 29.0493 38.3577 29.0701 38.2558C29.0908 38.154 29.1315 38.0572 29.1896 37.971C29.2478 37.8849 29.3224 37.8111 29.4091 37.7537C29.4958 37.6964 29.5929 37.6567 29.695 37.6369C29.797 37.6172 29.902 37.6176 30.0038 37.6384L30.7795 37.7966C30.9582 37.8331 31.1188 37.9303 31.2341 38.0716C31.3495 38.213 31.4124 38.3898 31.4123 38.5723C31.4127 38.6254 31.4075 38.6784 31.3968 38.7304C31.355 38.9359 31.2333 39.1164 31.0585 39.2322C30.8836 39.348 30.67 39.3895 30.4645 39.3478L29.6875 39.1896ZM38.5803 41.4968C38.477 41.4776 38.3787 41.438 38.2909 41.3803C38.2031 41.3226 38.1277 41.2481 38.069 41.161C38.0104 41.0739 37.9697 40.976 37.9493 40.873C37.9288 40.77 37.9291 40.6639 37.9502 40.561C37.9712 40.4581 38.0125 40.3604 38.0716 40.2736C38.1308 40.1869 38.2066 40.1127 38.2947 40.0556C38.3828 39.9984 38.4814 39.9595 38.5847 39.9408C38.6881 39.9222 38.7941 39.9243 38.8966 39.9471L39.6723 40.1052C39.8508 40.1417 40.0112 40.2386 40.1265 40.3797C40.2418 40.5207 40.3049 40.6972 40.305 40.8794C40.3052 40.9348 40.3 40.9902 40.2897 41.0447C40.2691 41.1467 40.2286 41.2436 40.1706 41.33C40.1125 41.4163 40.0379 41.4903 39.9512 41.5478C39.8644 41.6053 39.7672 41.6451 39.665 41.6649C39.5629 41.6848 39.4578 41.6842 39.3558 41.6634L38.5803 41.4968ZM42.4582 42.2864C42.3564 42.2656 42.2596 42.225 42.1735 42.1669C42.0873 42.1087 42.0135 42.0341 41.9561 41.9474C41.8988 41.8607 41.8591 41.7636 41.8393 41.6615C41.8195 41.5595 41.8201 41.4545 41.8409 41.3526C41.8616 41.2508 41.9022 41.154 41.9604 41.0679C42.0186 40.9817 42.0932 40.9078 42.1799 40.8505C42.2666 40.7932 42.3638 40.7535 42.4658 40.7337C42.5679 40.7139 42.6728 40.7145 42.7747 40.7352L45.8771 41.368C46.0557 41.4047 46.2162 41.5019 46.3314 41.6432C46.4467 41.7845 46.5097 41.9613 46.5099 42.1436C46.5101 42.1967 46.5049 42.2498 46.4944 42.3019C46.4737 42.4038 46.4332 42.5006 46.375 42.5868C46.3169 42.6729 46.2423 42.7468 46.1555 42.8041C46.0688 42.8615 45.9716 42.9011 45.8695 42.9209C45.7675 42.9406 45.6625 42.9401 45.5606 42.9192L42.4582 42.2864ZM52.0791 42.628L54.4058 43.1026C54.5843 43.139 54.7448 43.236 54.8601 43.3771C54.9754 43.5181 55.0384 43.6947 55.0386 43.8769C55.0391 43.93 55.034 43.983 55.0233 44.035C54.9814 44.2405 54.8597 44.421 54.6849 44.5368C54.51 44.6526 54.2964 44.6941 54.0909 44.6524L51.764 44.1778C51.6622 44.157 51.5654 44.1164 51.4793 44.0583C51.3931 44.0001 51.3193 43.9256 51.2619 43.8388C51.2046 43.7521 51.1649 43.6549 51.1451 43.5528C51.1254 43.4508 51.1259 43.3459 51.1466 43.244C51.1674 43.1422 51.208 43.0454 51.2662 42.9592C51.3244 42.8731 51.399 42.7993 51.4857 42.7419C51.5724 42.6846 51.6696 42.6449 51.7716 42.6251C51.8737 42.6053 51.9786 42.6059 52.0805 42.6267L52.0791 42.628ZM47.8875 43.3896C47.7856 43.3689 47.6888 43.3283 47.6027 43.2701C47.5165 43.2119 47.4427 43.1373 47.3854 43.0506C47.328 42.9639 47.2883 42.8667 47.2686 42.7647C47.2488 42.6626 47.2493 42.5577 47.2701 42.4558C47.2908 42.354 47.3315 42.2572 47.3896 42.171C47.4478 42.0849 47.5224 42.0111 47.6091 41.9537C47.6958 41.8964 47.7929 41.8567 47.895 41.8369C47.997 41.8172 48.102 41.8176 48.2038 41.8384L48.9795 41.9966C49.1582 42.0331 49.3188 42.1303 49.4341 42.2716C49.5495 42.413 49.6124 42.5898 49.6123 42.7723C49.6127 42.8254 49.6075 42.8784 49.5968 42.9304C49.555 43.1359 49.4333 43.3164 49.2585 43.4322C49.0836 43.548 48.87 43.5895 48.6645 43.5478L47.8875 43.3896ZM15.6315 46.8155C15.6328 47.128 15.7267 47.4331 15.9013 47.6923C16.076 47.9515 16.3234 48.1532 16.6125 48.2719C16.9017 48.3906 17.2194 48.421 17.5258 48.3593C17.8322 48.2976 18.1134 48.1465 18.334 47.9251C18.5546 47.7037 18.7048 47.422 18.7654 47.1154C18.826 46.8088 18.7945 46.4911 18.6747 46.2024C18.555 45.9137 18.3525 45.6669 18.0927 45.4932C17.8328 45.3195 17.5274 45.2267 17.2148 45.2265C17.0064 45.2264 16.8001 45.2676 16.6076 45.3475C16.4152 45.4275 16.2403 45.5445 16.0932 45.6922C15.9461 45.8398 15.8296 46.015 15.7504 46.2077C15.6711 46.4005 15.6307 46.6071 15.6315 46.8155ZM19.6844 44.8554C19.9544 45.1941 20.1512 45.585 20.2626 46.0034C20.3014 46.0113 20.3407 46.0164 20.3803 46.0188C20.5845 46.0102 20.7775 45.9231 20.9189 45.7755C21.0604 45.628 21.1393 45.4315 21.1393 45.2271C21.1393 45.0227 21.0604 44.8263 20.9189 44.6787C20.7775 44.5312 20.5845 44.444 20.3803 44.4354C20.2373 44.437 20.0974 44.4768 19.9751 44.5506C19.8527 44.6245 19.7524 44.7297 19.6844 44.8554ZM30.799 48.2267C31.0535 48.2267 31.3023 48.1512 31.5139 48.0098C31.7254 47.8684 31.8903 47.6675 31.9877 47.4324C32.0851 47.1973 32.1106 46.9386 32.0609 46.689C32.0113 46.4394 31.8887 46.2102 31.7088 46.0303C31.5289 45.8503 31.2996 45.7278 31.05 45.6781C30.8005 45.6285 30.5418 45.654 30.3067 45.7514C30.0716 45.8487 29.8707 46.0137 29.7293 46.2253C29.5879 46.4368 29.5125 46.6856 29.5125 46.94C29.5125 47.2813 29.648 47.6085 29.8893 47.8498C30.1306 48.0911 30.4578 48.2267 30.799 48.2267ZM11.675 14.5776C11.675 14.3071 11.5948 14.0426 11.4445 13.8177C11.2942 13.5928 11.0806 13.4175 10.8307 13.314C10.5807 13.2105 10.3057 13.1834 10.0404 13.2361C9.77506 13.2889 9.53138 13.4191 9.34009 13.6104C9.1488 13.8017 9.01851 14.0454 8.96573 14.3108C8.91296 14.5761 8.94005 14.8511 9.04358 15.1011C9.1471 15.351 9.32241 15.5646 9.54734 15.7149C9.77228 15.8652 10.0367 15.9454 10.3072 15.9454C10.67 15.9454 11.0179 15.8013 11.2744 15.5448C11.531 15.2883 11.675 14.9404 11.675 14.5776ZM19.4674 9.01264C19.3583 8.74716 19.1791 8.51634 18.9489 8.34486C18.7187 8.17338 18.4462 8.0677 18.1606 8.03912C17.875 8.01054 17.587 8.06012 17.3274 8.18259C17.0678 8.30506 16.8464 8.49574 16.6868 8.73434C16.5272 8.97293 16.4355 9.25044 16.4214 9.53713C16.4074 9.82383 16.4715 10.109 16.607 10.3621C16.7425 10.6151 16.9443 10.8265 17.1906 10.9738C17.437 11.121 17.7188 11.1985 18.0058 11.198C18.0079 10.7304 18.1476 10.2738 18.4075 9.88517C18.6674 9.49651 19.0361 9.19307 19.4674 9.01264ZM21.1713 11.198C21.1713 11.0416 21.1249 10.8886 21.038 10.7585C20.951 10.6285 20.8275 10.5271 20.683 10.4672C20.5384 10.4074 20.3794 10.3917 20.2259 10.4222C20.0725 10.4527 19.9316 10.5281 19.8209 10.6387C19.7103 10.7494 19.635 10.8902 19.6045 11.0437C19.5739 11.1971 19.5896 11.3562 19.6495 11.5008C19.7093 11.6453 19.8107 11.7688 19.9408 11.8557C20.0709 11.9426 20.2238 11.989 20.3803 11.989C20.59 11.989 20.7912 11.9057 20.9396 11.7574C21.0879 11.609 21.1713 11.4078 21.1713 11.198ZM29.0854 11.198C29.0854 11.5108 29.1782 11.8166 29.352 12.0768C29.5257 12.3369 29.7727 12.5397 30.0617 12.6594C30.3507 12.7792 30.6687 12.8107 30.9756 12.7498C31.2824 12.6888 31.5643 12.5382 31.7856 12.3171C32.0069 12.096 32.1577 11.8143 32.2189 11.5075C32.2801 11.2007 32.249 10.8827 32.1294 10.5936C32.0099 10.3045 31.8074 10.0573 31.5474 9.88329C31.2874 9.70928 30.9817 9.61628 30.6689 9.616C30.2492 9.616 29.8466 9.78266 29.5497 10.0793C29.2528 10.3759 29.0858 10.7783 29.0854 11.198Z" fill="#2F54EB"/>
</g>
<defs>
<clipPath id="clip0_3773_210411">
<rect width="100.8" height="56" fill="white" transform="translate(0.599609 0.791016)"/>
</clipPath>
</defs>
</svg>
