<svg xmlns="http://www.w3.org/2000/svg" width="56" height="56" fill="none" viewBox="0 0 56 56"><g clip-path="url(#a)"><path fill="#fff" d="M56 0H0v56h56V0Z"/><path fill="#FA8C16" fill-rule="evenodd" d="M12.6 1.4h19.6a4.2 4.2 0 0 1 4.2 4.2v11.283h-2.8V5.6a1.4 1.4 0 0 0-1.4-1.4H12.6a1.4 1.4 0 0 0-1.4 1.4v47.6H8.4V5.6a4.2 4.2 0 0 1 4.2-4.2ZM36.565 32.447v5.93h-2.8v-5.93h2.8ZM42.33 26.518v5.929h-2.8v-5.93h2.8Z" clip-rule="evenodd"/><path fill="#FA8C16" fill-rule="evenodd" d="M18.364 42.824v5.929h-2.8v-5.93h2.8Z" clip-rule="evenodd"/><path fill="#FA8C16" fill-rule="evenodd" d="M16.964 47.188H11.2v-2.8h5.764v2.8ZM30.8 26.518v5.929H28v-5.93h2.8ZM22.4 20.588a4.365 4.365 0 0 1 4.365-4.365h16.47a4.365 4.365 0 1 1 0 8.73h-16.47a4.365 4.365 0 0 1-4.365-4.365Zm4.365-1.565a1.565 1.565 0 1 0 0 3.13h16.47a1.565 1.565 0 1 0 0-3.13h-16.47Z" clip-rule="evenodd"/><path fill="#FA8C16" d="M45 18H25v5h20v-5Z"/></g><defs><clipPath id="a"><path fill="#fff" d="M0 0h56v56H0z"/></clipPath></defs></svg>