<svg width="56" height="57" viewBox="0 0 56 57" fill="none" xmlns="http://www.w3.org/2000/svg">
<g clip-path="url(#clip0_3773_210330)">
<path d="M0.549114 56.7911C0.403481 56.7911 0.263812 56.7332 0.160834 56.6302C0.0578557 56.5273 3.09053e-06 56.3876 3.09053e-06 56.2419L3.09053e-06 15.0399C-0.00198679 12.0188 0.956981 9.07527 2.73824 6.63506C4.51949 4.19485 7.03071 2.38443 9.90876 1.46557C12.7868 0.546719 15.8825 0.567064 18.7483 1.52366C21.614 2.48027 24.1012 4.32354 25.8502 6.78695L25.8191 6.80484C20.79 9.65073 20.811 9.61028 20.0962 10.1345C19.091 8.92534 17.7371 8.05588 16.2193 7.6448C14.7015 7.23373 13.0939 7.30109 11.6158 7.83768C10.1377 8.37427 8.8613 9.35394 7.96072 10.643C7.06014 11.932 6.57932 13.4675 6.58389 15.0399L6.58389 56.2419C6.58389 56.3874 6.52615 56.527 6.42334 56.63C6.32053 56.7329 6.18106 56.7909 6.03556 56.7911H0.549114ZM29.7469 47.8085L29.5136 46.2265C29.4824 46.0126 29.4936 45.7946 29.5466 45.585C29.5997 45.3754 29.6935 45.1783 29.8227 45.005C30.0836 44.6549 30.4729 44.4229 30.905 44.3598C31.3371 44.2968 31.7764 44.408 32.1265 44.669C32.4766 44.9299 32.7086 45.3192 32.7717 45.7513L33.005 47.3333C33.0362 47.5472 33.025 47.7652 32.9719 47.9748C32.9189 48.1844 32.8251 48.3815 32.6959 48.5548C32.5667 48.7281 32.4046 48.8743 32.2189 48.985C32.0332 49.0957 31.8275 49.1687 31.6136 49.1999C31.3996 49.2312 31.1816 49.2199 30.9721 49.1669C30.7625 49.1138 30.5654 49.02 30.392 48.8908C30.2187 48.7616 30.0725 48.5995 29.9618 48.4138C29.8511 48.2281 29.7781 48.0224 29.7469 47.8085ZM37.5091 43.8869L36.9444 42.4924C36.8634 42.292 36.8226 42.0776 36.8244 41.8614C36.8262 41.6453 36.8706 41.4316 36.955 41.2326C37.1254 40.8307 37.4486 40.5129 37.8533 40.3492C38.258 40.1855 38.7112 40.1893 39.1131 40.3598C39.515 40.5302 39.8328 40.8533 39.9964 41.2581L40.5603 42.6526C40.6414 42.8531 40.6823 43.0675 40.6805 43.2837C40.6787 43.5 40.6343 43.7137 40.5499 43.9128C40.4655 44.1119 40.3428 44.2924 40.1886 44.444C40.0345 44.5957 39.8519 44.7155 39.6515 44.7966C39.4511 44.8777 39.2366 44.9185 39.0204 44.9167C38.8041 44.9149 38.5904 44.8706 38.3913 44.7862C38.1922 44.7018 38.0117 44.579 37.8601 44.4248C37.7084 44.2707 37.5887 44.0882 37.5076 43.8877L37.5091 43.8869ZM45.3732 39.9498L44.4764 38.7466C44.216 38.3959 44.1056 37.9562 44.1694 37.5241C44.2332 37.0919 44.466 36.7029 44.8167 36.4424C45.1674 36.182 45.6072 36.0716 46.0393 36.1354C46.4714 36.1992 46.8605 36.4321 47.1209 36.7827L48.0177 37.9906C48.1466 38.1642 48.2401 38.3616 48.2928 38.5714C48.3455 38.7811 48.3563 38.9992 48.3247 39.2132C48.2931 39.4271 48.2197 39.6328 48.1086 39.8184C47.9976 40.0039 47.851 40.1658 47.6774 40.2948C47.5038 40.4237 47.3064 40.5172 47.0967 40.5699C46.8869 40.6226 46.6688 40.6334 46.4548 40.6018C46.2409 40.5703 46.0352 40.4968 45.8496 40.3857C45.6641 40.2747 45.5022 40.1281 45.3732 39.9545V39.9498ZM29.0764 38.0466L28.8221 36.5214C28.7864 36.3082 28.793 36.09 28.8415 35.8793C28.8901 35.6687 28.9797 35.4696 29.1052 35.2936C29.2307 35.1175 29.3896 34.9679 29.5729 34.8533C29.7562 34.7387 29.9603 34.6613 30.1735 34.6256C30.3867 34.5898 30.6049 34.5964 30.8156 34.645C31.0262 34.6935 31.2253 34.7831 31.4013 34.9086C31.5773 35.0341 31.7269 35.193 31.8416 35.3763C31.9562 35.5596 32.0336 35.7637 32.0693 35.9769L32.3244 37.5022C32.3966 37.9329 32.2948 38.3746 32.0413 38.7302C31.7878 39.0858 31.4034 39.3262 30.9727 39.3984C30.542 39.4706 30.1002 39.3687 29.7446 39.1152C29.389 38.8617 29.1486 38.4773 29.0764 38.0466ZM53.3019 35.9381L52.073 34.9168C51.7514 34.634 51.5527 34.237 51.519 33.81C51.4854 33.3831 51.6193 32.9598 51.8926 32.6301C52.1658 32.3003 52.5567 32.0899 52.9825 32.0436C53.4082 31.9973 53.8353 32.1187 54.173 32.3821L55.4019 33.4025C55.5778 33.5373 55.7248 33.7061 55.8339 33.899C55.9431 34.0919 56.0122 34.3048 56.0371 34.525C56.0621 34.7452 56.0423 34.9682 55.9791 35.1806C55.9158 35.393 55.8103 35.5904 55.669 35.7611C55.5276 35.9318 55.3533 36.0722 55.1564 36.1739C54.9595 36.2756 54.7441 36.3366 54.5231 36.3531C54.3021 36.3696 54.08 36.3414 53.8702 36.2701C53.6603 36.1987 53.4671 36.0858 53.3019 35.9381ZM37.079 34.1919L36.3673 32.9226C36.1535 32.5418 36.0997 32.0917 36.2178 31.6712C36.3359 31.2508 36.6162 30.8945 36.9969 30.6807C37.3777 30.4669 37.8279 30.4131 38.2483 30.5312C38.6688 30.6492 39.0251 30.9295 39.2389 31.3103L39.9498 32.5788C40.0583 32.7675 40.1283 32.9758 40.1558 33.1916C40.1833 33.4075 40.1678 33.6267 40.1101 33.8365C40.0523 34.0463 39.9536 34.2426 39.8195 34.414C39.6855 34.5855 39.5188 34.7286 39.3291 34.8352C39.1393 34.9418 38.9304 35.0098 38.7142 35.0351C38.4981 35.0605 38.2791 35.0427 38.0699 34.9829C37.8606 34.9231 37.6653 34.8224 37.4953 34.6866C37.3252 34.5509 37.1837 34.3827 37.079 34.1919ZM20.1507 31.4752L19.4242 30.1911C19.2086 29.8081 19.1535 29.3553 19.271 28.9319C19.3885 28.5084 19.669 28.1487 20.0511 27.9316C20.4937 27.6812 41.3474 15.8761 42.2956 15.3417C42.6782 15.1269 43.1304 15.0723 43.5531 15.1901C43.9759 15.3079 44.3347 15.5884 44.5511 15.9702L45.2776 17.2551C45.5691 17.7705 45.6439 18.3805 45.4857 18.9511C45.3274 19.5217 44.949 20.0061 44.4337 20.2977L23.1918 32.3206C22.9367 32.465 22.6556 32.5577 22.3647 32.5933C22.0737 32.629 21.7786 32.607 21.4962 32.5286C21.2137 32.4501 20.9495 32.3168 20.7187 32.1362C20.4878 31.9555 20.2948 31.7312 20.1507 31.4759V31.4752ZM45.2511 30.2424L44.0844 29.2313C43.7707 28.9412 43.582 28.5405 43.5582 28.1138C43.5345 27.6872 43.6775 27.268 43.9571 26.9449C44.2367 26.6217 44.631 26.4199 45.0567 26.3822C45.4823 26.3444 45.906 26.4736 46.2381 26.7424L47.4048 27.7535C47.5764 27.8924 47.7183 28.0644 47.8221 28.2593C47.9259 28.4541 47.9895 28.6679 48.009 28.8878C48.0285 29.1077 48.0036 29.3293 47.9358 29.5394C47.8679 29.7495 47.7585 29.9438 47.614 30.1108C47.4695 30.2778 47.293 30.414 47.0948 30.5113C46.8966 30.6086 46.6809 30.6651 46.4605 30.6774C46.24 30.6897 46.0193 30.6575 45.8116 30.5828C45.6038 30.508 45.4132 30.3923 45.2511 30.2424ZM19.8629 23.0285C18.9477 21.4102 18.6327 19.5209 18.9733 17.6932C19.3139 15.8655 20.2883 14.2165 21.7249 13.0364C22.4132 12.4733 22.4918 12.4709 27.4392 9.67173C28.3408 9.16089 29.3343 8.83288 30.3628 8.70645C31.3913 8.58002 32.4347 8.65766 33.4331 8.93493C34.4316 9.21219 35.3656 9.68365 36.1816 10.3223C36.9977 10.961 37.6798 11.7543 38.1889 12.6568L38.7123 13.584L20.3879 23.9564L19.8629 23.0285Z" fill="#FA8C16"/>
</g>
<defs>
<clipPath id="clip0_3773_210330">
<rect width="56" height="56" fill="white" transform="translate(0 0.791016)"/>
</clipPath>
</defs>
</svg>
