<svg width="50" height="57" viewBox="0 0 50 57" fill="none" xmlns="http://www.w3.org/2000/svg">
<g clip-path="url(#clip0_3773_210370)">
<path d="M18.3634 10.8539C17.4891 10.8514 16.6492 11.195 16.0274 11.8097C15.4056 12.4244 15.0523 13.2602 15.0447 14.1346H21.6814C21.6738 13.2604 21.3206 12.4247 20.699 11.81C20.0773 11.1953 19.2377 10.8516 18.3634 10.8539ZM20.0224 0.791016V7.8019C21.438 8.15406 22.6958 8.96783 23.5973 10.1146C24.4987 11.2614 24.9924 12.6759 25.0002 14.1346V17.416H11.7259V14.1346C11.7337 12.6759 12.2274 11.2614 13.1288 10.1146C14.0303 8.96783 15.2881 8.15406 16.7037 7.8019V0.791016H0.111328V46.9475H33.2968V0.791016H20.0224ZM16.7037 20.6975H20.0224V23.9789H16.7037V20.6975ZM10.0669 20.6975H13.3857V23.9789H10.0669V20.6975ZM13.3857 27.2604H16.7044V30.541H13.3857V27.2604ZM20.0224 37.1039H16.7037V33.8225H20.0224V37.1039ZM23.3412 30.5418H20.0224V27.2596H23.3412V30.5418ZM26.66 23.9797H23.3412V20.6975H26.66V23.9797ZM18.3634 10.8539C17.4891 10.8514 16.6492 11.195 16.0274 11.8097C15.4056 12.4244 15.0523 13.2602 15.0447 14.1346H21.6814C21.6738 13.2604 21.3206 12.4247 20.699 11.81C20.0773 11.1953 19.2377 10.8516 18.3634 10.8539ZM36.6148 0.791016V46.9475H49.8891V0.791016H36.6148ZM43.2516 30.541H39.9336V20.6975H43.2523L43.2516 30.541ZM0.111328 50.2289V56.791H49.8891V50.2289H0.111328Z" fill="#FA8C16"/>
</g>
<defs>
<clipPath id="clip0_3773_210370">
<rect width="49.7778" height="56" fill="white" transform="translate(0.111328 0.791016)"/>
</clipPath>
</defs>
</svg>
