<svg xmlns="http://www.w3.org/2000/svg" width="56" height="56" fill="none"><path fill="#FA8C16" fill-rule="evenodd" d="M46.7 26.4v22a3.6 3.6 0 0 1-3.6 3.7H13.3a3.6 3.6 0 0 1-3.7-3.6V26L6 28.9l-3.7-5 1-.8 9.4-7.2V7.4c0-1.4 0-2.1.6-2.8.5-.7 1.2-.7 2.4-.7h.5c1.2 0 1.7 0 2.3.7.5.5.5 1.2.3 2.4v4.7L28 5.1c8.7 6 17.3 12.7 25.7 19L50 29l-3.3-2.7Zm-2.8-2L28 12.7 12.4 24.2v24.6a.9.9 0 0 0 .3.7c.2.2.5.3.7.3h29.7a.9.9 0 0 0 .7-.3c.2-.2.3-.4.3-.7-.3-.2-.3-24.4-.2-24.4Z" clip-rule="evenodd"/><path fill="#FA8C16" fill-rule="evenodd" d="M21.5 33.2c0-1.4 1.2-2.6 2.6-2.6h9.1c1.4 0 2.6 1.2 2.6 2.6v16.9h-2.6V33.2h-9.1v16.9h-2.6V33.2Z" clip-rule="evenodd"/></svg>