<svg xmlns="http://www.w3.org/2000/svg" width="56" height="56" fill="none" viewBox="0 0 56 56"><path stroke="#FA8C16" stroke-width="2.8" d="M54.6 28C54.6 13.31 42.69 1.4 28 1.4 13.31 1.4 1.4 13.31 1.4 28c0 14.69 11.91 26.6 26.6 26.6 14.69 0 26.6-11.91 26.6-26.6Z"/><path fill="#FA8C16" d="M20.626 36.269c-1.09 0-2.173-.142-3.248-.426-1.076-.299-1.986-.717-2.733-1.254l1.411-2.778a7.337 7.337 0 0 0 2.083 1.03c.792.255 1.59.381 2.397.381.91 0 1.628-.179 2.15-.537.523-.359.784-.851.784-1.479 0-.597-.231-1.067-.694-1.41-.463-.344-1.21-.516-2.24-.516h-1.658v-2.397l4.368-4.95.404 1.299h-8.221V20.32h10.976v2.352l-4.346 4.95-1.837-1.052h1.053c1.927 0 3.383.433 4.368 1.299.986.866 1.479 1.979 1.479 3.337 0 .881-.232 1.71-.695 2.487-.463.761-1.172 1.381-2.128 1.859-.956.478-2.18.717-3.673.717Zm12.561-2.935V22.986h2.89v10.348h-2.89Zm-3.875-3.808v-2.732h10.663v2.732H29.312Z"/></svg>