<svg xmlns="http://www.w3.org/2000/svg" width="56" height="56" fill="none" viewBox="0 0 56 56"><g clip-path="url(#a)"><path fill="#fff" d="M56 0H0v56h56V0Z"/><path fill="#FA8C16" fill-rule="evenodd" d="M47.6 5.6H8.4v44.8h39.2V5.6ZM8.4 2.8a2.8 2.8 0 0 0-2.8 2.8v44.8a2.8 2.8 0 0 0 2.8 2.8h39.2a2.8 2.8 0 0 0 2.8-2.8V5.6a2.8 2.8 0 0 0-2.8-2.8H8.4Z" clip-rule="evenodd"/><path fill="#FA8C16" fill-rule="evenodd" d="M39.2 37.8v-5.6H42v5.6h-2.8ZM28 37.8v-5.6h2.8v5.6H28ZM33.6 50.4V5.6h2.8v44.8h-2.8Z" clip-rule="evenodd"/><path fill="#FA8C16" d="M5.6 49h44.8v5.6H5.6V49Z"/><path fill="#FA8C16" fill-rule="evenodd" d="M22.05 5.6v7.761h-2.1v-7.76h2.1ZM22.284 23.018v4.2h-2.1v-4.2h2.1ZM26.719 19.692v4.2h-2.1v-4.2h2.1ZM17.85 19.692v4.2h-2.1v-4.2h2.1Z" clip-rule="evenodd"/><path fill="#FA8C16" fill-rule="evenodd" d="M11.55 15.461a3.15 3.15 0 0 1 3.15-3.15h12.6a3.15 3.15 0 1 1 0 6.3H14.7a3.15 3.15 0 0 1-3.15-3.15Zm3.15-1.05a1.05 1.05 0 1 0 0 2.1h12.6a1.05 1.05 0 1 0 0-2.1H14.7Z" clip-rule="evenodd"/></g><defs><clipPath id="a"><path fill="#fff" d="M0 0h56v56H0z"/></clipPath></defs></svg>