<svg xmlns="http://www.w3.org/2000/svg" width="56" height="56" fill="none"><g fill="#FA8C16" clip-path="url(#a)"><path d="m8.2 10.8.4.2 13.6 13.6 2.4-2.4L11.2 8.6c-.2-.2-.2-.4-.4-.4l-.7-3.5-5.6-3.2-3 2.8L4.7 10l3.5.7Z"/><path d="M20.3 41.8 42 20.2a.8.8 0 0 1 1-.2 9.4 9.4 0 0 0 8.1-1.7 10 10 0 0 0 3.8-7.5v-.5l-5 5a.8.8 0 0 1-1 .2l-5.8-1.9c-.4-.2-.5-.3-.5-.5l-2-5.8a.8.8 0 0 1 .3-1l5-5a9.6 9.6 0 0 0-7.8 3.4 9.7 9.7 0 0 0-1.9 8.4c0 .3 0 .6-.2.9L14.2 35.7a.8.8 0 0 1-1 .1A9.6 9.6 0 0 0 5 52.6a9.5 9.5 0 0 0 15-4c.7-1.9.8-3.9.3-5.9-.3-.1-.1-.5 0-.9Zm-7 7.1H8.6l-2.3-3.7 2.3-3.8h4.7l2.2 3.8-2.2 3.7ZM47 54.3a5.9 5.9 0 0 0 6.2-1.3c1.7-1.7 2-4 1.3-6.1L47 54.3Z"/><path d="M42.4 34.2a3.1 3.1 0 0 1-4.1-.2c-1.2-1.1-1.2-2.8-.2-4.1l-1.5-1.5-8.2 8.2 1.5 1.5a3.1 3.1 0 0 1 4 .2c1.2 1 1.2 2.8.3 4l11 11 8.2-8.1c-2.3-2.5-9-9-11-11Z"/></g><defs><clipPath id="a"><path fill="#fff" d="M0 0h56v56H0z"/></clipPath></defs></svg>