<svg width="57" height="56" viewBox="0 0 57 56" fill="none" xmlns="http://www.w3.org/2000/svg">
<path d="M41.4451 21.4324C41.9918 20.8857 41.9918 19.9992 41.4451 19.4525C40.8984 18.9058 40.0119 18.9058 39.4652 19.4525L41.4451 21.4324ZM25.1425 35.7551L24.1526 36.745C24.6993 37.2918 25.5858 37.2918 26.1325 36.745L25.1425 35.7551ZM17.5348 26.1674C16.988 25.6207 16.1016 25.6207 15.5549 26.1674C15.0081 26.7141 15.0081 27.6006 15.5549 28.1473L17.5348 26.1674ZM39.4652 19.4525L24.1526 34.7651L26.1325 36.745L41.4451 21.4324L39.4652 19.4525ZM26.1325 34.7651L17.5348 26.1674L15.5549 28.1473L24.1526 36.745L26.1325 34.7651Z" fill="#FA8C16"/>
<rect x="1.9" y="1.4" width="53.2" height="53.2" rx="26.6" stroke="#FA8C16" stroke-width="2.8"/>
</svg>
