<svg width="216" height="48" viewBox="0 0 216 48" fill="none" xmlns="http://www.w3.org/2000/svg">
<path opacity="0.8" d="M17.6392 43.1165V37.2983H21.2472V38.054H18.517V39.8267H20.9886V40.5796H18.517V43.1165H17.6392ZM28.5807 40.2074C28.5807 40.8286 28.467 41.3627 28.2398 41.8097C28.0125 42.2548 27.7009 42.5976 27.3051 42.8381C26.9112 43.0767 26.4633 43.1961 25.9614 43.1961C25.4576 43.1961 25.0078 43.0767 24.6119 42.8381C24.218 42.5976 23.9074 42.2538 23.6801 41.8069C23.4528 41.3599 23.3392 40.8267 23.3392 40.2074C23.3392 39.5862 23.4528 39.0531 23.6801 38.608C23.9074 38.161 24.218 37.8182 24.6119 37.5796C25.0078 37.3391 25.4576 37.2188 25.9614 37.2188C26.4633 37.2188 26.9112 37.3391 27.3051 37.5796C27.7009 37.8182 28.0125 38.161 28.2398 38.608C28.467 39.0531 28.5807 39.5862 28.5807 40.2074ZM27.7114 40.2074C27.7114 39.7339 27.6347 39.3353 27.4812 39.0114C27.3297 38.6856 27.1214 38.4394 26.8562 38.2728C26.593 38.1042 26.2947 38.0199 25.9614 38.0199C25.6261 38.0199 25.3269 38.1042 25.0636 38.2728C24.8004 38.4394 24.592 38.6856 24.4386 39.0114C24.2871 39.3353 24.2114 39.7339 24.2114 40.2074C24.2114 40.6809 24.2871 41.0805 24.4386 41.4063C24.592 41.7302 24.8004 41.9764 25.0636 42.1449C25.3269 42.3116 25.6261 42.3949 25.9614 42.3949C26.2947 42.3949 26.593 42.3116 26.8562 42.1449C27.1214 41.9764 27.3297 41.7302 27.4812 41.4063C27.6347 41.0805 27.7114 40.6809 27.7114 40.2074ZM30.8751 43.1165V37.2983H32.949C33.3998 37.2983 33.7738 37.376 34.0712 37.5313C34.3704 37.6866 34.5939 37.9016 34.7416 38.1762C34.8893 38.4489 34.9632 38.7642 34.9632 39.1222C34.9632 39.4783 34.8884 39.7917 34.7388 40.0625C34.5911 40.3315 34.3676 40.5408 34.0683 40.6904C33.771 40.84 33.3969 40.9148 32.9462 40.9148H31.3751V40.1591H32.8666C33.1507 40.1591 33.3818 40.1184 33.5598 40.037C33.7397 39.9555 33.8714 39.8372 33.9547 39.6819C34.038 39.5266 34.0797 39.34 34.0797 39.1222C34.0797 38.9025 34.0371 38.7122 33.9518 38.5512C33.8685 38.3902 33.7369 38.2671 33.557 38.1819C33.3789 38.0947 33.145 38.0512 32.8553 38.0512H31.753V43.1165H30.8751ZM33.7473 40.4915L35.1848 43.1165H34.1848L32.7757 40.4915H33.7473ZM40.5486 37.2983H41.6139L43.4662 41.8211H43.5344L45.3866 37.2983H46.452V43.1165H45.6168V38.9063H45.5628L43.8469 43.108H43.1537L41.4378 38.9034H41.3838V43.1165H40.5486V37.2983ZM49.4197 43.1165H48.4879L50.5817 37.2983H51.5959L53.6896 43.1165H52.7578L51.1129 38.3552H51.0675L49.4197 43.1165ZM49.576 40.8381H52.5987V41.5767H49.576V40.8381ZM60.4259 37.2983V43.1165H59.619L56.6616 38.8495H56.6077V43.1165H55.7298V37.2983H56.5423L59.5026 41.5711H59.5565V37.2983H60.4259ZM63.3979 43.1165H62.4661L64.5598 37.2983H65.574L67.6678 43.1165H66.7359L65.0911 38.3552H65.0456L63.3979 43.1165ZM63.5541 40.8381H66.5768V41.5767H63.5541V40.8381ZM73.372 39.1364C73.3171 38.9641 73.2432 38.8097 73.1504 38.6733C73.0595 38.5351 72.9506 38.4177 72.8237 38.3211C72.6968 38.2226 72.5519 38.1478 72.3891 38.0966C72.2281 38.0455 72.051 38.0199 71.8578 38.0199C71.5302 38.0199 71.2347 38.1042 70.9714 38.2728C70.7082 38.4413 70.4999 38.6885 70.3464 39.0142C70.1949 39.3381 70.1192 39.7349 70.1192 40.2046C70.1192 40.6762 70.1959 41.0748 70.3493 41.4006C70.5027 41.7264 70.7129 41.9735 70.98 42.1421C71.247 42.3106 71.551 42.3949 71.8919 42.3949C72.2082 42.3949 72.4838 42.3305 72.7186 42.2017C72.9553 42.073 73.1381 41.8911 73.2669 41.6563C73.3976 41.4195 73.4629 41.1411 73.4629 40.8211L73.6902 40.8637H72.0254V40.1392H74.3124V40.8012C74.3124 41.2898 74.2082 41.7141 73.9999 42.0739C73.7934 42.4319 73.5074 42.7084 73.1419 42.9034C72.7783 43.0985 72.3616 43.1961 71.8919 43.1961C71.3654 43.1961 70.9033 43.0748 70.5055 42.8324C70.1097 42.59 69.801 42.2463 69.5794 41.8012C69.3578 41.3542 69.247 40.8239 69.247 40.2103C69.247 39.7463 69.3114 39.3296 69.4402 38.9603C69.569 38.5909 69.7499 38.2775 69.9828 38.0199C70.2177 37.7605 70.4932 37.5625 70.8095 37.4262C71.1277 37.2879 71.4752 37.2188 71.8521 37.2188C72.1665 37.2188 72.4591 37.2652 72.73 37.358C73.0027 37.4508 73.2451 37.5824 73.4572 37.7529C73.6713 37.9233 73.8483 38.126 73.9885 38.3608C74.1286 38.5938 74.2233 38.8523 74.2726 39.1364H73.372ZM76.6267 43.1165V37.2983H80.2744V38.054H77.5045V39.8267H80.0841V40.5796H77.5045V42.3608H80.3085V43.1165H76.6267ZM82.647 43.1165V37.2983H84.7209C85.1716 37.2983 85.5457 37.376 85.843 37.5313C86.1423 37.6866 86.3658 37.9016 86.5135 38.1762C86.6612 38.4489 86.7351 38.7642 86.7351 39.1222C86.7351 39.4783 86.6603 39.7917 86.5107 40.0625C86.3629 40.3315 86.1394 40.5408 85.8402 40.6904C85.5429 40.84 85.1688 40.9148 84.718 40.9148H83.147V40.1591H84.6385C84.9226 40.1591 85.1536 40.1184 85.3317 40.037C85.5116 39.9555 85.6432 39.8372 85.7266 39.6819C85.8099 39.5266 85.8516 39.34 85.8516 39.1222C85.8516 38.9025 85.8089 38.7122 85.7237 38.5512C85.6404 38.3902 85.5088 38.2671 85.3288 38.1819C85.1508 38.0947 84.9169 38.0512 84.6271 38.0512H83.5249V43.1165H82.647ZM85.5192 40.4915L86.9567 43.1165H85.9567L84.5476 40.4915H85.5192ZM92.1766 38.8267C92.1463 38.5578 92.0213 38.3495 91.8016 38.2017C91.5819 38.0521 91.3053 37.9773 90.972 37.9773C90.7334 37.9773 90.5269 38.0152 90.3527 38.0909C90.1785 38.1648 90.043 38.2671 89.9464 38.3978C89.8517 38.5266 89.8044 38.6733 89.8044 38.8381C89.8044 38.9764 89.8366 39.0957 89.901 39.1961C89.9673 39.2964 90.0535 39.3807 90.1595 39.4489C90.2675 39.5152 90.383 39.5711 90.5061 39.6165C90.6292 39.6601 90.7476 39.6961 90.8612 39.7245L91.4294 39.8722C91.615 39.9177 91.8053 39.9792 92.0004 40.0569C92.1955 40.1345 92.3764 40.2368 92.543 40.3637C92.7097 40.4906 92.8442 40.6478 92.9464 40.8353C93.0506 41.0228 93.1027 41.2472 93.1027 41.5086C93.1027 41.8381 93.0175 42.1307 92.847 42.3864C92.6785 42.6421 92.4332 42.8438 92.1112 42.9915C91.7911 43.1392 91.4038 43.2131 90.9493 43.2131C90.5137 43.2131 90.1368 43.144 89.8186 43.0057C89.5004 42.8675 89.2514 42.6714 89.0714 42.4177C88.8915 42.162 88.7921 41.8589 88.7732 41.5086H89.6538C89.6709 41.7188 89.7391 41.894 89.8584 42.0341C89.9796 42.1724 90.1339 42.2756 90.3214 42.3438C90.5108 42.4101 90.7182 42.4432 90.9436 42.4432C91.1917 42.4432 91.4124 42.4044 91.6055 42.3267C91.8006 42.2472 91.954 42.1373 92.0658 41.9972C92.1775 41.8552 92.2334 41.6894 92.2334 41.5C92.2334 41.3277 92.1841 41.1866 92.0857 41.0767C91.9891 40.9669 91.8574 40.876 91.6908 40.804C91.526 40.732 91.3394 40.6686 91.1311 40.6137L90.4436 40.4262C89.9777 40.2993 89.6084 40.1127 89.3357 39.8665C89.0648 39.6203 88.9294 39.2945 88.9294 38.8892C88.9294 38.554 89.0203 38.2614 89.2021 38.0114C89.3839 37.7614 89.6302 37.5673 89.9408 37.429C90.2514 37.2889 90.6017 37.2188 90.9919 37.2188C91.3858 37.2188 91.7334 37.2879 92.0345 37.4262C92.3375 37.5644 92.5762 37.7548 92.7504 37.9972C92.9247 38.2377 93.0156 38.5142 93.0232 38.8267H92.1766Z" fill="white"/>
<path d="M30.638 8.91651H34.85V27.1165H30.638V8.91651ZM22.37 27.1165H18.158V8.91651H22.37V27.1165ZM30.95 19.6545H22.058V16.0925H30.95V19.6545ZM45.526 27.3245C44.0354 27.3245 42.7094 27.0125 41.548 26.3885C40.404 25.7645 39.494 24.9152 38.818 23.8405C38.1594 22.7485 37.83 21.5092 37.83 20.1225C37.83 18.7185 38.1594 17.4792 38.818 16.4045C39.494 15.3125 40.404 14.4632 41.548 13.8565C42.7094 13.2325 44.0354 12.9205 45.526 12.9205C46.9994 12.9205 48.3167 13.2325 49.478 13.8565C50.6394 14.4632 51.5494 15.3038 52.208 16.3785C52.8667 17.4532 53.196 18.7012 53.196 20.1225C53.196 21.5092 52.8667 22.7485 52.208 23.8405C51.5494 24.9152 50.6394 25.7645 49.478 26.3885C48.3167 27.0125 46.9994 27.3245 45.526 27.3245ZM45.526 23.9965C46.202 23.9965 46.8087 23.8405 47.346 23.5285C47.8834 23.2165 48.308 22.7745 48.62 22.2025C48.932 21.6132 49.088 20.9198 49.088 20.1225C49.088 19.3078 48.932 18.6145 48.62 18.0425C48.308 17.4705 47.8834 17.0285 47.346 16.7165C46.8087 16.4045 46.202 16.2485 45.526 16.2485C44.85 16.2485 44.2434 16.4045 43.706 16.7165C43.1687 17.0285 42.7354 17.4705 42.406 18.0425C42.094 18.6145 41.938 19.3078 41.938 20.1225C41.938 20.9198 42.094 21.6132 42.406 22.2025C42.7354 22.7745 43.1687 23.2165 43.706 23.5285C44.2434 23.8405 44.85 23.9965 45.526 23.9965ZM73.8212 12.9205C74.9305 12.9205 75.9098 13.1458 76.7592 13.5965C77.6258 14.0298 78.3018 14.7058 78.7872 15.6245C79.2898 16.5258 79.5412 17.6872 79.5412 19.1085V27.1165H75.4852V19.7325C75.4852 18.6058 75.2512 17.7738 74.7832 17.2365C74.3152 16.6992 73.6565 16.4305 72.8072 16.4305C72.2178 16.4305 71.6892 16.5692 71.2212 16.8465C70.7532 17.1065 70.3892 17.5052 70.1292 18.0425C69.8692 18.5798 69.7392 19.2645 69.7392 20.0965V27.1165H65.6832V19.7325C65.6832 18.6058 65.4492 17.7738 64.9812 17.2365C64.5305 16.6992 63.8805 16.4305 63.0312 16.4305C62.4418 16.4305 61.9132 16.5692 61.4452 16.8465C60.9772 17.1065 60.6132 17.5052 60.3532 18.0425C60.0932 18.5798 59.9632 19.2645 59.9632 20.0965V27.1165H55.9072V13.1285H59.7812V16.9505L59.0532 15.8325C59.5385 14.8792 60.2232 14.1598 61.1072 13.6745C62.0085 13.1718 63.0312 12.9205 64.1752 12.9205C65.4578 12.9205 66.5758 13.2498 67.5292 13.9085C68.4998 14.5498 69.1412 15.5378 69.4532 16.8725L68.0232 16.4825C68.4912 15.3905 69.2365 14.5238 70.2592 13.8825C71.2992 13.2412 72.4865 12.9205 73.8212 12.9205ZM90.2203 27.3245C88.6256 27.3245 87.2216 27.0125 86.0083 26.3885C84.8123 25.7645 83.8849 24.9152 83.2263 23.8405C82.5676 22.7485 82.2383 21.5092 82.2383 20.1225C82.2383 18.7185 82.5589 17.4792 83.2003 16.4045C83.8589 15.3125 84.7516 14.4632 85.8783 13.8565C87.0049 13.2325 88.2789 12.9205 89.7003 12.9205C91.0696 12.9205 92.3003 13.2152 93.3923 13.8045C94.5016 14.3765 95.3769 15.2085 96.0183 16.3005C96.6596 17.3752 96.9803 18.6665 96.9803 20.1745C96.9803 20.3305 96.9716 20.5125 96.9543 20.7205C96.9369 20.9112 96.9196 21.0932 96.9023 21.2665H85.5403V18.9005H94.7702L93.2103 19.6025C93.2103 18.8745 93.0629 18.2418 92.7683 17.7045C92.4736 17.1672 92.0663 16.7512 91.5463 16.4565C91.0263 16.1445 90.4196 15.9885 89.7263 15.9885C89.0329 15.9885 88.4176 16.1445 87.8803 16.4565C87.3603 16.7512 86.9529 17.1758 86.6583 17.7305C86.3636 18.2678 86.2163 18.9092 86.2163 19.6545V20.2785C86.2163 21.0412 86.3809 21.7172 86.7103 22.3065C87.0569 22.8785 87.5336 23.3205 88.1403 23.6325C88.7643 23.9272 89.4923 24.0745 90.3243 24.0745C91.0696 24.0745 91.7196 23.9618 92.2743 23.7365C92.8463 23.5112 93.3663 23.1732 93.8343 22.7225L95.9923 25.0625C95.3509 25.7905 94.5449 26.3538 93.5743 26.7525C92.6036 27.1338 91.4856 27.3245 90.2203 27.3245ZM99.9666 27.1165V8.91651H108.859C111.147 8.91651 112.863 9.34985 114.007 10.2165C115.168 11.0832 115.749 12.2272 115.749 13.6485C115.749 14.6018 115.515 15.4338 115.047 16.1445C114.579 16.8378 113.937 17.3752 113.123 17.7565C112.308 18.1378 111.372 18.3285 110.315 18.3285L110.809 17.2625C111.953 17.2625 112.967 17.4532 113.851 17.8345C114.735 18.1985 115.419 18.7445 115.905 19.4725C116.407 20.2005 116.659 21.0932 116.659 22.1505C116.659 23.7105 116.043 24.9325 114.813 25.8165C113.582 26.6832 111.771 27.1165 109.379 27.1165H99.9666ZM104.153 23.9445H109.067C110.159 23.9445 110.982 23.7712 111.537 23.4245C112.109 23.0605 112.395 22.4885 112.395 21.7085C112.395 20.9458 112.109 20.3825 111.537 20.0185C110.982 19.6372 110.159 19.4465 109.067 19.4465H103.841V16.3785H108.339C109.361 16.3785 110.141 16.2052 110.679 15.8585C111.233 15.4945 111.511 14.9485 111.511 14.2205C111.511 13.5098 111.233 12.9812 110.679 12.6345C110.141 12.2705 109.361 12.0885 108.339 12.0885H104.153V23.9445ZM125.463 27.3245C124.302 27.3245 123.262 27.0992 122.343 26.6485C121.442 26.1978 120.74 25.5132 120.237 24.5945C119.735 23.6585 119.483 22.4712 119.483 21.0325V13.1285H123.539V20.4345C123.539 21.5958 123.782 22.4538 124.267 23.0085C124.77 23.5458 125.472 23.8145 126.373 23.8145C126.997 23.8145 127.552 23.6845 128.037 23.4245C128.523 23.1472 128.904 22.7312 129.181 22.1765C129.459 21.6045 129.597 20.8938 129.597 20.0445V13.1285H133.653V27.1165H129.805V23.2685L130.507 24.3865C130.039 25.3572 129.346 26.0938 128.427 26.5965C127.526 27.0818 126.538 27.3245 125.463 27.3245ZM143.417 27.3245C142.1 27.3245 140.912 27.0298 139.855 26.4405C138.798 25.8338 137.957 24.9932 137.333 23.9185C136.726 22.8438 136.423 21.5785 136.423 20.1225C136.423 18.6492 136.726 17.3752 137.333 16.3005C137.957 15.2258 138.798 14.3938 139.855 13.8045C140.912 13.2152 142.1 12.9205 143.417 12.9205C144.596 12.9205 145.627 13.1805 146.511 13.7005C147.395 14.2205 148.08 15.0092 148.565 16.0665C149.05 17.1238 149.293 18.4758 149.293 20.1225C149.293 21.7518 149.059 23.1038 148.591 24.1785C148.123 25.2358 147.447 26.0245 146.563 26.5445C145.696 27.0645 144.648 27.3245 143.417 27.3245ZM144.119 23.9965C144.778 23.9965 145.376 23.8405 145.913 23.5285C146.45 23.2165 146.875 22.7745 147.187 22.2025C147.516 21.6132 147.681 20.9198 147.681 20.1225C147.681 19.3078 147.516 18.6145 147.187 18.0425C146.875 17.4705 146.45 17.0285 145.913 16.7165C145.376 16.4045 144.778 16.2485 144.119 16.2485C143.443 16.2485 142.836 16.4045 142.299 16.7165C141.762 17.0285 141.328 17.4705 140.999 18.0425C140.687 18.6145 140.531 19.3078 140.531 20.1225C140.531 20.9198 140.687 21.6132 140.999 22.2025C141.328 22.7745 141.762 23.2165 142.299 23.5285C142.836 23.8405 143.443 23.9965 144.119 23.9965ZM147.785 27.1165V24.2565L147.863 20.0965L147.603 15.9625V7.82451H151.659V27.1165H147.785ZM161.419 27.3245C160.102 27.3245 158.914 27.0298 157.857 26.4405C156.8 25.8338 155.959 24.9932 155.335 23.9185C154.728 22.8438 154.425 21.5785 154.425 20.1225C154.425 18.6492 154.728 17.3752 155.335 16.3005C155.959 15.2258 156.8 14.3938 157.857 13.8045C158.914 13.2152 160.102 12.9205 161.419 12.9205C162.598 12.9205 163.629 13.1805 164.513 13.7005C165.397 14.2205 166.082 15.0092 166.567 16.0665C167.052 17.1238 167.295 18.4758 167.295 20.1225C167.295 21.7518 167.061 23.1038 166.593 24.1785C166.125 25.2358 165.449 26.0245 164.565 26.5445C163.698 27.0645 162.65 27.3245 161.419 27.3245ZM162.121 23.9965C162.78 23.9965 163.378 23.8405 163.915 23.5285C164.452 23.2165 164.877 22.7745 165.189 22.2025C165.518 21.6132 165.683 20.9198 165.683 20.1225C165.683 19.3078 165.518 18.6145 165.189 18.0425C164.877 17.4705 164.452 17.0285 163.915 16.7165C163.378 16.4045 162.78 16.2485 162.121 16.2485C161.445 16.2485 160.838 16.4045 160.301 16.7165C159.764 17.0285 159.33 17.4705 159.001 18.0425C158.689 18.6145 158.533 19.3078 158.533 20.1225C158.533 20.9198 158.689 21.6132 159.001 22.2025C159.33 22.7745 159.764 23.2165 160.301 23.5285C160.838 23.8405 161.445 23.9965 162.121 23.9965ZM165.787 27.1165V24.2565L165.865 20.0965L165.605 15.9625V7.82451H169.661V27.1165H165.787ZM175.183 32.3685C174.455 32.3685 173.736 32.2558 173.025 32.0305C172.314 31.8052 171.734 31.4932 171.283 31.0945L172.765 28.2085C173.077 28.4858 173.432 28.7025 173.831 28.8585C174.247 29.0145 174.654 29.0925 175.053 29.0925C175.625 29.0925 176.076 28.9538 176.405 28.6765C176.752 28.4165 177.064 27.9745 177.341 27.3505L178.069 25.6345L178.381 25.1925L183.399 13.1285H187.299L180.981 27.9745C180.53 29.1012 180.01 29.9852 179.421 30.6265C178.849 31.2678 178.208 31.7185 177.497 31.9785C176.804 32.2385 176.032 32.3685 175.183 32.3685ZM177.575 27.6625L171.335 13.1285H175.521L180.357 24.8285L177.575 27.6625Z" fill="white"/>
<path d="M190.488 27.3245C189.795 27.3245 189.197 27.0905 188.694 26.6225C188.209 26.1372 187.966 25.5218 187.966 24.7765C187.966 24.0312 188.209 23.4332 188.694 22.9825C189.197 22.5145 189.795 22.2805 190.488 22.2805C191.199 22.2805 191.797 22.5145 192.282 22.9825C192.767 23.4332 193.01 24.0312 193.01 24.7765C193.01 25.5218 192.767 26.1372 192.282 26.6225C191.797 27.0905 191.199 27.3245 190.488 27.3245Z" fill="#FA8C16"/>
</svg>
