<svg width="207" height="48" viewBox="0 0 207 48" fill="none" xmlns="http://www.w3.org/2000/svg">
    <path d="M32.6893 7.45004V25.6471H28.478V18.1863H20.2113V25.6471H16V7.45004H20.2113V14.6249H28.478V7.45004H32.6893Z" fill="#2F55EB"/>
    <path d="M43.3636 25.855C41.8905 25.855 40.5647 25.5518 39.3862 24.9452C38.2251 24.3213 37.3152 23.4634 36.6567 22.3716C35.9981 21.2798 35.6688 20.0407 35.6688 18.6542C35.6688 17.2678 35.9981 16.0286 36.6567 14.9368C37.3152 13.845 38.2251 12.9958 39.3862 12.3892C40.5647 11.7653 41.8905 11.4534 43.3636 11.4534C44.8367 11.4534 46.1538 11.7653 47.3149 12.3892C48.4761 12.9958 49.3859 13.845 50.0445 14.9368C50.7031 16.0286 51.0323 17.2678 51.0323 18.6542C51.0323 20.0407 50.7031 21.2798 50.0445 22.3716C49.3859 23.4634 48.4761 24.3213 47.3149 24.9452C46.1538 25.5518 44.8367 25.855 43.3636 25.855ZM43.3636 22.5276C44.4034 22.5276 45.2526 22.181 45.9112 21.4877C46.5871 20.7772 46.925 19.8327 46.925 18.6542C46.925 17.4757 46.5871 16.5399 45.9112 15.8467C45.2526 15.1361 44.4034 14.7808 43.3636 14.7808C42.3238 14.7808 41.4659 15.1361 40.79 15.8467C40.1141 16.5399 39.7762 17.4757 39.7762 18.6542C39.7762 19.8327 40.1141 20.7772 40.79 21.4877C41.4659 22.181 42.3238 22.5276 43.3636 22.5276Z" fill="#2F55EB"/>
    <path d="M71.6541 11.4534C73.4045 11.4534 74.7909 11.9733 75.8134 13.0131C76.8532 14.0356 77.3731 15.578 77.3731 17.6404V25.6471H73.3178V18.2643C73.3178 17.1551 73.0839 16.3319 72.6159 15.7947C72.1653 15.2401 71.5154 14.9628 70.6662 14.9628C69.7131 14.9628 68.9592 15.2748 68.4046 15.8987C67.85 16.5052 67.5727 17.4151 67.5727 18.6282V25.6471H63.5174V18.2643C63.5174 16.0633 62.6336 14.9628 60.8658 14.9628C59.93 14.9628 59.1848 15.2748 58.6302 15.8987C58.0756 16.5052 57.7983 17.4151 57.7983 18.6282V25.6471H53.743V11.6614H57.6164V13.2731C58.1363 12.6839 58.7688 12.2333 59.5141 11.9213C60.2766 11.6094 61.1085 11.4534 62.0097 11.4534C62.9975 11.4534 63.89 11.6527 64.6872 12.0513C65.4844 12.4326 66.1256 12.9958 66.6109 13.741C67.1828 13.0131 67.902 12.4499 68.7685 12.0513C69.6524 11.6527 70.6143 11.4534 71.6541 11.4534Z" fill="#2F55EB"/>
    <path d="M94.8602 18.7062C94.8602 18.7582 94.8342 19.1221 94.7822 19.798H84.2019C84.3925 20.6645 84.8431 21.3491 85.5537 21.8517C86.2642 22.3543 87.1481 22.6056 88.2053 22.6056C88.9331 22.6056 89.5744 22.5016 90.1289 22.2936C90.7009 22.0683 91.2294 21.7217 91.7147 21.2538L93.8723 23.5934C92.5552 25.1012 90.6315 25.855 88.1013 25.855C86.5242 25.855 85.1291 25.5518 83.916 24.9452C82.7028 24.3213 81.767 23.4634 81.1084 22.3716C80.4499 21.2798 80.1206 20.0407 80.1206 18.6542C80.1206 17.2851 80.4412 16.0546 81.0824 14.9628C81.741 13.8537 82.6335 12.9958 83.76 12.3892C84.9038 11.7653 86.1776 11.4534 87.5814 11.4534C88.9505 11.4534 90.1896 11.748 91.2988 12.3372C92.4079 12.9265 93.2744 13.7757 93.8983 14.8848C94.5396 15.9766 94.8602 17.2504 94.8602 18.7062ZM87.6074 14.5209C86.6888 14.5209 85.9176 14.7808 85.2937 15.3008C84.6698 15.8207 84.2886 16.5312 84.1499 17.4324H91.0388C90.9001 16.5486 90.5189 15.8467 89.895 15.3268C89.2711 14.7895 88.5085 14.5209 87.6074 14.5209Z" fill="#2F55EB"/>
    <path d="M111.208 16.1846C112.248 16.5139 113.062 17.0685 113.651 17.8483C114.241 18.6109 114.535 19.5554 114.535 20.6819C114.535 22.2763 113.911 23.5068 112.664 24.3733C111.433 25.2225 109.631 25.6471 107.256 25.6471H97.846V7.45004H106.737C108.955 7.45004 110.653 7.87463 111.832 8.72383C113.028 9.57302 113.625 10.7255 113.625 12.1813C113.625 13.0651 113.409 13.8537 112.976 14.5469C112.56 15.2401 111.97 15.786 111.208 16.1846ZM102.031 10.6215V14.9108H106.217C107.256 14.9108 108.045 14.7289 108.582 14.3649C109.12 14.001 109.388 13.4637 109.388 12.7532C109.388 12.0426 109.12 11.514 108.582 11.1674C108.045 10.8035 107.256 10.6215 106.217 10.6215H102.031ZM106.945 22.4756C108.054 22.4756 108.886 22.2936 109.44 21.9297C110.012 21.5657 110.298 21.0025 110.298 20.24C110.298 18.7322 109.18 17.9783 106.945 17.9783H102.031V22.4756H106.945Z" fill="#2F55EB"/>
    <path d="M131.527 11.6614V25.6471H127.68V23.9833C127.143 24.5899 126.502 25.0578 125.756 25.3871C125.011 25.6991 124.205 25.855 123.339 25.855C121.502 25.855 120.046 25.3265 118.971 24.2693C117.897 23.2121 117.36 21.6437 117.36 19.5641V11.6614H121.415V18.9662C121.415 21.2191 122.36 22.3456 124.249 22.3456C125.219 22.3456 125.999 22.0337 126.588 21.4098C127.177 20.7685 127.472 19.824 127.472 18.5762V11.6614H131.527Z" fill="#2F55EB"/>
    <path d="M149.53 6.35822V25.6471H145.657V24.0353C144.652 25.2485 143.196 25.855 141.289 25.855C139.972 25.855 138.776 25.5604 137.702 24.9712C136.645 24.3819 135.813 23.5414 135.206 22.4496C134.6 21.3578 134.297 20.0926 134.297 18.6542C134.297 17.2158 134.6 15.9507 135.206 14.8588C135.813 13.767 136.645 12.9265 137.702 12.3372C138.776 11.748 139.972 11.4534 141.289 11.4534C143.074 11.4534 144.47 12.0166 145.475 13.1431V6.35822H149.53ZM141.991 22.5276C143.014 22.5276 143.863 22.181 144.539 21.4877C145.215 20.7772 145.553 19.8327 145.553 18.6542C145.553 17.4757 145.215 16.5399 144.539 15.8467C143.863 15.1361 143.014 14.7808 141.991 14.7808C140.951 14.7808 140.094 15.1361 139.418 15.8467C138.742 16.5399 138.404 17.4757 138.404 18.6542C138.404 19.8327 138.742 20.7772 139.418 21.4877C140.094 22.181 140.951 22.5276 141.991 22.5276Z" fill="#2F55EB"/>
    <path d="M167.529 6.35822V25.6471H163.656V24.0353C162.651 25.2485 161.195 25.855 159.288 25.855C157.971 25.855 156.775 25.5604 155.701 24.9712C154.644 24.3819 153.812 23.5414 153.205 22.4496C152.599 21.3578 152.296 20.0926 152.296 18.6542C152.296 17.2158 152.599 15.9507 153.205 14.8588C153.812 13.767 154.644 12.9265 155.701 12.3372C156.775 11.748 157.971 11.4534 159.288 11.4534C161.073 11.4534 162.469 12.0166 163.474 13.1431V6.35822H167.529ZM159.99 22.5276C161.013 22.5276 161.862 22.181 162.538 21.4877C163.214 20.7772 163.552 19.8327 163.552 18.6542C163.552 17.4757 163.214 16.5399 162.538 15.8467C161.862 15.1361 161.013 14.7808 159.99 14.7808C158.95 14.7808 158.093 15.1361 157.417 15.8467C156.741 16.5399 156.403 17.4757 156.403 18.6542C156.403 19.8327 156.741 20.7772 157.417 21.4877C158.093 22.181 158.95 22.5276 159.99 22.5276Z" fill="#2F55EB"/>
    <path d="M185.164 11.6614L178.847 26.5049C178.206 28.1167 177.409 29.2518 176.456 29.9104C175.52 30.5689 174.385 30.8982 173.05 30.8982C172.322 30.8982 171.603 30.7856 170.892 30.5603C170.182 30.335 169.601 30.023 169.151 29.6244L170.633 26.7389C170.944 27.0162 171.3 27.2328 171.698 27.3888C172.114 27.5448 172.522 27.6227 172.92 27.6227C173.475 27.6227 173.925 27.4841 174.272 27.2068C174.619 26.9469 174.93 26.5049 175.208 25.881L175.26 25.7511L169.203 11.6614H173.388L177.313 21.1498L181.265 11.6614H185.164Z" fill="#2F55EB"/>
    <path d="M188.353 25.855C187.642 25.855 187.044 25.6124 186.559 25.1272C186.074 24.6419 185.831 24.0353 185.831 23.3075C185.831 22.5622 186.074 21.9643 186.559 21.5137C187.044 21.0458 187.642 20.8119 188.353 20.8119C189.063 20.8119 189.661 21.0458 190.146 21.5137C190.632 21.9643 190.874 22.5622 190.874 23.3075C190.874 24.0353 190.632 24.6419 190.146 25.1272C189.661 25.6124 189.063 25.855 188.353 25.855Z" fill="#FA8C16"/>
    <path d="M16 41.5331V34.9877H20.0589V35.8378H16.9876V37.8321H19.7681V38.6791H16.9876V41.5331H16Z" fill="#738DF2"/>
    <path d="M28.0392 38.2604C28.0392 38.9593 27.9113 39.5601 27.6556 40.063C27.4 40.5637 27.0495 40.9493 26.6041 41.2199C26.161 41.4884 25.6571 41.6226 25.0924 41.6226C24.5257 41.6226 24.0196 41.4884 23.5743 41.2199C23.1311 40.9493 22.7817 40.5626 22.526 40.0598C22.2703 39.5569 22.1425 38.9571 22.1425 38.2604C22.1425 37.5615 22.2703 36.9618 22.526 36.461C22.7817 35.9582 23.1311 35.5726 23.5743 35.3041C24.0196 35.0335 24.5257 34.8982 25.0924 34.8982C25.6571 34.8982 26.161 35.0335 26.6041 35.3041C27.0495 35.5726 27.4 35.9582 27.6556 36.461C27.9113 36.9618 28.0392 37.5615 28.0392 38.2604ZM27.0612 38.2604C27.0612 37.7277 26.9749 37.2792 26.8023 36.9149C26.6318 36.5484 26.3975 36.2714 26.0992 36.0839C25.803 35.8943 25.4674 35.7995 25.0924 35.7995C24.7153 35.7995 24.3787 35.8943 24.0825 36.0839C23.7863 36.2714 23.5519 36.5484 23.3794 36.9149C23.2089 37.2792 23.1237 37.7277 23.1237 38.2604C23.1237 38.7931 23.2089 39.2427 23.3794 39.6091C23.5519 39.9735 23.7863 40.2505 24.0825 40.4401C24.3787 40.6276 24.7153 40.7213 25.0924 40.7213C25.4674 40.7213 25.803 40.6276 26.0992 40.4401C26.3975 40.2505 26.6318 39.9735 26.8023 39.6091C26.9749 39.2427 27.0612 38.7931 27.0612 38.2604Z" fill="#738DF2"/>
    <path d="M30.3504 41.5331V34.9877H32.6835C33.1906 34.9877 33.6114 35.075 33.946 35.2498C34.2826 35.4245 34.534 35.6663 34.7002 35.9753C34.8664 36.2821 34.9495 36.6368 34.9495 37.0395C34.9495 37.4401 34.8653 37.7927 34.697 38.0974C34.5308 38.4 34.2794 38.6354 33.9428 38.8037C33.6082 38.9721 33.1874 39.0562 32.6803 39.0562H30.9129V38.2061H32.5908C32.9104 38.2061 33.1704 38.1603 33.3707 38.0686C33.5731 37.977 33.7212 37.8439 33.8149 37.6691C33.9087 37.4944 33.9555 37.2846 33.9555 37.0395C33.9555 36.7924 33.9076 36.5782 33.8117 36.3971C33.718 36.216 33.5699 36.0775 33.3675 35.9816C33.1672 35.8836 32.9041 35.8346 32.5781 35.8346H31.338V41.5331H30.3504ZM33.5816 38.58L35.1988 41.5331H34.0738L32.4886 38.58H33.5816Z" fill="#738DF2"/>
    <path d="M46.1295 37.1162H45.1323C45.094 36.9032 45.0226 36.7157 44.9182 36.5537C44.8138 36.3918 44.6859 36.2544 44.5347 36.1414C44.3834 36.0285 44.214 35.9433 44.0265 35.8858C43.8411 35.8282 43.644 35.7995 43.4352 35.7995C43.0581 35.7995 42.7204 35.8943 42.4221 36.0839C42.1259 36.2735 41.8916 36.5516 41.719 36.9181C41.5485 37.2846 41.4633 37.732 41.4633 38.2604C41.4633 38.7931 41.5485 39.2427 41.719 39.6091C41.8916 39.9756 42.127 40.2526 42.4253 40.4401C42.7236 40.6276 43.0592 40.7213 43.432 40.7213C43.6387 40.7213 43.8347 40.6936 44.0201 40.6383C44.2076 40.5807 44.377 40.4966 44.5283 40.3858C44.6796 40.275 44.8074 40.1397 44.9118 39.9799C45.0183 39.8179 45.0918 39.6326 45.1323 39.4238L46.1295 39.427C46.0762 39.7487 45.9729 40.0449 45.8195 40.3155C45.6682 40.5839 45.4732 40.8162 45.2346 41.0122C44.9981 41.2061 44.7275 41.3563 44.4228 41.4628C44.1181 41.5694 43.7857 41.6226 43.4256 41.6226C42.8589 41.6226 42.3539 41.4884 41.9107 41.2199C41.4676 40.9493 41.1181 40.5626 40.8624 40.0598C40.6089 39.5569 40.4821 38.9571 40.4821 38.2604C40.4821 37.5615 40.61 36.9618 40.8656 36.461C41.1213 35.9582 41.4707 35.5726 41.9139 35.3041C42.3571 35.0335 42.861 34.8982 43.4256 34.8982C43.7729 34.8982 44.0968 34.9483 44.3972 35.0484C44.6998 35.1464 44.9715 35.2913 45.2122 35.4831C45.453 35.6727 45.6522 35.9049 45.8099 36.1798C45.9675 36.4525 46.0741 36.7647 46.1295 37.1162Z" fill="#738DF2"/>
    <path d="M54.0769 38.2604C54.0769 38.9593 53.9491 39.5601 53.6934 40.063C53.4377 40.5637 53.0872 40.9493 52.6419 41.2199C52.1987 41.4884 51.6948 41.6226 51.1302 41.6226C50.5634 41.6226 50.0574 41.4884 49.6121 41.2199C49.1689 40.9493 48.8195 40.5626 48.5638 40.0598C48.3081 39.5569 48.1803 38.9571 48.1803 38.2604C48.1803 37.5615 48.3081 36.9618 48.5638 36.461C48.8195 35.9582 49.1689 35.5726 49.6121 35.3041C50.0574 35.0335 50.5634 34.8982 51.1302 34.8982C51.6948 34.8982 52.1987 35.0335 52.6419 35.3041C53.0872 35.5726 53.4377 35.9582 53.6934 36.461C53.9491 36.9618 54.0769 37.5615 54.0769 38.2604ZM53.099 38.2604C53.099 37.7277 53.0127 37.2792 52.8401 36.9149C52.6696 36.5484 52.4352 36.2714 52.137 36.0839C51.8408 35.8943 51.5052 35.7995 51.1302 35.7995C50.7531 35.7995 50.4164 35.8943 50.1203 36.0839C49.8241 36.2714 49.5897 36.5484 49.4171 36.9149C49.2467 37.2792 49.1615 37.7277 49.1615 38.2604C49.1615 38.7931 49.2467 39.2427 49.4171 39.6091C49.5897 39.9735 49.8241 40.2505 50.1203 40.4401C50.4164 40.6276 50.7531 40.7213 51.1302 40.7213C51.5052 40.7213 51.8408 40.6276 52.137 40.4401C52.4352 40.2505 52.6696 39.9735 52.8401 39.6091C53.0127 39.2427 53.099 38.7931 53.099 38.2604Z" fill="#738DF2"/>
    <path d="M61.6712 34.9877V41.5331H60.7636L57.4365 36.7327H57.3758V41.5331H56.3882V34.9877H57.3023L60.6325 39.7945H60.6932V34.9877H61.6712Z" fill="#738DF2"/>
    <path d="M63.869 35.8378V34.9877H68.9347V35.8378H66.8925V41.5331H65.9081V35.8378H63.869Z" fill="#738DF2"/>
    <path d="M71.1341 41.5331V34.9877H73.4672C73.9743 34.9877 74.3952 35.075 74.7297 35.2498C75.0663 35.4245 75.3177 35.6663 75.4839 35.9753C75.6501 36.2821 75.7332 36.6368 75.7332 37.0395C75.7332 37.4401 75.6491 37.7927 75.4807 38.0974C75.3145 38.4 75.0631 38.6354 74.7265 38.8037C74.392 38.9721 73.9711 39.0562 73.464 39.0562H71.6966V38.2061H73.3746C73.6942 38.2061 73.9541 38.1603 74.1544 38.0686C74.3568 37.977 74.5049 37.8439 74.5986 37.6691C74.6924 37.4944 74.7393 37.2846 74.7393 37.0395C74.7393 36.7924 74.6913 36.5782 74.5954 36.3971C74.5017 36.216 74.3536 36.0775 74.1512 35.9816C73.9509 35.8836 73.6878 35.8346 73.3618 35.8346H72.1217V41.5331H71.1341ZM74.3653 38.58L75.9825 41.5331H74.8575L73.2723 38.58H74.3653Z" fill="#738DF2"/>
    <path d="M78.5678 41.5331H77.5195L79.875 34.9877H81.016L83.3715 41.5331H82.3232L80.4727 36.1766H80.4215L78.5678 41.5331ZM78.7436 38.9699H82.1442V39.8009H78.7436V38.9699Z" fill="#738DF2"/>
    <path d="M90.5255 37.1162H89.5283C89.49 36.9032 89.4186 36.7157 89.3142 36.5537C89.2098 36.3918 89.082 36.2544 88.9307 36.1414C88.7794 36.0285 88.61 35.9433 88.4225 35.8858C88.2371 35.8282 88.0401 35.7995 87.8313 35.7995C87.4541 35.7995 87.1164 35.8943 86.8181 36.0839C86.5219 36.2735 86.2876 36.5516 86.115 36.9181C85.9445 37.2846 85.8593 37.732 85.8593 38.2604C85.8593 38.7931 85.9445 39.2427 86.115 39.6091C86.2876 39.9756 86.523 40.2526 86.8213 40.4401C87.1196 40.6276 87.4552 40.7213 87.8281 40.7213C88.0347 40.7213 88.2308 40.6936 88.4161 40.6383C88.6036 40.5807 88.773 40.4966 88.9243 40.3858C89.0756 40.275 89.2034 40.1397 89.3078 39.9799C89.4143 39.8179 89.4879 39.6326 89.5283 39.4238L90.5255 39.427C90.4722 39.7487 90.3689 40.0449 90.2155 40.3155C90.0642 40.5839 89.8692 40.8162 89.6306 41.0122C89.3941 41.2061 89.1235 41.3563 88.8188 41.4628C88.5141 41.5694 88.1817 41.6226 87.8217 41.6226C87.2549 41.6226 86.7499 41.4884 86.3067 41.2199C85.8636 40.9493 85.5141 40.5626 85.2585 40.0598C85.0049 39.5569 84.8781 38.9571 84.8781 38.2604C84.8781 37.5615 85.006 36.9618 85.2617 36.461C85.5173 35.9582 85.8668 35.5726 86.3099 35.3041C86.7531 35.0335 87.257 34.8982 87.8217 34.8982C88.169 34.8982 88.4928 34.9483 88.7933 35.0484C89.0958 35.1464 89.3675 35.2913 89.6082 35.4831C89.849 35.6727 90.0482 35.9049 90.2059 36.1798C90.3636 36.4525 90.4701 36.7647 90.5255 37.1162Z" fill="#738DF2"/>
    <path d="M92.4644 35.8378V34.9877H97.5301V35.8378H95.4879V41.5331H94.5035V35.8378H92.4644Z" fill="#738DF2"/>
    <path d="M105.134 38.2604C105.134 38.9593 105.006 39.5601 104.75 40.063C104.495 40.5637 104.144 40.9493 103.699 41.2199C103.256 41.4884 102.752 41.6226 102.187 41.6226C101.621 41.6226 101.114 41.4884 100.669 41.2199C100.226 40.9493 99.8765 40.5626 99.6209 40.0598C99.3652 39.5569 99.2373 38.9571 99.2373 38.2604C99.2373 37.5615 99.3652 36.9618 99.6209 36.461C99.8765 35.9582 100.226 35.5726 100.669 35.3041C101.114 35.0335 101.621 34.8982 102.187 34.8982C102.752 34.8982 103.256 35.0335 103.699 35.3041C104.144 35.5726 104.495 35.9582 104.75 36.461C105.006 36.9618 105.134 37.5615 105.134 38.2604ZM104.156 38.2604C104.156 37.7277 104.07 37.2792 103.897 36.9149C103.727 36.5484 103.492 36.2714 103.194 36.0839C102.898 35.8943 102.562 35.7995 102.187 35.7995C101.81 35.7995 101.473 35.8943 101.177 36.0839C100.881 36.2714 100.647 36.5484 100.474 36.9149C100.304 37.2792 100.219 37.7277 100.219 38.2604C100.219 38.7931 100.304 39.2427 100.474 39.6091C100.647 39.9735 100.881 40.2505 101.177 40.4401C101.473 40.6276 101.81 40.7213 102.187 40.7213C102.562 40.7213 102.898 40.6276 103.194 40.4401C103.492 40.2505 103.727 39.9735 103.897 39.6091C104.07 39.2427 104.156 38.7931 104.156 38.2604Z" fill="#738DF2"/>
    <path d="M107.445 41.5331V34.9877H109.778C110.285 34.9877 110.706 35.075 111.041 35.2498C111.377 35.4245 111.629 35.6663 111.795 35.9753C111.961 36.2821 112.044 36.6368 112.044 37.0395C112.044 37.4401 111.96 37.7927 111.792 38.0974C111.626 38.4 111.374 38.6354 111.038 38.8037C110.703 38.9721 110.282 39.0562 109.775 39.0562H108.008V38.2061H109.686C110.005 38.2061 110.265 38.1603 110.466 38.0686C110.668 37.977 110.816 37.8439 110.91 37.6691C111.004 37.4944 111.05 37.2846 111.05 37.0395C111.05 36.7924 111.002 36.5782 110.907 36.3971C110.813 36.216 110.665 36.0775 110.462 35.9816C110.262 35.8836 109.999 35.8346 109.673 35.8346H108.433V41.5331H107.445ZM110.676 38.58L112.294 41.5331H111.169L109.583 38.58H110.676Z" fill="#738DF2"/>
    <path d="M117.896 36.7071C117.862 36.4046 117.721 36.1702 117.474 36.004C117.227 35.8357 116.916 35.7515 116.541 35.7515C116.272 35.7515 116.04 35.7941 115.844 35.8794C115.648 35.9625 115.496 36.0775 115.387 36.2245C115.281 36.3694 115.227 36.5346 115.227 36.7199C115.227 36.8755 115.264 37.0097 115.336 37.1226C115.411 37.2356 115.508 37.3304 115.627 37.4071C115.748 37.4816 115.878 37.5445 116.017 37.5956C116.155 37.6446 116.288 37.6851 116.416 37.7171L117.055 37.8833C117.264 37.9344 117.478 38.0037 117.698 38.091C117.917 38.1784 118.121 38.2934 118.308 38.4362C118.496 38.5789 118.647 38.7558 118.762 38.9667C118.879 39.1777 118.938 39.4302 118.938 39.7242C118.938 40.0949 118.842 40.4241 118.65 40.7118C118.461 40.9994 118.185 41.2263 117.823 41.3925C117.462 41.5587 117.027 41.6418 116.515 41.6418C116.025 41.6418 115.601 41.564 115.243 41.4085C114.885 41.253 114.605 41.0324 114.403 40.7469C114.2 40.4593 114.088 40.1184 114.067 39.7242H115.058C115.077 39.9607 115.154 40.1578 115.288 40.3155C115.424 40.471 115.598 40.5871 115.809 40.6638C116.022 40.7384 116.255 40.7757 116.509 40.7757C116.788 40.7757 117.036 40.732 117.254 40.6446C117.473 40.5552 117.646 40.4316 117.771 40.2739C117.897 40.1141 117.96 39.9277 117.96 39.7146C117.96 39.5207 117.905 39.362 117.794 39.2384C117.685 39.1148 117.537 39.0125 117.349 38.9316C117.164 38.8506 116.954 38.7792 116.72 38.7174L115.946 38.5065C115.422 38.3637 115.007 38.1539 114.7 37.8769C114.395 37.5999 114.243 37.2334 114.243 36.7775C114.243 36.4003 114.345 36.0711 114.55 35.7899C114.754 35.5086 115.031 35.2902 115.381 35.1347C115.73 34.977 116.124 34.8982 116.563 34.8982C117.006 34.8982 117.397 34.976 117.736 35.1315C118.077 35.287 118.346 35.5012 118.542 35.7739C118.738 36.0445 118.84 36.3556 118.848 36.7071H117.896Z" fill="#738DF2"/>
    <path d="M126.488 41.6258C126.049 41.6258 125.671 41.5459 125.353 41.3861C125.038 41.2263 124.795 41.009 124.625 40.7341C124.454 40.4571 124.369 40.1439 124.369 39.7945C124.369 39.5282 124.424 39.2917 124.535 39.085C124.646 38.8762 124.801 38.6833 124.999 38.5065C125.197 38.3297 125.426 38.1517 125.686 37.9728L126.74 37.2281C126.919 37.1109 127.059 36.9873 127.159 36.8574C127.259 36.7253 127.309 36.5623 127.309 36.3684C127.309 36.215 127.243 36.0679 127.111 35.9273C126.979 35.7867 126.802 35.7164 126.581 35.7164C126.427 35.7164 126.292 35.7537 126.175 35.8282C126.06 35.9028 125.969 35.9987 125.903 36.1159C125.839 36.2309 125.807 36.3524 125.807 36.4802C125.807 36.6294 125.848 36.7796 125.929 36.9309C126.012 37.0821 126.118 37.2387 126.248 37.4007C126.378 37.5605 126.515 37.7267 126.657 37.8993L129.697 41.5331H128.617L126.101 38.5768C125.89 38.3275 125.694 38.0932 125.513 37.8737C125.332 37.6521 125.185 37.4284 125.072 37.2025C124.961 36.9745 124.906 36.7284 124.906 36.4642C124.906 36.1638 124.974 35.8975 125.111 35.6652C125.249 35.4309 125.442 35.2476 125.689 35.1155C125.936 34.9834 126.226 34.9174 126.558 34.9174C126.895 34.9174 127.184 34.9834 127.424 35.1155C127.667 35.2455 127.854 35.4191 127.984 35.6365C128.116 35.8517 128.182 36.0871 128.182 36.3428C128.182 36.6539 128.104 36.9287 127.949 37.1674C127.795 37.4039 127.583 37.6212 127.313 37.8194L125.999 38.7878C125.743 38.9753 125.565 39.1606 125.465 39.3439C125.367 39.525 125.318 39.6667 125.318 39.7689C125.318 39.9564 125.366 40.1301 125.462 40.2899C125.56 40.4497 125.696 40.5775 125.871 40.6734C126.048 40.7693 126.255 40.8172 126.491 40.8172C126.734 40.8172 126.971 40.765 127.201 40.6606C127.433 40.5541 127.643 40.4017 127.83 40.2036C128.02 40.0054 128.17 39.7679 128.281 39.4909C128.392 39.2139 128.447 38.9039 128.447 38.5608H129.31C129.31 38.9827 129.262 39.3396 129.166 39.6315C129.07 39.9213 128.954 40.1578 128.818 40.341C128.684 40.5221 128.557 40.6638 128.438 40.7661C128.399 40.8002 128.363 40.8343 128.329 40.8684C128.295 40.9025 128.259 40.9365 128.22 40.9706C127.999 41.1944 127.73 41.3595 127.415 41.466C127.102 41.5726 126.793 41.6258 126.488 41.6258Z" fill="#738DF2"/>
    <path d="M135.064 41.5331V34.9877H137.461C137.926 34.9877 138.31 35.0644 138.615 35.2178C138.919 35.3691 139.147 35.5747 139.299 35.8346C139.45 36.0924 139.526 36.3833 139.526 36.7071C139.526 36.9799 139.476 37.21 139.375 37.3975C139.275 37.5829 139.141 37.732 138.973 37.8449C138.807 37.9557 138.623 38.0367 138.423 38.0878V38.1517C138.64 38.1624 138.852 38.2327 139.059 38.3627C139.268 38.4905 139.44 38.6727 139.577 38.9092C139.713 39.1457 139.781 39.4333 139.781 39.7721C139.781 40.1066 139.703 40.4071 139.545 40.6734C139.389 40.9376 139.149 41.1475 138.823 41.303C138.497 41.4564 138.08 41.5331 137.573 41.5331H135.064ZM136.052 40.6862H137.477C137.95 40.6862 138.289 40.5946 138.493 40.4113C138.698 40.2281 138.8 39.999 138.8 39.7242C138.8 39.5175 138.748 39.3279 138.644 39.1553C138.539 38.9827 138.39 38.8453 138.196 38.743C138.004 38.6407 137.776 38.5896 137.512 38.5896H136.052V40.6862ZM136.052 37.8194H137.375C137.596 37.8194 137.796 37.7767 137.972 37.6915C138.151 37.6063 138.293 37.487 138.397 37.3336C138.504 37.178 138.557 36.9948 138.557 36.7838C138.557 36.5133 138.462 36.2863 138.273 36.1031C138.083 35.9199 137.792 35.8282 137.4 35.8282H136.052V37.8194Z" fill="#738DF2"/>
    <path d="M146.242 34.9877H147.233V39.2927C147.233 39.7508 147.125 40.1567 146.91 40.5104C146.695 40.862 146.392 41.139 146.002 41.3414C145.612 41.5417 145.155 41.6418 144.631 41.6418C144.109 41.6418 143.653 41.5417 143.263 41.3414C142.873 41.139 142.571 40.862 142.355 40.5104C142.14 40.1567 142.033 39.7508 142.033 39.2927V34.9877H143.02V39.2128C143.02 39.509 143.085 39.7721 143.215 40.0022C143.347 40.2324 143.534 40.4135 143.775 40.5456C144.015 40.6755 144.301 40.7405 144.631 40.7405C144.963 40.7405 145.25 40.6755 145.491 40.5456C145.734 40.4135 145.919 40.2324 146.047 40.0022C146.177 39.7721 146.242 39.509 146.242 39.2128V34.9877Z" fill="#738DF2"/>
    <path d="M150.736 34.9877V41.5331H149.748V34.9877H150.736Z" fill="#738DF2"/>
    <path d="M153.254 41.5331V34.9877H154.242V40.683H157.208V41.5331H153.254Z" fill="#738DF2"/>
    <path d="M161.533 41.5331H159.414V34.9877H161.6C162.242 34.9877 162.792 35.1187 163.253 35.3808C163.713 35.6407 164.066 36.0147 164.311 36.5026C164.558 36.9884 164.681 37.5711 164.681 38.2508C164.681 38.9326 164.557 39.5186 164.307 40.0086C164.06 40.4987 163.702 40.8758 163.234 41.14C162.765 41.4021 162.198 41.5331 161.533 41.5331ZM160.402 40.6702H161.479C161.978 40.6702 162.392 40.5765 162.722 40.389C163.052 40.1993 163.3 39.9255 163.464 39.5676C163.628 39.2075 163.71 38.7686 163.71 38.2508C163.71 37.7373 163.628 37.3016 163.464 36.9436C163.302 36.5857 163.06 36.314 162.738 36.1287C162.416 35.9433 162.017 35.8506 161.54 35.8506H160.402V40.6702Z" fill="#738DF2"/>
    <path d="M166.989 41.5331V34.9877H171.093V35.8378H167.977V37.8321H170.879V38.6791H167.977V40.683H171.131V41.5331H166.989Z" fill="#738DF2"/>
    <path d="M173.492 41.5331V34.9877H175.825C176.332 34.9877 176.753 35.075 177.088 35.2498C177.424 35.4245 177.676 35.6663 177.842 35.9753C178.008 36.2821 178.091 36.6368 178.091 37.0395C178.091 37.4401 178.007 37.7927 177.839 38.0974C177.673 38.4 177.421 38.6354 177.085 38.8037C176.75 38.9721 176.329 39.0562 175.822 39.0562H174.055V38.2061H175.733C176.052 38.2061 176.312 38.1603 176.513 38.0686C176.715 37.977 176.863 37.8439 176.957 37.6691C177.051 37.4944 177.097 37.2846 177.097 37.0395C177.097 36.7924 177.049 36.5782 176.954 36.3971C176.86 36.216 176.712 36.0775 176.509 35.9816C176.309 35.8836 176.046 35.8346 175.72 35.8346H174.48V41.5331H173.492ZM176.723 38.58L178.341 41.5331H177.216L175.63 38.58H176.723Z" fill="#738DF2"/>
    <path d="M183.943 36.7071C183.909 36.4046 183.768 36.1702 183.521 36.004C183.274 35.8357 182.963 35.7515 182.588 35.7515C182.319 35.7515 182.087 35.7941 181.891 35.8794C181.695 35.9625 181.543 36.0775 181.434 36.2245C181.328 36.3694 181.274 36.5346 181.274 36.7199C181.274 36.8755 181.311 37.0097 181.383 37.1226C181.458 37.2356 181.555 37.3304 181.674 37.4071C181.795 37.4816 181.925 37.5445 182.064 37.5956C182.202 37.6446 182.335 37.6851 182.463 37.7171L183.102 37.8833C183.311 37.9344 183.525 38.0037 183.745 38.091C183.964 38.1784 184.168 38.2934 184.355 38.4362C184.543 38.5789 184.694 38.7558 184.809 38.9667C184.926 39.1777 184.985 39.4302 184.985 39.7242C184.985 40.0949 184.889 40.4241 184.697 40.7118C184.508 40.9994 184.232 41.2263 183.87 41.3925C183.509 41.5587 183.074 41.6418 182.562 41.6418C182.072 41.6418 181.648 41.564 181.29 41.4085C180.932 41.253 180.652 41.0324 180.45 40.7469C180.247 40.4593 180.135 40.1184 180.114 39.7242H181.105C181.124 39.9607 181.201 40.1578 181.335 40.3155C181.471 40.471 181.645 40.5871 181.856 40.6638C182.069 40.7384 182.302 40.7757 182.556 40.7757C182.835 40.7757 183.083 40.732 183.301 40.6446C183.52 40.5552 183.693 40.4316 183.818 40.2739C183.944 40.1141 184.007 39.9277 184.007 39.7146C184.007 39.5207 183.952 39.362 183.841 39.2384C183.732 39.1148 183.584 39.0125 183.396 38.9316C183.211 38.8506 183.001 38.7792 182.767 38.7174L181.993 38.5065C181.469 38.3637 181.054 38.1539 180.747 37.8769C180.442 37.5999 180.29 37.2334 180.29 36.7775C180.29 36.4003 180.392 36.0711 180.597 35.7899C180.801 35.5086 181.078 35.2902 181.428 35.1347C181.777 34.977 182.171 34.8982 182.61 34.8982C183.053 34.8982 183.444 34.976 183.783 35.1315C184.124 35.287 184.393 35.5012 184.589 35.7739C184.785 36.0445 184.887 36.3556 184.895 36.7071H183.943Z" fill="#738DF2"/>
</svg>
