<svg width="207" height="48" viewBox="0 0 207 48" fill="none" xmlns="http://www.w3.org/2000/svg">
    <path d="M32.6893 7.45004V25.6471H28.478V18.1863H20.2113V25.6471H16V7.45004H20.2113V14.6249H28.478V7.45004H32.6893Z" fill="#2F55EB"/>
    <path d="M43.3636 25.855C41.8905 25.855 40.5647 25.5518 39.3862 24.9452C38.2251 24.3213 37.3152 23.4634 36.6567 22.3716C35.9981 21.2798 35.6688 20.0407 35.6688 18.6542C35.6688 17.2678 35.9981 16.0286 36.6567 14.9368C37.3152 13.845 38.2251 12.9958 39.3862 12.3892C40.5647 11.7653 41.8905 11.4534 43.3636 11.4534C44.8367 11.4534 46.1538 11.7653 47.3149 12.3892C48.4761 12.9958 49.3859 13.845 50.0445 14.9368C50.7031 16.0286 51.0323 17.2678 51.0323 18.6542C51.0323 20.0407 50.7031 21.2798 50.0445 22.3716C49.3859 23.4634 48.4761 24.3213 47.3149 24.9452C46.1538 25.5518 44.8367 25.855 43.3636 25.855ZM43.3636 22.5276C44.4034 22.5276 45.2526 22.181 45.9112 21.4877C46.5871 20.7772 46.925 19.8327 46.925 18.6542C46.925 17.4757 46.5871 16.5399 45.9112 15.8467C45.2526 15.1361 44.4034 14.7808 43.3636 14.7808C42.3238 14.7808 41.4659 15.1361 40.79 15.8467C40.1141 16.5399 39.7762 17.4757 39.7762 18.6542C39.7762 19.8327 40.1141 20.7772 40.79 21.4877C41.4659 22.181 42.3238 22.5276 43.3636 22.5276Z" fill="#2F55EB"/>
    <path d="M71.6541 11.4534C73.4045 11.4534 74.7909 11.9733 75.8134 13.0131C76.8532 14.0356 77.3731 15.578 77.3731 17.6404V25.6471H73.3178V18.2643C73.3178 17.1551 73.0839 16.3319 72.6159 15.7947C72.1653 15.2401 71.5154 14.9628 70.6662 14.9628C69.7131 14.9628 68.9592 15.2748 68.4046 15.8987C67.85 16.5052 67.5727 17.4151 67.5727 18.6282V25.6471H63.5174V18.2643C63.5174 16.0633 62.6336 14.9628 60.8658 14.9628C59.93 14.9628 59.1848 15.2748 58.6302 15.8987C58.0756 16.5052 57.7983 17.4151 57.7983 18.6282V25.6471H53.743V11.6614H57.6164V13.2731C58.1363 12.6839 58.7688 12.2333 59.5141 11.9213C60.2766 11.6094 61.1085 11.4534 62.0097 11.4534C62.9975 11.4534 63.89 11.6527 64.6872 12.0513C65.4844 12.4326 66.1256 12.9958 66.6109 13.741C67.1828 13.0131 67.902 12.4499 68.7685 12.0513C69.6524 11.6527 70.6143 11.4534 71.6541 11.4534Z" fill="#2F55EB"/>
    <path d="M94.8602 18.7062C94.8602 18.7582 94.8342 19.1221 94.7822 19.798H84.2019C84.3925 20.6645 84.8431 21.3491 85.5537 21.8517C86.2642 22.3543 87.1481 22.6056 88.2053 22.6056C88.9331 22.6056 89.5744 22.5016 90.1289 22.2936C90.7009 22.0683 91.2294 21.7217 91.7147 21.2538L93.8723 23.5934C92.5552 25.1012 90.6315 25.855 88.1013 25.855C86.5242 25.855 85.1291 25.5518 83.916 24.9452C82.7028 24.3213 81.767 23.4634 81.1084 22.3716C80.4499 21.2798 80.1206 20.0407 80.1206 18.6542C80.1206 17.2851 80.4412 16.0546 81.0824 14.9628C81.741 13.8537 82.6335 12.9958 83.76 12.3892C84.9038 11.7653 86.1776 11.4534 87.5814 11.4534C88.9505 11.4534 90.1896 11.748 91.2988 12.3372C92.4079 12.9265 93.2744 13.7757 93.8983 14.8848C94.5396 15.9766 94.8602 17.2504 94.8602 18.7062ZM87.6074 14.5209C86.6888 14.5209 85.9176 14.7808 85.2937 15.3008C84.6698 15.8207 84.2886 16.5312 84.1499 17.4324H91.0388C90.9001 16.5486 90.5189 15.8467 89.895 15.3268C89.2711 14.7895 88.5085 14.5209 87.6074 14.5209Z" fill="#2F55EB"/>
    <path d="M111.208 16.1846C112.248 16.5139 113.062 17.0685 113.651 17.8483C114.241 18.6109 114.535 19.5554 114.535 20.6819C114.535 22.2763 113.911 23.5068 112.664 24.3733C111.433 25.2225 109.631 25.6471 107.256 25.6471H97.846V7.45004H106.737C108.955 7.45004 110.653 7.87463 111.832 8.72383C113.028 9.57302 113.625 10.7255 113.625 12.1813C113.625 13.0651 113.409 13.8537 112.976 14.5469C112.56 15.2401 111.97 15.786 111.208 16.1846ZM102.031 10.6215V14.9108H106.217C107.256 14.9108 108.045 14.7289 108.582 14.3649C109.12 14.001 109.388 13.4637 109.388 12.7532C109.388 12.0426 109.12 11.514 108.582 11.1674C108.045 10.8035 107.256 10.6215 106.217 10.6215H102.031ZM106.945 22.4756C108.054 22.4756 108.886 22.2936 109.44 21.9297C110.012 21.5657 110.298 21.0025 110.298 20.24C110.298 18.7322 109.18 17.9783 106.945 17.9783H102.031V22.4756H106.945Z" fill="#2F55EB"/>
    <path d="M131.527 11.6614V25.6471H127.68V23.9833C127.143 24.5899 126.502 25.0578 125.756 25.3871C125.011 25.6991 124.205 25.855 123.339 25.855C121.502 25.855 120.046 25.3265 118.971 24.2693C117.897 23.2121 117.36 21.6437 117.36 19.5641V11.6614H121.415V18.9662C121.415 21.2191 122.36 22.3456 124.249 22.3456C125.219 22.3456 125.999 22.0337 126.588 21.4098C127.177 20.7685 127.472 19.824 127.472 18.5762V11.6614H131.527Z" fill="#2F55EB"/>
    <path d="M149.53 6.35822V25.6471H145.657V24.0353C144.652 25.2485 143.196 25.855 141.289 25.855C139.972 25.855 138.776 25.5604 137.702 24.9712C136.645 24.3819 135.813 23.5414 135.206 22.4496C134.6 21.3578 134.297 20.0926 134.297 18.6542C134.297 17.2158 134.6 15.9507 135.206 14.8588C135.813 13.767 136.645 12.9265 137.702 12.3372C138.776 11.748 139.972 11.4534 141.289 11.4534C143.074 11.4534 144.47 12.0166 145.475 13.1431V6.35822H149.53ZM141.991 22.5276C143.014 22.5276 143.863 22.181 144.539 21.4877C145.215 20.7772 145.553 19.8327 145.553 18.6542C145.553 17.4757 145.215 16.5399 144.539 15.8467C143.863 15.1361 143.014 14.7808 141.991 14.7808C140.951 14.7808 140.094 15.1361 139.418 15.8467C138.742 16.5399 138.404 17.4757 138.404 18.6542C138.404 19.8327 138.742 20.7772 139.418 21.4877C140.094 22.181 140.951 22.5276 141.991 22.5276Z" fill="#2F55EB"/>
    <path d="M167.529 6.35822V25.6471H163.656V24.0353C162.651 25.2485 161.195 25.855 159.288 25.855C157.971 25.855 156.775 25.5604 155.701 24.9712C154.644 24.3819 153.812 23.5414 153.205 22.4496C152.599 21.3578 152.296 20.0926 152.296 18.6542C152.296 17.2158 152.599 15.9507 153.205 14.8588C153.812 13.767 154.644 12.9265 155.701 12.3372C156.775 11.748 157.971 11.4534 159.288 11.4534C161.073 11.4534 162.469 12.0166 163.474 13.1431V6.35822H167.529ZM159.99 22.5276C161.013 22.5276 161.862 22.181 162.538 21.4877C163.214 20.7772 163.552 19.8327 163.552 18.6542C163.552 17.4757 163.214 16.5399 162.538 15.8467C161.862 15.1361 161.013 14.7808 159.99 14.7808C158.95 14.7808 158.093 15.1361 157.417 15.8467C156.741 16.5399 156.403 17.4757 156.403 18.6542C156.403 19.8327 156.741 20.7772 157.417 21.4877C158.093 22.181 158.95 22.5276 159.99 22.5276Z" fill="#2F55EB"/>
    <path d="M185.164 11.6614L178.847 26.5049C178.206 28.1167 177.409 29.2518 176.456 29.9104C175.52 30.5689 174.385 30.8982 173.05 30.8982C172.322 30.8982 171.603 30.7856 170.892 30.5603C170.182 30.335 169.601 30.023 169.151 29.6244L170.633 26.7389C170.944 27.0162 171.3 27.2328 171.698 27.3888C172.114 27.5448 172.522 27.6227 172.92 27.6227C173.475 27.6227 173.925 27.4841 174.272 27.2068C174.619 26.9469 174.93 26.5049 175.208 25.881L175.26 25.7511L169.203 11.6614H173.388L177.313 21.1498L181.265 11.6614H185.164Z" fill="#2F55EB"/>
    <path d="M188.353 25.855C187.642 25.855 187.044 25.6124 186.559 25.1272C186.074 24.6419 185.831 24.0353 185.831 23.3075C185.831 22.5622 186.074 21.9643 186.559 21.5137C187.044 21.0458 187.642 20.8119 188.353 20.8119C189.063 20.8119 189.661 21.0458 190.146 21.5137C190.632 21.9643 190.874 22.5622 190.874 23.3075C190.874 24.0353 190.632 24.6419 190.146 25.1272C189.661 25.6124 189.063 25.855 188.353 25.855Z" fill="#FA8C16"/>
</svg>
