<svg height="23px"
     width="23px"
     xmlns="http://www.w3.org/2000/svg"
     viewBox="0 -256 1792 1792">
    <path d="M617.492 1123.797q0 60-42.5 102-42.5 42-101.5 42-60 0-102-42-42-42-42-102 0-60 42-102 42-42 102-42 59 0 101.5 42 42.5 42 42.5 102zm432 192q0 53-37.5 90.5-37.5 37.5-90.5 37.5-53 0-90.5-37.5-37.5-37.5-37.5-90.5 0-53 37.5-90.5 37.5-37.5 90.5-37.5 53 0 90.5 37.5 37.5 37.5 37.5 90.5zm-608-640q0 66-47 113-47 47-113 47-66 0-113-47-47-47-47-113 0-66 47-113 47-47 113-47 66 0 113 47 47 47 47 113zm1040 448q0 46-33 79-33 33-79 33-46 0-79-33-33-33-33-79 0-46 33-79 33-33 79-33 46 0 79 33 33 33 33 79zm-832-896q0 73-51.5 124.5-51.5 51.5-124.5 51.5-73 0-124.5-51.5-51.5-51.5-51.5-124.5 0-73 51.5-124.5 51.5-51.5 124.5-51.5 73 0 124.5 51.5 51.5 51.5 51.5 124.5zm464-192q0 80-56 136-56 56-136 56-80 0-136-56-56-56-56-136 0-80 56-136 56-56 136-56 80 0 136 56 56 56 56 136zm544 640q0 40-28 68-28 28-68 28-40 0-68-28-28-28-28-68 0-40 28-68 28-28 68-28 40 0 68 28 28 28 28 68zm-208-448q0 33-23.5 56.5-23.5 23.5-56.5 23.5-33 0-56.5-23.5-23.5-23.5-23.5-56.5 0-33 23.5-56.5 23.5-23.5 56.5-23.5 33 0 56.5 23.5 23.5 23.5 23.5 56.5z"
          fill="#fff"/>
</svg>
