<svg width="32" height="32" viewBox="0 0 32 32" fill="none" xmlns="http://www.w3.org/2000/svg">
<rect width="32" height="32" rx="7.31429" fill="#2F55EB"/>
<path d="M14.777 10.5137V21.6425H12.2015V17.0797H7.14583V21.6425H4.57031V10.5137H7.14583V14.9016H12.2015V10.5137H14.777Z" fill="white"/>
<path d="M25.5817 15.8555C26.2177 16.0569 26.7158 16.396 27.0762 16.873C27.4365 17.3393 27.6167 17.917 27.6167 18.6059C27.6167 19.581 27.2352 20.3335 26.472 20.8634C25.7195 21.3828 24.6172 21.6425 23.1652 21.6425H17.41V10.5137H22.8472C24.2039 10.5137 25.2426 10.7733 25.9633 11.2927C26.6946 11.812 27.0603 12.5169 27.0603 13.4072C27.0603 13.9477 26.9278 14.4299 26.6628 14.8539C26.4084 15.2779 26.0481 15.6117 25.5817 15.8555ZM19.9696 12.4533V15.0765H22.5293C23.1652 15.0765 23.6474 14.9652 23.976 14.7426C24.3046 14.52 24.4689 14.1915 24.4689 13.7569C24.4689 13.3224 24.3046 12.9991 23.976 12.7871C23.6474 12.5645 23.1652 12.4533 22.5293 12.4533H19.9696ZM22.9744 19.7029C23.6527 19.7029 24.1615 19.5916 24.5006 19.369C24.8504 19.1464 25.0253 18.802 25.0253 18.3356C25.0253 17.4135 24.3417 16.9525 22.9744 16.9525H19.9696V19.7029H22.9744Z" fill="white"/>
</svg>
