<svg
        width="20"
        height="20"
        viewBox="0 0 20 20"
        fill="none"
        xmlns="http://www.w3.org/2000/svg"
>
    <path
            d="M10 0.625C8.1458 0.625 6.33324 1.17483 4.79153 2.20497C3.24982 3.23511 2.0482 4.69928 1.33863 6.41234C0.629062 8.1254 0.443406 10.0104 0.805142 11.829C1.16688 13.6475 2.05976 15.318 3.37088 16.6291C4.68199 17.9402 6.35246 18.8331 8.17103 19.1949C9.9896 19.5566 11.8746 19.3709 13.5877 18.6614C15.3007 17.9518 16.7649 16.7502 17.795 15.2085C18.8252 13.6668 19.375 11.8542 19.375 10C19.3722 7.51445 18.3836 5.13152 16.626 3.37397C14.8685 1.61642 12.4855 0.627803 10 0.625ZM10 17.2917C8.55785 17.2917 7.14808 16.864 5.94897 16.0628C4.74986 15.2616 3.81527 14.1228 3.26338 12.7904C2.71149 11.458 2.56709 9.99191 2.84844 8.57746C3.1298 7.16302 3.82426 5.86377 4.84402 4.84401C5.86377 3.82425 7.16302 3.12979 8.57747 2.84844C9.99191 2.56709 11.458 2.71149 12.7904 3.26338C14.1228 3.81527 15.2616 4.74986 16.0628 5.94897C16.864 7.14807 17.2917 8.55784 17.2917 10C17.2895 11.9332 16.5205 13.7866 15.1536 15.1535C13.7866 16.5205 11.9332 17.2895 10 17.2917ZM11.7361 14.1667C11.7361 14.4429 11.6264 14.7079 11.431 14.9032C11.2357 15.0986 10.9707 15.2083 10.6944 15.2083H10C9.72373 15.2083 9.45878 15.0986 9.26343 14.9032C9.06808 14.7079 8.95834 14.4429 8.95834 14.1667V10.2879C8.72667 10.206 8.53142 10.0448 8.4071 9.83282C8.28277 9.62086 8.23737 9.37177 8.27892 9.12957C8.32047 8.88738 8.44629 8.66766 8.63415 8.50925C8.82201 8.35084 9.05982 8.26394 9.30556 8.26389H10C10.2763 8.26389 10.5412 8.37363 10.7366 8.56898C10.9319 8.76433 11.0417 9.02929 11.0417 9.30555V13.1843C11.2448 13.2562 11.4206 13.3892 11.545 13.5651C11.6693 13.7411 11.7361 13.9512 11.7361 14.1667ZM9.01797 6.81545C8.85645 6.65395 8.73725 6.45511 8.67094 6.23654C8.60462 6.01797 8.59324 5.78641 8.63779 5.56239C8.68234 5.33837 8.78146 5.12879 8.92635 4.95223C9.07125 4.77566 9.25745 4.63755 9.46847 4.55014C9.67949 4.46273 9.90882 4.42871 10.1361 4.45109C10.3634 4.47348 10.5817 4.55158 10.7716 4.67848C10.9615 4.80538 11.1172 4.97716 11.2249 5.1786C11.3326 5.38004 11.3889 5.60492 11.3889 5.83333V5.83377C11.3888 6.10842 11.3073 6.37688 11.1546 6.60521C11.002 6.83354 10.7851 7.01149 10.5313 7.11657C10.2775 7.22165 9.99832 7.24913 9.72894 7.19555C9.45957 7.14197 9.21212 7.00972 9.01788 6.81554L9.01797 6.81545Z"
            fill="#2F55EB"
    />
</svg>