<svg width="206" height="49" viewBox="0 0 206 49" fill="none" xmlns="http://www.w3.org/2000/svg">
    <path opacity="0.8" d="M1.79901 47V39.7273H6.30895V40.6719H2.89631V42.8878H5.9858V43.8288H2.89631V47H1.79901ZM15.4759 43.3636C15.4759 44.1402 15.3338 44.8078 15.0497 45.3665C14.7656 45.9228 14.3762 46.3513 13.8814 46.652C13.389 46.9503 12.8291 47.0994 12.2017 47.0994C11.572 47.0994 11.0097 46.9503 10.5149 46.652C10.0225 46.3513 9.63423 45.9216 9.35014 45.3629C9.06605 44.8042 8.92401 44.1378 8.92401 43.3636C8.92401 42.5871 9.06605 41.9207 9.35014 41.3643C9.63423 40.8056 10.0225 40.3771 10.5149 40.0788C11.0097 39.7782 11.572 39.6278 12.2017 39.6278C12.8291 39.6278 13.389 39.7782 13.8814 40.0788C14.3762 40.3771 14.7656 40.8056 15.0497 41.3643C15.3338 41.9207 15.4759 42.5871 15.4759 43.3636ZM14.3892 43.3636C14.3892 42.7718 14.2933 42.2734 14.1016 41.8686C13.9122 41.4614 13.6518 41.1536 13.3203 40.9453C12.9912 40.7346 12.6184 40.6293 12.2017 40.6293C11.7827 40.6293 11.4086 40.7346 11.0795 40.9453C10.7505 41.1536 10.4901 41.4614 10.2983 41.8686C10.1089 42.2734 10.0142 42.7718 10.0142 43.3636C10.0142 43.9555 10.1089 44.455 10.2983 44.8622C10.4901 45.267 10.7505 45.5748 11.0795 45.7855C11.4086 45.9938 11.7827 46.098 12.2017 46.098C12.6184 46.098 12.9912 45.9938 13.3203 45.7855C13.6518 45.5748 13.9122 45.267 14.1016 44.8622C14.2933 44.455 14.3892 43.9555 14.3892 43.3636ZM18.3439 47V39.7273H20.9363C21.4997 39.7273 21.9673 39.8243 22.339 40.0185C22.713 40.2126 22.9924 40.4813 23.177 40.8246C23.3617 41.1655 23.454 41.5597 23.454 42.0071C23.454 42.4522 23.3605 42.844 23.1735 43.1825C22.9888 43.5187 22.7095 43.7803 22.3354 43.9673C21.9637 44.1544 21.4962 44.2479 20.9327 44.2479H18.9689V43.3033H20.8333C21.1884 43.3033 21.4772 43.2524 21.6998 43.1506C21.9247 43.0488 22.0892 42.9008 22.1934 42.7067C22.2975 42.5125 22.3496 42.2794 22.3496 42.0071C22.3496 41.7325 22.2963 41.4946 22.1898 41.2933C22.0856 41.0921 21.9211 40.9382 21.6962 40.8317C21.4737 40.7228 21.1813 40.6683 20.8191 40.6683H19.4412V47H18.3439ZM21.9341 43.7188L23.731 47H22.481L20.7196 43.7188H21.9341ZM30.4357 39.7273H31.7674L34.0827 45.3807H34.168L36.4833 39.7273H37.815V47H36.771V41.7372H36.7035L34.5586 46.9893H33.6921L31.5472 41.7337H31.4798V47H30.4357V39.7273ZM41.5247 47H40.3599L42.9771 39.7273H44.2449L46.862 47H45.6973L43.6412 41.0483H43.5843L41.5247 47ZM41.72 44.152H45.4984V45.0753H41.72V44.152ZM55.2823 39.7273V47H54.2738L50.5771 41.6662H50.5096V47H49.4123V39.7273H50.4279L54.1282 45.0682H54.1957V39.7273H55.2823ZM58.9973 47H57.8326L60.4498 39.7273H61.7175L64.3347 47H63.1699L61.1138 41.0483H61.057L58.9973 47ZM59.1926 44.152H62.9711V45.0753H59.1926V44.152ZM71.465 42.0249C71.3964 41.8094 71.304 41.6165 71.188 41.446C71.0744 41.2732 70.9383 41.1264 70.7797 41.0057C70.621 40.8826 70.4399 40.7891 70.2363 40.7251C70.0351 40.6612 69.8137 40.6293 69.5723 40.6293C69.1627 40.6293 68.7934 40.7346 68.4643 40.9453C68.1352 41.156 67.8748 41.465 67.6831 41.8722C67.4937 42.277 67.399 42.773 67.399 43.3601C67.399 43.9496 67.4949 44.4479 67.6866 44.8551C67.8784 45.2623 68.1412 45.5713 68.475 45.782C68.8088 45.9927 69.1887 46.098 69.6149 46.098C70.0102 46.098 70.3547 46.0175 70.6483 45.8565C70.9442 45.6955 71.1726 45.4683 71.3336 45.1747C71.497 44.8788 71.5787 44.5308 71.5787 44.1307L71.8627 44.1839H69.7818V43.2784H72.6404V44.1058C72.6404 44.7166 72.5102 45.2469 72.2498 45.6967C71.9918 46.1442 71.6343 46.4898 71.1774 46.7337C70.7228 46.9775 70.202 47.0994 69.6149 47.0994C68.9567 47.0994 68.3791 46.9479 67.8819 46.6449C67.3871 46.3419 67.0012 45.9122 66.7243 45.3558C66.4473 44.7971 66.3088 44.1342 66.3088 43.3672C66.3088 42.7872 66.3893 42.2663 66.5502 41.8047C66.7112 41.343 66.9373 40.9512 67.2285 40.6293C67.5221 40.3049 67.8665 40.0575 68.2619 39.8871C68.6596 39.7143 69.094 39.6278 69.5652 39.6278C69.9582 39.6278 70.3239 39.6858 70.6625 39.8018C71.0034 39.9179 71.3064 40.0824 71.5716 40.2955C71.8391 40.5085 72.0604 40.7618 72.2356 41.0554C72.4108 41.3466 72.5292 41.6697 72.5907 42.0249H71.465ZM75.5334 47V39.7273H80.093V40.6719H76.6307V42.8878H79.8551V43.8288H76.6307V46.0554H80.1357V47H75.5334ZM83.0588 47V39.7273H85.6511C86.2145 39.7273 86.6821 39.8243 87.0538 40.0185C87.4279 40.2126 87.7072 40.4813 87.8919 40.8246C88.0765 41.1655 88.1689 41.5597 88.1689 42.0071C88.1689 42.4522 88.0753 42.844 87.8883 43.1825C87.7037 43.5187 87.4243 43.7803 87.0502 43.9673C86.6786 44.1544 86.211 44.2479 85.6475 44.2479H83.6838V43.3033H85.5481C85.9032 43.3033 86.1921 43.2524 86.4146 43.1506C86.6395 43.0488 86.804 42.9008 86.9082 42.7067C87.0124 42.5125 87.0645 42.2794 87.0645 42.0071C87.0645 41.7325 87.0112 41.4946 86.9047 41.2933C86.8005 41.0921 86.6359 40.9382 86.411 40.8317C86.1885 40.7228 85.8961 40.6683 85.5339 40.6683H84.1561V47H83.0588ZM86.649 43.7188L88.4458 47H87.1958L85.4345 43.7188H86.649ZM94.9707 41.6378C94.9328 41.3016 94.7766 41.0412 94.502 40.8565C94.2273 40.6695 93.8817 40.576 93.465 40.576C93.1667 40.576 92.9087 40.6233 92.6909 40.718C92.4731 40.8104 92.3038 40.9382 92.1831 41.1016C92.0647 41.2625 92.0055 41.446 92.0055 41.652C92.0055 41.8248 92.0458 41.974 92.1262 42.0994C92.2091 42.2249 92.3168 42.3303 92.4494 42.4155C92.5843 42.4983 92.7288 42.5682 92.8826 42.625C93.0365 42.6795 93.1845 42.7244 93.3265 42.7599L94.0368 42.9446C94.2688 43.0014 94.5067 43.0784 94.7505 43.1754C94.9944 43.2725 95.2205 43.4003 95.4288 43.5589C95.6371 43.7176 95.8052 43.9141 95.9331 44.1484C96.0633 44.3828 96.1284 44.6634 96.1284 44.9901C96.1284 45.402 96.0218 45.7678 95.8088 46.0874C95.5981 46.407 95.2915 46.6591 94.889 46.8438C94.4889 47.0284 94.0048 47.1207 93.4366 47.1207C92.8921 47.1207 92.421 47.0343 92.0233 46.8615C91.6255 46.6887 91.3142 46.4437 91.0893 46.1264C90.8644 45.8068 90.7401 45.428 90.7164 44.9901H91.8173C91.8386 45.2528 91.9238 45.4718 92.073 45.647C92.2245 45.8198 92.4174 45.9489 92.6518 46.0341C92.8886 46.117 93.1478 46.1584 93.4295 46.1584C93.7396 46.1584 94.0154 46.1098 94.2569 46.0128C94.5008 45.9134 94.6925 45.776 94.8322 45.6009C94.9719 45.4233 95.0417 45.2161 95.0417 44.9794C95.0417 44.764 94.9802 44.5876 94.8571 44.4503C94.7363 44.313 94.5718 44.1993 94.3635 44.1094C94.1575 44.0194 93.9243 43.9401 93.6639 43.8714L92.8045 43.6371C92.2221 43.4785 91.7605 43.2453 91.4196 42.9375C91.081 42.6297 90.9118 42.2225 90.9118 41.7159C90.9118 41.2969 91.0254 40.9311 91.2527 40.6186C91.4799 40.3061 91.7877 40.0634 92.176 39.8906C92.5642 39.7154 93.0022 39.6278 93.4899 39.6278C93.9823 39.6278 94.4167 39.7143 94.7931 39.8871C95.1719 40.0599 95.4702 40.2978 95.688 40.6009C95.9058 40.9015 96.0195 41.2472 96.0289 41.6378H94.9707Z" fill="#2F55EB"/>
    <path d="M16.89 8V16.28H7.35V8H2.49V29H7.35V20.39H16.89V29H21.75V8H16.89ZM34.0685 29.24C39.1985 29.24 42.9185 25.79 42.9185 20.93C42.9185 16.07 39.1985 12.62 34.0685 12.62C28.9385 12.62 25.1885 16.07 25.1885 20.93C25.1885 25.79 28.9385 29.24 34.0685 29.24ZM34.0685 25.4C31.7285 25.4 29.9285 23.72 29.9285 20.93C29.9285 18.14 31.7285 16.46 34.0685 16.46C36.4085 16.46 38.1785 18.14 38.1785 20.93C38.1785 23.72 36.4085 25.4 34.0685 25.4ZM66.7167 12.62C64.2867 12.62 62.1867 13.61 60.8967 15.26C59.7567 13.49 57.8367 12.62 55.5867 12.62C53.5167 12.62 51.7167 13.34 50.5167 14.72V12.86H46.0467V29H50.7267V20.9C50.7267 18.02 52.1967 16.67 54.2667 16.67C56.2167 16.67 57.3267 17.87 57.3267 20.48V29H62.0067V20.9C62.0067 18.02 63.4767 16.67 65.5767 16.67C67.4667 16.67 68.6367 17.87 68.6367 20.48V29H73.3167V19.76C73.3167 14.84 70.5567 12.62 66.7167 12.62ZM93.4973 20.99C93.4973 15.8 89.8373 12.62 85.0973 12.62C80.1773 12.62 76.4873 16.1 76.4873 20.93C76.4873 25.73 80.1173 29.24 85.6973 29.24C88.6073 29.24 90.8573 28.34 92.3573 26.63L89.8673 23.93C88.7573 24.98 87.5273 25.49 85.8173 25.49C83.3573 25.49 81.6473 24.26 81.1973 22.25H93.4073C93.4373 21.86 93.4973 21.35 93.4973 20.99ZM85.1273 16.16C87.2273 16.16 88.7573 17.48 89.0873 19.52H81.1373C81.4673 17.45 82.9973 16.16 85.1273 16.16ZM112.363 18.08C114.073 17.18 115.153 15.56 115.153 13.46C115.153 10.19 112.453 8 107.203 8H96.9431V29H107.803C113.323 29 116.203 26.9 116.203 23.27C116.203 20.63 114.703 18.83 112.363 18.08ZM106.603 11.66C108.973 11.66 110.263 12.47 110.263 14.12C110.263 15.77 108.973 16.61 106.603 16.61H101.773V11.66H106.603ZM107.443 25.34H101.773V20.15H107.443C109.963 20.15 111.313 20.99 111.313 22.76C111.313 24.56 109.963 25.34 107.443 25.34ZM131.133 12.86V20.84C131.133 23.81 129.573 25.19 127.413 25.19C125.343 25.19 124.143 23.99 124.143 21.29V12.86H119.463V21.98C119.463 26.96 122.313 29.24 126.363 29.24C128.343 29.24 130.143 28.49 131.373 27.08V29H135.813V12.86H131.133ZM151.908 6.74V14.57C150.738 13.25 149.058 12.62 147.078 12.62C142.518 12.62 139.008 15.86 139.008 20.93C139.008 26 142.518 29.24 147.078 29.24C149.238 29.24 150.948 28.55 152.118 27.14V29H156.588V6.74H151.908ZM147.888 25.4C145.548 25.4 143.748 23.72 143.748 20.93C143.748 18.14 145.548 16.46 147.888 16.46C150.198 16.46 151.998 18.14 151.998 20.93C151.998 23.72 150.198 25.4 147.888 25.4ZM172.68 6.74V14.57C171.51 13.25 169.83 12.62 167.85 12.62C163.29 12.62 159.78 15.86 159.78 20.93C159.78 26 163.29 29.24 167.85 29.24C170.01 29.24 171.72 28.55 172.89 27.14V29H177.36V6.74H172.68ZM168.66 25.4C166.32 25.4 164.52 23.72 164.52 20.93C164.52 18.14 166.32 16.46 168.66 16.46C170.97 16.46 172.77 18.14 172.77 20.93C172.77 23.72 170.97 25.4 168.66 25.4ZM193.211 12.86L188.651 23.81L184.121 12.86H179.291L186.281 29.12L186.221 29.27C185.591 30.71 184.871 31.28 183.581 31.28C182.651 31.28 181.661 30.89 180.941 30.26L179.231 33.59C180.281 34.52 182.081 35.06 183.731 35.06C186.641 35.06 188.861 33.89 190.421 29.99L197.711 12.86H193.211Z" fill="#2F55EB"/>
    <path d="M201.391 29.24C203.011 29.24 204.301 28.01 204.301 26.3C204.301 24.56 203.011 23.42 201.391 23.42C199.771 23.42 198.481 24.56 198.481 26.3C198.481 28.01 199.771 29.24 201.391 29.24Z" fill="#FA8C16"/>
</svg>
